<svg id="Layer_1" data-name="Layer 1" xmlns="http://www.w3.org/2000/svg" viewBox="0 0 336.83 389.41">
  <title>clover</title>
  <g id="_6t9H0a.tif" data-name="6t9H0a.tif">
    <g>
      <path d="M111.5,5.21h8.42c.15.11.3.29.46.31,8.39,1.07,15.66,4.71,22.31,9.74,9.51,7.19,16.89,16.31,23.43,26.15,11.52,17.34,20,36.16,27.17,55.65.23.62.49,1.24.89,2.25.5-1.38.82-2.26,1.13-3.14,6.67-18.79,14.55-37,25.19-53.94,6.18-9.83,13.13-19,22.4-26.23,6.76-5.24,14.22-8.74,23-8.69s16.14,3.79,22.87,9c12.36,9.58,19.72,22.42,23.94,37.25.56,2,.48,4.57,1.74,5.8s3.87,1.08,5.85,1.64c12,3.36,23.08,8.32,32,17.43,12.25,12.56,14.38,33.06,3.59,47.39-6.06,8-14,13.65-22.86,18.16-17.56,9-36.47,13.52-55.74,16.83-4,.69-8.08,1.23-12.68,1.92,1,.4,1.48.6,2,.76,4.25,1.39,8.53,2.69,12.75,4.16,18.83,6.57,37.1,14.34,53.84,25.34,8.64,5.68,16.64,12.12,22.88,20.49,6.89,9.24,10.64,19.49,7.84,31-5.15,21.16-18.18,35.24-39.22,41.52-2.09.62-2.78,1.46-3,3.59a61.47,61.47,0,0,1-7.45,24.74c-5.17,9-12.65,14.56-23.34,14.87a47.51,47.51,0,0,1-21.18-4.49c-11.49-5.21-20.71-13.36-29-22.67-11.29-12.72-20.23-27-28.07-42.06L210,255a1.4,1.4,0,0,0-.25,1.12c2.3,13.62,4.53,27.26,6.92,40.87,2.89,16.41,8.63,31.64,19.15,44.83,4.33,5.43,8.5,11,12.86,16.62L218.39,394.3c-.29-.92-.48-1.54-.68-2.17-4.53-13.89-8.94-27.82-13.66-41.65-2.35-6.87-5.73-13.4-7.85-20.33-5.71-18.61-8.79-37.81-12.09-57-.6-3.48-1.14-7-1.76-10.72a7.69,7.69,0,0,0-.59.78c-.54,1.07-1.07,2.15-1.61,3.22-7.41,14.91-15.64,29.34-25.69,42.66-5.61,7.44-11.68,14.46-19.35,19.9-5.69,4-11.82,6.87-19,5.84-5-.71-9.32-3.2-13.49-5.86-13.1-8.37-21.09-20.61-25.9-35.06-1.91-5.73-3.08-11.71-4.6-17.66-2.2-.44-4.73-.78-7.16-1.44-18.83-5.1-30-17.62-35.3-36.08-2.55-9-.47-16.72,5.34-23.72,4.77-5.75,10.77-10,17.18-13.61,14.31-8.16,29.8-13.36,45.59-17.73,6.65-1.84,13.39-3.4,20.49-5.2-.93-.2-1.48-.35-2-.45-15.8-2.77-31.4-6.39-46.44-12.08-10.15-3.84-19.93-8.43-28.32-15.51-5.47-4.61-10.11-10-11.61-17.11-2.45-11.63-1.44-23,4.18-33.7S48.29,82,58.93,77.1c5-2.3,10.3-3.95,15.66-6,0-.19-.09-.71-.21-1.21a77.72,77.72,0,0,1-1.86-23.27c1.53-20.25,15.15-36.13,35-40.55Z" transform="translate(-28.14 -5.21)"/>
      <path d="M111.5,5.21l-4,.91c-19.81,4.42-33.43,20.3-35,40.55a77.72,77.72,0,0,0,1.86,23.27c.11.5.18,1,.21,1.21-5.35,2-10.65,3.66-15.66,6C48.29,82,39.54,89.14,34,99.68s-6.63,22.07-4.18,33.7c1.5,7.13,6.14,12.5,11.61,17.11,8.39,7.07,18.17,11.66,28.32,15.51,15,5.69,30.63,9.3,46.44,12.08.56.1,1.12.24,2,.45-7.11,1.79-13.84,3.36-20.49,5.2-15.79,4.37-31.27,9.57-45.59,17.73-6.41,3.65-12.42,7.87-17.18,13.61-5.81,7-7.88,14.76-5.34,23.72,5.25,18.46,16.47,31,35.3,36.08,2.44.66,5,1,7.16,1.44,1.53,6,2.7,11.93,4.6,17.66,4.81,14.45,12.81,26.69,25.9,35.06,4.17,2.66,8.49,5.14,13.49,5.86,7.22,1,13.35-1.8,19-5.84,7.67-5.44,13.74-12.46,19.35-19.9,10.05-13.32,18.28-27.75,25.69-42.66.53-1.08,1.06-2.15,1.61-3.22a7.69,7.69,0,0,1,.59-.78c.61,3.75,1.16,7.24,1.76,10.72,3.3,19.14,6.39,38.34,12.09,57,2.12,6.93,5.51,13.46,7.85,20.33,4.72,13.82,9.13,27.76,13.66,41.65.2.62.39,1.25.68,2.17l30.31-35.81c-4.36-5.65-8.53-11.2-12.86-16.62-10.52-13.19-16.25-28.41-19.15-44.83-2.4-13.61-4.62-27.24-6.92-40.87A1.4,1.4,0,0,1,210,255L212.6,260c7.84,15,16.78,29.34,28.07,42.06,8.27,9.32,17.48,17.46,29,22.67a47.51,47.51,0,0,0,21.18,4.49c10.68-.31,18.17-5.84,23.34-14.87a61.47,61.47,0,0,0,7.45-24.74c.21-2.13.91-3,3-3.59,21-6.27,34.06-20.36,39.22-41.52,2.8-11.5-.95-21.76-7.84-31-6.24-8.37-14.24-14.81-22.88-20.49-16.74-11-35-18.77-53.84-25.34-4.22-1.47-8.5-2.77-12.75-4.16-.48-.16-.94-.36-2-.76,4.6-.69,8.65-1.23,12.68-1.92C296.51,157.51,315.42,153,333,144c8.83-4.51,16.81-10.11,22.86-18.16,10.78-14.34,8.66-34.83-3.59-47.39-8.88-9.1-20-14.06-32-17.43-2-.56-4.58-.4-5.85-1.64s-1.18-3.82-1.74-5.8c-4.22-14.83-11.58-27.67-23.94-37.25-6.73-5.22-14.11-9-22.87-9s-16.21,3.44-23,8.69c-9.27,7.19-16.22,16.4-22.4,26.23C209.87,59.15,202,77.38,195.32,96.17c-.31.88-.63,1.75-1.13,3.14-.4-1-.67-1.62-.89-2.25-7.13-19.49-15.65-38.31-27.17-55.65-6.54-9.84-13.92-19-23.43-26.15-6.65-5-13.92-8.67-22.31-9.74-.16,0-.31-.2-.46-.31H365V394.63H28.14V5.21Z" transform="translate(-28.14 -5.21)" fill="#fff"/>
    </g>
  </g>
</svg>
