<svg id="Layer_1" data-name="Layer 1" xmlns="http://www.w3.org/2000/svg" viewBox="0 0 311.84 390.48">
  <title>easter</title>
  <g id="skZoSs.tif">
    <g>
      <path d="M35,5.18H346.88V395.66H35ZM113.93,297a11.32,11.32,0,0,1,.51,1.14c6.17,21.93,12,43.94,15.48,66.49,1.58,10.08,7.41,17.48,17.11,20.51,26.19,8.17,53,12.21,80.44,8.82,17.7-2.18,34.06-7.9,48.25-19.06a26.45,26.45,0,0,0,9.14-13.87c7.38-25.05,14.45-50.21,22.55-75,4.76-14.6,11.12-28.69,17.06-42.89a24.17,24.17,0,0,1,5.8-7.66,51.91,51.91,0,0,0,15.16-25.24c1.38-5.49,1.45-11.3-2.39-15.59-3.08-3.44-3-6.56-2.07-10.34a26.85,26.85,0,0,0,.51-3.12c1.42-10.9,3.6-21.81,2-32.84-3.39-23.24-17.48-38.93-41.63-41.72-5-.58-10.08-.08-15.16-.08a2.85,2.85,0,0,1-.23-.44c-.35-1-.69-2-1-3C278.18,82,268,62.46,252.28,46.33,224.73,18,191.36,4,151.54,6.94c-18.9,1.41-34,10-44.53,25.85A122.49,122.49,0,0,0,96.08,52.9c-9.54,22.71-13.06,46.7-14,71.15-.06,1.49,0,3,0,4.25-5,.55-9.54.78-13.95,1.58-10.46,1.92-19.41,6.28-25,16-6.74,11.79-8.29,24.39-5.71,37.47,2.86,14.5,9.42,27.43,18,39.38.65.9,1.19,1.87,1.86,2.92-5.33,4.38-5.85,9.74-3.74,15.7.38,1.08.65,2.2,1,3.29,3.6,10.62,8.27,20.67,16.51,28.55,9.09,8.69,19.6,11.55,31.67,6.91,1.66-.64,3.33-1.22,5-1.83l.5.56a20.1,20.1,0,0,1-1.71,2.18c-3.9,3.81-8.12,7.34-11.68,11.45A77.69,77.69,0,0,0,85,306.11c-3.41,6.32-.19,11.16,7,11.58,7.51.44,12.47-3.57,16.06-9.62C110.12,304.63,111.84,301,113.93,297Z" transform="translate(-35.04 -5.18)" fill="#fff"/>
      <path d="M113.93,297c-2.09,4-3.81,7.59-5.86,11-3.6,6-8.55,10.06-16.06,9.62-7.21-.42-10.43-5.26-7-11.58a77.69,77.69,0,0,1,9.87-13.64c3.56-4.11,7.78-7.63,11.68-11.45a20.1,20.1,0,0,0,1.71-2.18l-.5-.56c-1.67.61-3.34,1.19-5,1.83-12.07,4.64-22.58,1.77-31.67-6.91-8.25-7.88-12.91-17.93-16.51-28.55-.37-1.09-.63-2.21-1-3.29-2.11-6-1.59-11.32,3.74-15.7-.67-1.05-1.21-2-1.86-2.92-8.59-11.95-15.15-24.88-18-39.38-2.58-13.08-1-25.68,5.71-37.47,5.57-9.73,14.52-14.09,25-16,4.4-.81,8.91-1,13.95-1.58,0-1.27-.05-2.76,0-4.25,1-24.45,4.48-48.44,14-71.15A122.49,122.49,0,0,1,107,32.78c10.52-15.84,25.63-24.43,44.53-25.85C191.36,4,224.73,18,252.28,46.33,268,62.46,278.18,82,285.42,103.16c.34,1,.68,2,1,3a2.85,2.85,0,0,0,.23.44c5.08,0,10.18-.49,15.16.08,24.15,2.79,38.24,18.48,41.63,41.72,1.61,11-.57,21.94-2,32.84a26.85,26.85,0,0,1-.51,3.12c-1,3.78-1,6.9,2.07,10.34,3.84,4.29,3.78,10.1,2.39,15.59a51.91,51.91,0,0,1-15.16,25.24,24.17,24.17,0,0,0-5.8,7.66c-5.95,14.19-12.3,28.29-17.06,42.89-8.1,24.82-15.17,50-22.55,75A26.45,26.45,0,0,1,275.73,375c-14.19,11.16-30.55,16.87-48.25,19.06-27.49,3.39-54.25-.65-80.44-8.82-9.7-3-15.54-10.43-17.11-20.51-3.53-22.56-9.31-44.57-15.48-66.49A11.32,11.32,0,0,0,113.93,297ZM269,112.12c-.6-1.92-1-3.52-1.58-5-7.52-18.14-17-35.15-30-49.92C219.51,37,197.86,23.51,170.61,20.44,147.09,17.8,128.33,25.88,115.3,46A100.47,100.47,0,0,0,108,59.33c-7.47,16.59-10.93,34.19-12.68,52.18-.58,6-.81,12-1.2,17.9,15.82,3.79,30.56,9.14,44.38,17.17a95,95,0,0,1,29.91-31.47c13.06-8.77,26.71-9.45,40.41-2.06,5.92,3.19,11.23,7.59,16.6,11.71,3.39,2.6,6.39,5.71,9.68,8.69A130.82,130.82,0,0,1,269,112.12ZM136.18,148.86a19.31,19.31,0,0,0-3.52-2.24c-9.74-3.9-19.4-8-29.32-11.41a68.2,68.2,0,0,0-34-2.29c-9.29,1.6-17.62,4.92-22.89,13.57-6.26,10.29-7.76,21.38-6.43,33.12a14.21,14.21,0,0,0,3.8,8.12c2.72,3.05,5.31,6.22,7.94,9.32-3.22,3.77-3.5,5.81-1.14,7.89s4.39,1.47,7.64-2.08l5,4-10.6,6.58c2.26,3.2,4.2,6.16,6.38,8.92a3.26,3.26,0,0,0,2.75,1c7.42-1.94,14.41-.68,21.17,2.55,7.1,3.39,13,8.4,18.31,14.1,1.37,1.47,2.44,1.81,4.1.67,6.82-4.72,13.55-9.58,20.58-14,2.8-1.75,2.6-3.57,2.12-6.15-3.07-16.26-3.39-32.56.62-48.67C130.58,164.15,133.55,156.78,136.18,148.86ZM96.47,61.32c.28-.48.57-1,.82-1.45A78.72,78.72,0,0,1,139,21.44c15.49-6.34,31.28-5.46,47-1.08C209.85,27,228.59,41.2,243.83,60.3c12.08,15.15,21.69,31.78,27.7,50.23,3.07,9.43,5.23,19.18,7.4,28.88,5.69,25.44,9.78,51.1,9.51,77.28,0,2.93,0,5.86,0,9h10.71a72,72,0,0,0,.39-8.1c-.81-13.83-1-27.76-2.86-41.46-2.55-19.12-5.53-38.26-9.82-57-5.69-24.9-16-48-33.31-67.19C226.24,21.58,192.27,6.66,151.08,9.84c-13.54,1-25.33,6.25-34.83,16.21S100.65,48.13,96.47,61.32ZM177.4,212.91A16.53,16.53,0,0,1,189,220.46a3.8,3.8,0,0,0,4,2c9.06-.67,18.15-1,27.18-1.95,15.23-1.57,29.79-5.86,44-11.47,1.83-.72,2.58-1.68,2.28-3.63-.76-4.9-1.19-9.87-2.23-14.71s-2.65-9.47-4-14.1c-5.47,1.2-10.28,2.46-15.16,3.29-15.55,2.64-31.06,5.64-46.7,7.51a179.86,179.86,0,0,1-52.62-1.22c-5.23-.92-10.4-2.2-15.83-3.36a116,116,0,0,0,.61,33c.12.73,1.48,1.64,2.38,1.79,6.22,1.05,12.47,2,18.72,2.81a4.89,4.89,0,0,0,3-.44c6.09-3.74,12.47-6.63,19.6-7.18.24-3.62.58-6.9-2.83-9.46-1.82-1.37-.39-3.13,1.51-3.38a5.52,5.52,0,0,0,5.11-4c1-2.8,3-2.82,4.48-.11,1.12,2,2.31,3.21,4.77,3.25a3.93,3.93,0,0,1,2.94,1.76c.3.59-.59,2.2-1.37,2.84-1.77,1.46-1.91,3-1.33,5.06.27,1,.15,2.72-.44,3.11a3.73,3.73,0,0,1-3.39,0C181.18,210.19,179.44,211.21,177.4,212.91Zm-19.47,43.84.23,1c-1.48.81-2.91,1.74-4.45,2.41-4.38,1.91-8.77,3.84-13.25,5.5-2,.74-2.46,1.82-2.5,3.81s1.37,2.27,2.67,2.67a57.57,57.57,0,0,0,23.55,2.12c10.94-1.28,19.57-6.3,24.3-16.75,5.14-11.36,3.8-22.64-1.13-33.56-2.95-6.53-8.92-9.08-16-7.5-13.52,3-23.6,10.92-31,22.44a39.89,39.89,0,0,0-5.89,16.33c-.49,3.62,1.59,5.52,5,4.77,4.67-1,9.34-2,14-2.94A34.13,34.13,0,0,1,157.92,256.76ZM208.12,314c6,6.9,11.19,13.35,16.85,19.42,5.1,5.47,10.8,10.33,17.69,13.52a6.2,6.2,0,0,0,3.52.64,200,200,0,0,0,40.25-12.36,5.81,5.81,0,0,0,3.61-4.33c1.36-5.14,1.43-5.08-2.83-8.09-6.67-4.72-13.23-9.68-17-17.15-1.39-2.76-2.68-2.8-5.28-2.2-11.16,2.62-22.35,5.2-33.61,7.36C224,312.26,216.59,312.91,208.12,314ZM338.88,180.36c.75-8.86,2-17.5,2.09-26.16.16-13.84-6.94-33.82-26.15-41.37a49.65,49.65,0,0,0-26.66-3c2.24,10.63,4.42,21,6.64,31.35.13.62.41,1.52.86,1.7,3,1.16,3.47,3.87,4.3,6.4,1,3.09,2.11,6.15,3,9.26a3.09,3.09,0,0,0,3.32,2.48c4.87.14,9.73.51,14.6.56a4.28,4.28,0,0,1,4.49,3.19c1.2,3.43,2.52,6.82,3.57,10.29.73,2.42,1.71,4,4.64,4C335.15,179,336.7,179.77,338.88,180.36Zm-100.7,169c-.93-.74-1.13-1-1.37-1.09-13.43-7.77-23.93-18.31-30.69-32.38-.7-1.46-1.58-1.78-3.12-1.75-9.65.18-19.3.23-28.95.35a3.63,3.63,0,0,0-2.14.51,15.69,15.69,0,0,1-10.72,4c1,5.26,2.32,10.19,2.75,15.19.54,6.31,3.52,10.82,8.31,14.62a11.82,11.82,0,0,0,6.7,2.71,235,235,0,0,0,42.09-.1C226.55,350.87,232,350.08,238.18,349.33ZM89.33,262.2l.13-1a28.19,28.19,0,0,1,3.55-.46c4.21,0,8.43-.13,12.62.14,2.83.19,2.89-2.09,3.69-3.59a3.2,3.2,0,0,0-.39-2.89c-5.4-6.17-10.52-12.68-16.56-18.17-4.07-3.7-9.3-6.32-14.36-8.68a22,22,0,0,0-16.8-.46c-3.85,1.34-6.6,5.42-5.71,9.23,2.94,12.64,7.69,24.51,16.93,34,11.69,11.94,24.23,10.79,37.65,3.14a10.3,10.3,0,0,1-1.38-2.44c-.71-2.87-2.76-3.7-5.38-4.26-3.45-.73-6.84-1.79-10.22-2.83A32.38,32.38,0,0,1,89.33,262.2Zm151.86,42c-.24-.52-.27-.75-.39-.84a61,61,0,0,1-21.68-28,3.14,3.14,0,0,0-2.48-1.42q-21.22.86-42.42,2a54.62,54.62,0,0,0-6.5,1.15c1.3,2.84,2.32,5.29,3.53,7.65,4.31,8.39,9.27,16.3,16.75,22.34a9.37,9.37,0,0,0,7.09,2.4c9.61-.91,19.26-1.54,28.86-2.58C229.68,306.3,235.36,305.13,241.19,304.19Zm-20-30.63c3,4.2,5.4,8,8.14,11.5,4.77,6.14,10,11.92,16.93,15.67a9.27,9.27,0,0,0,5.92.85,242.3,242.3,0,0,0,43.54-14.22c.81-.35,1.57-.81,2.84-1.46-12-3.26-20.85-10.2-28.5-18.94a4.2,4.2,0,0,0-3.34-1.06c-9.78,1.73-19.51,3.72-29.28,5.44C232.27,272.25,227,272.77,221.17,273.56ZM208,357.93a79.23,79.23,0,0,0,5,6.29c9.53,9.75,21.39,16,33.55,21.67a4.46,4.46,0,0,0,3-.19,76.62,76.62,0,0,0,24.95-13.81c2.2-1.87,3.79-4.48,5.58-6.82,1-1.34.58-2.17-.86-3.17q-7.63-5.31-15-11.05a4.81,4.81,0,0,0-4.63-1.17c-6.5,1.56-13,3.21-19.61,4.22C229.65,355.46,219.19,356.54,208,357.93Zm-38.69-2.17c-.14.56-.32.86-.26,1.1,2.64,10.78,5.34,21.55,10.91,31.3a4.79,4.79,0,0,0,3.12,2,161.84,161.84,0,0,0,44.87.73c3.43-.46,6.81-1.21,10.36-1.85-3.64-2.11-7.07-3.81-10.2-6-9.09-6.26-16.29-14.44-22.71-23.31a5.37,5.37,0,0,0-4.74-2.39c-9.54-.4-19.08-1-28.61-1.56C171.13,355.71,170.2,355.76,169.32,355.76Zm11.47-83.25c33.78-.89,67.5-4,99.76-14l-6.42-11.72L269,248.23c-25.15,6.88-50.8,10.83-76.74,13.13a4.78,4.78,0,0,0-2.87,1.29C186.48,265.84,183.68,269.18,180.79,272.5ZM281.51,168c-1.42-7.35-2.66-14.1-4.12-20.81a3.42,3.42,0,0,0-2.4-2,6.35,6.35,0,0,1-5.42-4.06c-1.68-3.64-3.68-7.16-5.12-10.89-1.2-3.11-3-4.9-6.39-5.16-2-.16-4.46-1.38-5.77-.57-5.3,3.27-10.23,7.14-15.43,10.89a138.3,138.3,0,0,1,22.91,32.24,3.53,3.53,0,0,0,2.74,1.3c4.58-.06,9.16-.33,13.74-.55C277.85,168.29,279.44,168.16,281.51,168Zm15.21-17.74a5.6,5.6,0,0,0-.15,1.13c1.36,10.42,2.7,20.84,4.19,31.24a2.81,2.81,0,0,0,2,1.71,53,53,0,0,0,7.73.14,4,4,0,0,1,4.11,2.31c2.79,4.89,5.76,9.68,8.67,14.5,1.06,1.76,9.63,2.46,10.92.87a3.11,3.11,0,0,0,.5-1.32c1.17-5.77,2.31-11.55,3.47-17.37-.55,0-.73-.07-.91-.07-6.9-.06-8.75-1.35-10.95-7.61-1-2.7-2-5.37-2.89-8.09a3.32,3.32,0,0,0-3.59-2.54c-5.06-.07-10.11-.39-15.17-.52a4,4,0,0,1-4.22-3.08C299.32,157.87,298,154.22,296.72,150.28Zm23.14,93.85-.25-.51c-3.66,2.91-7.57,5.57-10.93,8.8-5.29,5.07-11.4,8.58-18.65,8.13-6.29-.39-11.37,2.76-17.17,3.56.14.53.13.76.25.87,8.49,8.56,19.12,13.54,30.14,17.79.51.19,1.88-.68,2.18-1.36,1-2.26,1.66-4.68,2.56-7Q313.88,259.26,319.86,244.12ZM128.92,279.38c5.95,11.19,11.85,21.09,20.33,29.16a30.54,30.54,0,0,0,7.16,5.15,17.07,17.07,0,0,0,6.85,1.55c3.39.13,7.35-2.64,8.1-5.39,1-3.52-.77-6.18-3.37-8.22a178.48,178.48,0,0,0-34.64-21.67C132.31,279.45,131,279.62,128.92,279.38Zm9.78-125.76-.89-.13c-.47,2.12-1.91,4.68-1.19,6.26,1.26,2.79,4.5,3.2,7.51,2.93a6.49,6.49,0,0,0,2-.4,66.83,66.83,0,0,0,7.54-3.4c6.52-3.8,10.7-3.44,16.27,1.74,4.89,4.54,10.8,5.59,16.61,2.42,2.8-1.53,5.13-3.91,7.72-5.84,5.65-4.22,10.46-4.2,16.36-.44a40.63,40.63,0,0,0,8.93,4.43c5.89,1.94,10.32.05,13.64-4.86,1.41-2.09,3-4.59,5.06-5.56s4.91-.21,7.26-.21c-.54-.74-1.3-1.83-2.11-2.88-2.1-2.7-4.33-3.58-7.15-1.73a25.73,25.73,0,0,0-6.78,6.68c-2.56,3.67-4.71,5-8.89,3.47a35.48,35.48,0,0,1-7.57-4c-5.94-4-12-4.82-18.33-1.2a49.36,49.36,0,0,0-7.52,5.67c-4.56,4-9.78,4-14.08-.15-6.31-6.05-13.71-6.89-21.23-2.47a38.87,38.87,0,0,1-5.58,2.9C142.09,158.52,140.42,157.71,138.7,153.62ZM118.48,279.09l-.85-1.28c-1.26.31-2.88.23-3.72,1-6.41,5.88-12.86,11.74-18.89,18a46.35,46.35,0,0,0-7.2,10.28c-2.48,4.62-.64,7.32,4.56,7.56,6.12.29,10.07-3.07,13-7.92a98.55,98.55,0,0,0,4.78-9.15C113,291.44,115.71,285.25,118.48,279.09Zm194.84-34.47c4.29-3.18,8.75-6.26,13-9.66a44.75,44.75,0,0,0,14.94-21.31,38.47,38.47,0,0,0,1.45-12.06c0-2.26-1.62-4.51-2.51-6.76l-1.11.08c-1.61,18.76-14.75,28.53-28.22,36.9Zm-10.83,45.56L272,301.9c6.51,6.71,12.3,14,21.05,18.43Zm-17-80c-4.94,1.88-9.18,3.59-13.5,5.07-1.78.61-2.21,1.62-2.37,3.33-.47,4.84-1,9.68-1.81,14.47-.73,4.18-1.92,8.28-3,13,3.15-.9,5.88-1.61,8.55-2.52.44-.15.82-1.17.82-1.79,0-6.69,2.89-11.51,9-14.38a2.77,2.77,0,0,0,1.51-1.75C285,220.67,285.23,215.72,285.51,210.17Zm-105.86-94c-3.18,1.35-6.26,2.23-8.88,3.85-9.66,6-16.91,14.5-23.55,23.56a4.3,4.3,0,0,0-1,2.35c0,1.24,0,3,.8,3.59A4.41,4.41,0,0,0,151,150a19.1,19.1,0,0,0,4.82-3.88c3-3.06,5.66-6.49,8.82-9.37,5.36-4.89,11.05-9.41,16.47-14.23a5.37,5.37,0,0,0,1.85-3.77C182.85,117.85,181,117.14,179.65,116.19ZM270.46,211c2-.74,4.18-1.49,6.3-2.32,2.74-1.07,6.64-1.48,7.87-3.5,1.34-2.19.07-5.9.15-8.94.11-4.17-1.6-7.59-4.11-10.71-.44-.55-1.19-1.28-1.74-1.24-4.13.3-8.25.77-12.09,1.16Zm55.62,5.85a17,17,0,0,0-2.61-.43c-3.27.19-5.18-1.43-6.67-4.27-2.12-4.05-4.73-7.85-7-11.85-1.71-3.05-4.05-1-6.1-.92s-1.4,1.89-1.36,3.12c.1,3,.33,5.92.38,8.88.07,3.5,0,7,0,10.41,7.14,1.32,7.14,1.32,9.63,5.65Zm-61,15.09-1.09-1.3c-1.47.61-3.25.9-4.35,1.92a25,25,0,0,0-3.94,5.24c-2.28,3.66-4.88,5.14-9.1,4.32a59.26,59.26,0,0,1-9-2.7c-5-1.85-9.77-1.62-14.15,1.57a48.92,48.92,0,0,0-4.5,4c-6.42,6-13.1,7.07-21,3.25-1-.47-1.94-1-3.1-1.55l-.76,5c4.41,2.12,8.66,3.32,13.29,3,6.47-.5,11.55-3.66,16-8.09,4.74-4.7,7.86-5.18,13.95-2.71a39.24,39.24,0,0,0,8.25,2.33c6.57,1.09,10.74-1.1,14.06-6.85a41.4,41.4,0,0,1,2.75-3.64C263.38,234.43,264.25,233.16,265.14,231.91Zm-109.8,46.33c.32,3.5.51,6.81,1,10.07.11.75,1.12,1.46,1.85,2,3.61,2.67,7.27,5.27,10.91,7.9a14.39,14.39,0,0,1,6.07,9.37c.12.68.81,1.74,1.3,1.77,2.38.19,4.77.08,7.89.08-10.4-8.77-17.17-18.91-19.66-31.62Zm131.87,62.35-21,7.56,16,10.35ZM275,140.89l1.06-.81-6.3-25.24-11,5.39a8.41,8.41,0,0,0,1.79.87c3.55.47,5.43,2.7,6.75,5.84,1.66,4,3.55,7.83,5.48,11.66A10.67,10.67,0,0,0,275,140.89Zm27,85.75,5.64,3C307.33,226.15,307.25,226.1,302,226.64Z" transform="translate(-35.04 -5.18)"/>
      <path d="M269,112.12a130.82,130.82,0,0,0-33.85,21.33c-3.29-3-6.29-6.09-9.68-8.69-5.38-4.12-10.68-8.52-16.6-11.71-13.7-7.39-27.35-6.71-40.41,2.06a95,95,0,0,0-29.91,31.47c-13.82-8-28.56-13.38-44.38-17.17.39-5.92.62-11.92,1.2-17.9,1.75-18,5.21-35.6,12.68-52.18A100.47,100.47,0,0,1,115.3,46c13-20.11,31.8-28.2,55.31-25.55,27.26,3.07,48.9,16.58,66.78,36.75,13.09,14.77,22.52,31.78,30,49.92C268,108.61,268.41,110.2,269,112.12Z" transform="translate(-35.04 -5.18)" fill="#fff"/>
      <path d="M136.18,148.86c-2.63,7.92-5.6,15.3-7.5,22.94-4,16.11-3.69,32.41-.62,48.67.49,2.58.68,4.41-2.12,6.15-7,4.39-13.76,9.26-20.58,14-1.66,1.15-2.73.8-4.1-.67-5.31-5.7-11.21-10.7-18.31-14.1-6.76-3.23-13.75-4.49-21.17-2.55a3.26,3.26,0,0,1-2.75-1c-2.18-2.77-4.13-5.72-6.38-8.92l10.6-6.58-5-4c-3.26,3.56-5.37,4.08-7.64,2.08s-2.08-4.12,1.14-7.89c-2.63-3.1-5.22-6.27-7.94-9.32a14.21,14.21,0,0,1-3.8-8.12c-1.33-11.74.17-22.83,6.43-33.12,5.26-8.65,13.6-12,22.89-13.57a68.2,68.2,0,0,1,34,2.29c9.92,3.39,19.58,7.51,29.32,11.41A19.31,19.31,0,0,1,136.18,148.86Z" transform="translate(-35.04 -5.18)" fill="#fff"/>
      <path d="M96.47,61.32c4.18-13.19,10.22-25.24,19.78-35.27s21.29-15.16,34.83-16.21C192.27,6.66,226.24,21.58,253.54,52c17.26,19.2,27.62,42.29,33.31,67.19,4.29,18.79,7.27,37.93,9.82,57,1.83,13.7,2,27.63,2.86,41.46a72,72,0,0,1-.39,8.1H288.43c0-3.18,0-6.12,0-9,.28-26.19-3.81-51.84-9.51-77.28-2.17-9.7-4.33-19.45-7.4-28.88-6-18.45-15.62-35.09-27.7-50.23C228.59,41.2,209.85,27,186,20.37c-15.74-4.38-31.53-5.26-47,1.08A78.72,78.72,0,0,0,97.3,59.87C97,60.37,96.75,60.84,96.47,61.32Z" transform="translate(-35.04 -5.18)" fill="#fff"/>
      <path d="M177.4,212.91c2-1.7,3.79-2.72,6.25-1a3.73,3.73,0,0,0,3.39,0c.6-.39.72-2.14.44-3.11-.58-2.05-.44-3.6,1.33-5.06.78-.64,1.67-2.25,1.37-2.84a3.93,3.93,0,0,0-2.94-1.76c-2.46,0-3.66-1.21-4.77-3.25-1.49-2.71-3.44-2.69-4.48.11a5.52,5.52,0,0,1-5.11,4c-1.9.25-3.33,2-1.51,3.38,3.41,2.57,3.08,5.84,2.83,9.46-7.13.54-13.51,3.44-19.6,7.18a4.89,4.89,0,0,1-3,.44c-6.25-.85-12.5-1.76-18.72-2.81-.9-.15-2.26-1.07-2.38-1.79a116,116,0,0,1-.61-33c5.43,1.16,10.6,2.44,15.83,3.36a179.86,179.86,0,0,0,52.62,1.22c15.64-1.86,31.15-4.87,46.7-7.51,4.88-.83,9.69-2.09,15.16-3.29,1.33,4.63,3,9.3,4,14.1s1.47,9.81,2.23,14.71c.3,1.94-.46,2.91-2.28,3.63-14.2,5.61-28.77,9.9-44,11.47-9,.93-18.12,1.28-27.18,1.95a3.8,3.8,0,0,1-4-2A16.53,16.53,0,0,0,177.4,212.91Zm76.31-10.62c3.16,0,4.19-1.56,2.83-4.25a5.11,5.11,0,0,1,.29-5.72c1.74-2.78.71-4.33-2.7-4.09a6,6,0,0,1-5.49-2.09c-1.94-2.16-3.94-1.6-4.5,1.23-.48,2.44-1.3,4-3.87,4.86s-2.9,3.06-.42,4.29,3.45,3.08,3.7,5.74c.19,2,1.79,3,3.48,1.73C249.27,202.28,251.26,200.69,253.71,202.29Zm-114.79,5.27c0,2.54,1,3.28,3.67,2.27,2-.77,3.63-1.13,5.41.59.68.66,2.49,1.08,3.08.65a4,4,0,0,0,1.14-3.19,4.51,4.51,0,0,1,2.22-4.79c.85-.55,2-2,1.73-2.61a4.3,4.3,0,0,0-2.69-2.15c-1.88-.5-3.26-1.06-3.83-3.21-.3-1.13-1.53-2-2.34-3-1,.89-2.38,1.59-3.06,2.7a3.73,3.73,0,0,1-3.61,2.11c-1.26,0-2.52.88-3.78,1.36.48,1.19.68,2.65,1.5,3.51,1.31,1.37,1.75,2.59.84,4.3A4.59,4.59,0,0,0,138.92,207.57Zm71.77-1.09-.94.61c.43,1.21.58,3.16,1.35,3.44a4.8,4.8,0,0,0,3.81-.94c1.57-1.19,2.79-1,4.44-.32,1,.42,2.76.53,3.45-.06s.76-2.39.36-3.36a4.24,4.24,0,0,1,1-5.13c.69-.73,1.42-2.43,1.06-2.93a4.13,4.13,0,0,0-3.12-1.4,4.43,4.43,0,0,1-4.62-2.5c-.53-.93-2.13-2.14-2.77-1.91a4.75,4.75,0,0,0-2.33,2.87c-.54,1.73-1.23,2.73-3.17,3.08-1.17.21-2.18,1.3-3.26,2,.75,1.13,1.45,2.29,2.25,3.39S209.86,205.42,210.7,206.47Z" transform="translate(-35.04 -5.18)" fill="#fff"/>
      <path d="M157.92,256.76a34.13,34.13,0,0,0-4.39.3c-4.69.91-9.37,1.91-14,2.94-3.43.75-5.5-1.15-5-4.77a39.89,39.89,0,0,1,5.89-16.33c7.36-11.52,17.43-19.44,31-22.44,7.1-1.58,13.07,1,16,7.5,4.93,10.92,6.27,22.2,1.13,33.56-4.73,10.45-13.35,15.48-24.3,16.75a57.57,57.57,0,0,1-23.55-2.12c-1.3-.39-2.72-.55-2.67-2.67s.51-3.07,2.5-3.81c4.48-1.66,8.86-3.59,13.25-5.5,1.54-.67,3-1.6,4.45-2.41Z" transform="translate(-35.04 -5.18)" fill="#fff"/>
      <path d="M208.12,314c8.47-1.13,15.91-1.79,23.2-3.19,11.26-2.16,22.44-4.74,33.61-7.36,2.59-.61,3.88-.57,5.28,2.2,3.77,7.48,10.33,12.43,17,17.15,4.26,3,4.19,3,2.83,8.09a5.81,5.81,0,0,1-3.61,4.33,200,200,0,0,1-40.25,12.36,6.2,6.2,0,0,1-3.52-.64c-6.89-3.19-12.59-8-17.69-13.52C219.31,327.39,214.07,320.94,208.12,314Z" transform="translate(-35.04 -5.18)" fill="#fff"/>
      <path d="M338.88,180.36c-2.19-.58-3.74-1.36-5.27-1.33-2.93.06-3.91-1.56-4.64-4-1-3.47-2.37-6.86-3.57-10.29a4.28,4.28,0,0,0-4.49-3.19c-4.87-.05-9.73-.42-14.6-.56a3.09,3.09,0,0,1-3.32-2.48c-.92-3.11-2-6.18-3-9.26-.83-2.53-1.35-5.23-4.3-6.4-.45-.18-.73-1.08-.86-1.7-2.21-10.36-4.39-20.73-6.64-31.35a49.65,49.65,0,0,1,26.66,3c19.22,7.55,26.32,27.53,26.15,41.37C340.87,162.85,339.63,171.5,338.88,180.36Z" transform="translate(-35.04 -5.18)" fill="#fff"/>
      <path d="M238.18,349.33c-6.17.75-11.63,1.54-17.13,2.05a235,235,0,0,1-42.09.1,11.82,11.82,0,0,1-6.7-2.71c-4.79-3.79-7.77-8.31-8.31-14.62-.43-5-1.76-9.92-2.75-15.19a15.69,15.69,0,0,0,10.72-4,3.63,3.63,0,0,1,2.14-.51c9.65-.13,19.3-.17,28.95-.35,1.54,0,2.42.29,3.12,1.75,6.76,14.07,17.26,24.62,30.69,32.38C237,348.38,237.25,348.59,238.18,349.33Z" transform="translate(-35.04 -5.18)" fill="#fff"/>
      <path d="M89.33,262.2a32.38,32.38,0,0,0,3.78,1.68c3.38,1,6.77,2.1,10.22,2.83,2.62.55,4.67,1.38,5.38,4.26a10.3,10.3,0,0,0,1.38,2.44c-13.42,7.65-26,8.8-37.65-3.14-9.24-9.44-14-21.31-16.93-34-.89-3.81,1.86-7.89,5.71-9.23a22,22,0,0,1,16.8.46c5.06,2.36,10.29,5,14.36,8.68,6,5.49,11.16,12,16.56,18.17a3.2,3.2,0,0,1,.39,2.89c-.79,1.5-.86,3.78-3.69,3.59-4.19-.28-8.41-.17-12.62-.14a28.19,28.19,0,0,0-3.55.46Z" transform="translate(-35.04 -5.18)" fill="#fff"/>
      <path d="M241.19,304.19c-5.82.94-11.51,2.11-17.26,2.73-9.6,1-19.24,1.67-28.86,2.58a9.37,9.37,0,0,1-7.09-2.4c-7.48-6-12.44-13.94-16.75-22.34-1.21-2.36-2.23-4.82-3.53-7.65a54.62,54.62,0,0,1,6.5-1.15q21.2-1.11,42.42-2a3.14,3.14,0,0,1,2.48,1.42,61,61,0,0,0,21.68,28C240.92,303.44,240.95,303.67,241.19,304.19Z" transform="translate(-35.04 -5.18)" fill="#fff"/>
      <path d="M221.17,273.56c5.88-.79,11.1-1.31,16.26-2.22,9.78-1.72,19.51-3.72,29.28-5.44A4.2,4.2,0,0,1,270,267c7.65,8.74,16.46,15.68,28.5,18.94-1.27.66-2,1.11-2.84,1.46a242.3,242.3,0,0,1-43.54,14.22,9.27,9.27,0,0,1-5.92-.85c-6.94-3.75-12.16-9.53-16.93-15.67C226.57,281.53,224.13,277.76,221.17,273.56Z" transform="translate(-35.04 -5.18)" fill="#fff"/>
      <path d="M208,357.93c11.18-1.39,21.63-2.47,32-4,6.6-1,13.11-2.66,19.61-4.22a4.81,4.81,0,0,1,4.63,1.17q7.31,5.74,15,11.05c1.44,1,1.89,1.83.86,3.17-1.79,2.33-3.37,5-5.58,6.82a76.62,76.62,0,0,1-24.95,13.81,4.46,4.46,0,0,1-3,.19c-12.15-5.71-24-11.92-33.55-21.67A79.23,79.23,0,0,1,208,357.93Z" transform="translate(-35.04 -5.18)" fill="#fff"/>
      <path d="M169.32,355.76c.88,0,1.81,0,2.72,0,9.54.53,19.07,1.16,28.61,1.56a5.37,5.37,0,0,1,4.74,2.39c6.43,8.87,13.62,17.05,22.71,23.31,3.12,2.15,6.56,3.85,10.2,6-3.55.64-6.93,1.39-10.36,1.85a161.84,161.84,0,0,1-44.87-.73,4.79,4.79,0,0,1-3.12-2c-5.57-9.74-8.27-20.52-10.91-31.3C169,356.62,169.18,356.32,169.32,355.76Z" transform="translate(-35.04 -5.18)" fill="#fff"/>
      <path d="M180.79,272.5c2.89-3.32,5.69-6.66,8.65-9.84a4.78,4.78,0,0,1,2.87-1.29c25.94-2.3,51.59-6.25,76.74-13.13l5.08-1.42,6.42,11.72C248.29,268.5,214.57,271.61,180.79,272.5Z" transform="translate(-35.04 -5.18)" fill="#fff"/>
      <path d="M281.51,168c-2.07.14-3.65.26-5.24.34-4.58.22-9.16.49-13.74.55a3.53,3.53,0,0,1-2.74-1.3,138.3,138.3,0,0,0-22.91-32.24c5.21-3.75,10.13-7.62,15.43-10.89,1.3-.8,3.81.42,5.77.57,3.34.27,5.19,2.05,6.39,5.16,1.44,3.73,3.44,7.25,5.12,10.89a6.35,6.35,0,0,0,5.42,4.06,3.42,3.42,0,0,1,2.4,2C278.84,153.92,280.08,160.67,281.51,168Z" transform="translate(-35.04 -5.18)" fill="#fff"/>
      <path d="M296.72,150.28c1.31,3.94,2.6,7.59,3.74,11.29a4,4,0,0,0,4.22,3.08c5.06.12,10.11.44,15.17.52a3.32,3.32,0,0,1,3.59,2.54c.89,2.72,1.94,5.39,2.89,8.09,2.2,6.26,4.05,7.56,10.95,7.61.18,0,.36,0,.91.07-1.16,5.82-2.31,11.6-3.47,17.37a3.11,3.11,0,0,1-.5,1.32c-1.3,1.59-9.86.9-10.92-.87-2.91-4.82-5.88-9.61-8.67-14.5a4,4,0,0,0-4.11-2.31,53,53,0,0,1-7.73-.14,2.81,2.81,0,0,1-2-1.71c-1.49-10.4-2.83-20.82-4.19-31.24A5.6,5.6,0,0,1,296.72,150.28Z" transform="translate(-35.04 -5.18)" fill="#fff"/>
      <path d="M319.86,244.12q-5.94,15.15-11.88,30.3c-.9,2.31-1.54,4.74-2.56,7-.3.68-1.68,1.55-2.18,1.36-11-4.25-21.65-9.24-30.14-17.79-.11-.11-.1-.34-.25-.87,5.81-.8,10.88-4,17.17-3.56,7.25.44,13.36-3.06,18.65-8.13,3.36-3.22,7.27-5.88,10.93-8.8Z" transform="translate(-35.04 -5.18)" fill="#fff"/>
      <path d="M128.92,279.38c2,.24,3.39.08,4.45.57A178.48,178.48,0,0,1,168,301.62c2.6,2,4.33,4.7,3.37,8.22-.75,2.76-4.72,5.53-8.1,5.39a17.07,17.07,0,0,1-6.85-1.55,30.54,30.54,0,0,1-7.16-5.15C140.78,300.47,134.87,290.57,128.92,279.38Z" transform="translate(-35.04 -5.18)" fill="#fff"/>
      <path d="M138.7,153.62c1.71,4.09,3.39,4.9,7.56,3.29a38.87,38.87,0,0,0,5.58-2.9c7.52-4.43,14.93-3.59,21.23,2.47,4.3,4.13,9.52,4.11,14.08.15a49.36,49.36,0,0,1,7.52-5.67c6.28-3.62,12.4-2.8,18.33,1.2a35.48,35.48,0,0,0,7.57,4c4.18,1.53,6.33.2,8.89-3.47a25.73,25.73,0,0,1,6.78-6.68c2.82-1.85,5-1,7.15,1.73.81,1,1.57,2.14,2.11,2.88-2.35,0-5.2-.75-7.26.21s-3.65,3.47-5.06,5.56c-3.32,4.91-7.75,6.8-13.64,4.86a40.63,40.63,0,0,1-8.93-4.43c-5.91-3.76-10.71-3.78-16.36.44-2.59,1.93-4.92,4.31-7.72,5.84-5.81,3.17-11.72,2.12-16.61-2.42-5.57-5.17-9.75-5.54-16.27-1.74a66.83,66.83,0,0,1-7.54,3.4,6.49,6.49,0,0,1-2,.4c-3,.27-6.25-.14-7.51-2.93-.72-1.59.72-4.14,1.19-6.26Z" transform="translate(-35.04 -5.18)" fill="#fff"/>
      <path d="M118.48,279.09c-2.77,6.16-5.49,12.35-8.34,18.48a98.55,98.55,0,0,1-4.78,9.15c-2.91,4.85-6.86,8.2-13,7.92-5.21-.24-7-2.94-4.56-7.56A46.35,46.35,0,0,1,95,296.8c6-6.25,12.48-12.11,18.89-18,.84-.77,2.46-.68,3.72-1Z" transform="translate(-35.04 -5.18)" fill="#fff"/>
      <path d="M313.33,244.63l-2.49-12.8c13.47-8.37,26.61-18.14,28.22-36.9l1.11-.08c.89,2.25,2.48,4.5,2.51,6.76a38.47,38.47,0,0,1-1.45,12.06A44.75,44.75,0,0,1,326.28,235C322.08,238.36,317.62,241.44,313.33,244.63Z" transform="translate(-35.04 -5.18)" fill="#fff"/>
      <path d="M302.49,290.18,293,320.33c-8.75-4.47-14.54-11.72-21.05-18.43Z" transform="translate(-35.04 -5.18)" fill="#fff"/>
      <path d="M285.51,210.17c-.27,5.54-.46,10.49-.82,15.43a2.77,2.77,0,0,1-1.51,1.75c-6.13,2.86-9,7.69-9,14.38,0,.62-.38,1.64-.82,1.79-2.66.91-5.39,1.61-8.55,2.52,1.12-4.72,2.32-8.82,3-13,.83-4.78,1.34-9.63,1.81-14.47.17-1.71.6-2.73,2.37-3.33C276.33,213.77,280.56,212,285.51,210.17Z" transform="translate(-35.04 -5.18)" fill="#fff"/>
      <path d="M179.65,116.19c1.32,1,3.2,1.67,3.28,2.54a5.37,5.37,0,0,1-1.85,3.77c-5.42,4.83-11.11,9.34-16.47,14.23-3.16,2.88-5.82,6.31-8.82,9.37A19.1,19.1,0,0,1,151,150a4.41,4.41,0,0,1-3.89-.45c-.76-.59-.79-2.35-.8-3.59a4.3,4.3,0,0,1,1-2.35c6.64-9.06,13.89-17.56,23.55-23.56C173.39,118.41,176.47,117.54,179.65,116.19Z" transform="translate(-35.04 -5.18)" fill="#fff"/>
      <path d="M270.46,211l-3.62-25.55c3.84-.39,8-.86,12.09-1.16.56,0,1.3.69,1.74,1.24,2.5,3.12,4.21,6.54,4.11,10.71-.08,3,1.19,6.75-.15,8.94-1.23,2-5.13,2.43-7.87,3.5C274.64,209.47,272.49,210.22,270.46,211Z" transform="translate(-35.04 -5.18)" fill="#fff"/>
      <path d="M326.09,216.82l-13.67,10.59c-2.49-4.33-2.49-4.33-9.63-5.65,0-3.42.05-6.92,0-10.41-.06-3-.29-5.92-.38-8.88,0-1.23-.73-3,1.36-3.12s4.39-2.14,6.1.92c2.24,4,4.84,7.8,7,11.85,1.49,2.84,3.39,4.46,6.67,4.27A17,17,0,0,1,326.09,216.82Z" transform="translate(-35.04 -5.18)" fill="#fff"/>
      <path d="M265.14,231.91c-.89,1.25-1.75,2.52-2.66,3.76a41.4,41.4,0,0,0-2.75,3.64c-3.32,5.75-7.49,7.94-14.06,6.85a39.24,39.24,0,0,1-8.25-2.33c-6.09-2.47-9.21-2-13.95,2.71-4.47,4.43-9.55,7.6-16,8.09-4.63.36-8.88-.84-13.29-3l.76-5c1.16.58,2.12,1.07,3.1,1.55C205.9,252,212.57,251,219,245a48.92,48.92,0,0,1,4.5-4c4.38-3.2,9.13-3.42,14.15-1.57a59.26,59.26,0,0,0,9,2.7c4.22.82,6.82-.66,9.1-4.32a25,25,0,0,1,3.94-5.24c1.1-1,2.87-1.31,4.35-1.92Z" transform="translate(-35.04 -5.18)" fill="#fff"/>
      <path d="M155.34,278.24l9.35-.42c2.49,12.71,9.25,22.85,19.66,31.62-3.12,0-5.51.1-7.89-.08-.49,0-1.17-1.1-1.3-1.77a14.39,14.39,0,0,0-6.07-9.37c-3.64-2.63-7.3-5.23-10.91-7.9-.73-.54-1.74-1.26-1.85-2C155.85,285,155.66,281.74,155.34,278.24Z" transform="translate(-35.04 -5.18)" fill="#fff"/>
      <path d="M287.21,340.59l-5,17.91-16-10.35Z" transform="translate(-35.04 -5.18)" fill="#fff"/>
      <path d="M275,140.89a10.67,10.67,0,0,1-2.2-2.28c-1.93-3.84-3.81-7.71-5.48-11.66-1.32-3.14-3.2-5.37-6.75-5.84a8.41,8.41,0,0,1-1.79-.87l11-5.39,6.3,25.24Z" transform="translate(-35.04 -5.18)" fill="#fff"/>
      <path d="M302,226.64c5.29-.54,5.38-.49,5.64,3Z" transform="translate(-35.04 -5.18)" fill="#fff"/>
      <path d="M253.71,202.29c-2.45-1.61-4.44,0-6.67,1.7-1.68,1.29-3.28.29-3.48-1.73-.25-2.66-1.1-4.45-3.7-5.74s-2.28-3.36.42-4.29,3.39-2.42,3.87-4.86c.55-2.83,2.55-3.38,4.5-1.23a6,6,0,0,0,5.49,2.09c3.41-.24,4.44,1.31,2.7,4.09a5.11,5.11,0,0,0-.29,5.72C257.91,200.73,256.87,202.27,253.71,202.29Z" transform="translate(-35.04 -5.18)"/>
      <path d="M138.92,207.57a4.59,4.59,0,0,1,.29-1.48c.9-1.7.47-2.92-.84-4.3-.82-.86-1-2.32-1.5-3.51,1.26-.48,2.51-1.35,3.78-1.36a3.73,3.73,0,0,0,3.61-2.11c.67-1.11,2-1.82,3.06-2.7.81,1,2,1.88,2.34,3,.58,2.15,2,2.71,3.83,3.21a4.3,4.3,0,0,1,2.69,2.15c.22.6-.88,2.07-1.73,2.61a4.51,4.51,0,0,0-2.22,4.79,4,4,0,0,1-1.14,3.19c-.59.43-2.41,0-3.08-.65-1.77-1.72-3.39-1.36-5.41-.59C140,210.84,138.89,210.11,138.92,207.57Z" transform="translate(-35.04 -5.18)"/>
      <path d="M210.7,206.47c-.83-1.05-1.7-2.08-2.49-3.16s-1.5-2.26-2.25-3.39c1.08-.69,2.09-1.78,3.26-2,1.94-.34,2.63-1.34,3.17-3.08a4.75,4.75,0,0,1,2.33-2.87c.64-.23,2.24,1,2.77,1.91a4.43,4.43,0,0,0,4.62,2.5,4.13,4.13,0,0,1,3.12,1.4c.36.5-.37,2.19-1.06,2.93a4.24,4.24,0,0,0-1,5.13c.4,1,.28,2.81-.36,3.36s-2.42.48-3.45.06c-1.65-.67-2.87-.87-4.44.32a4.8,4.8,0,0,1-3.81.94c-.77-.28-.92-2.23-1.35-3.44Z" transform="translate(-35.04 -5.18)"/>
    </g>
  </g>
</svg>
