<svg id="Layer_1" data-name="Layer 1" xmlns="http://www.w3.org/2000/svg" viewBox="0 0 362.7 372.62">
  <title>fireworks</title>
  <g id="Xl0Ait.tif">
    <g>
      <path d="M385,386.88H22.32V14.26H385ZM156.59,193.47l-.1-.42c-.71.06-1.42.1-2.12.18s-1.42.27-2.14.34c-18.52,1.85-35.72,7.43-51.4,17.66a99.83,99.83,0,0,0-32.19,34.49,94.72,94.72,0,0,0-10.29,27.8,103.18,103.18,0,0,0-1.71,16.57c-.13,2.79-1,3.65-3.65,3.35a56.79,56.79,0,0,0-6,0c1.8,4.7,3.45,9,5.14,13.37,1.11,2.84,3.21,5.65,3.2,8.47s-2,5.89-3.14,8.86c-1.57,4.27-3.08,8.55-4.69,13.07,1.1,0,1.92,0,2.73,0,5.87-.4,11.73-.88,17.6-1.2a5.73,5.73,0,0,1,3.45.74c2.64,1.92,5.06,4.16,7.61,6.22,3.06,2.48,6.17,4.9,9.45,7.51,1.56-6.61,2.87-12.83,4.58-18.94A12,12,0,0,1,96.35,326c2.45-2.14,5.44-3.64,8.15-5.49s5.58-3.93,8.43-5.94a7,7,0,0,0-.92-1q-7.68-4.85-15.38-9.67a9,9,0,0,1-4.3-6C91,291.69,89.25,285.6,87.55,279c-3.28,2.81-6.29,5.36-9.27,7.93-2.56,2.21-4.76,5.53-7.71,6.42-3.68,1.12-8,.27-12.44.27,2-3.59,3.57-6.67,5.32-9.66q8.66-14.82,17.42-29.59a127.89,127.89,0,0,1,20.52-25.53c10.28-10.12,22.09-18,34.66-24.88C142.8,200.27,149.74,197,156.59,193.47Zm226.9,31.1c1.18-8-.6-14.9-2.17-21.77-1.74-7.58-5.47-14.22-9.58-20.74a60.8,60.8,0,0,0-13.9-15.85c-6.22-4.84-12.86-9.14-19.42-13.53-1.73-1.16-2.21-1.86-.42-3.4,2.56-2.2,5-4.59,7.36-7,1.91-1.9,3.72-3.91,5.8-6.12-5.71-2.43-11-4.54-16.08-6.92a7,7,0,0,1-3-3.06c-2.56-5.08-4.9-10.27-7.56-15.92-2.09,2.52-4.07,4.68-5.78,7-3.71,5.13-7.38,9.89-14.81,9.59-3.79-.16-7.63,1-11.6,1.52l8.76,14.85c-5,0-9.2-.14-13.4,0-20.29.76-38.92,6.34-54.7,19.58-3.66,3.07-6.74,6.85-10.08,10.31,24.54-12.47,49.73-17.39,76.71-11.5l-.78,3.9c1.4-.29,2.35-.57,3.32-.66,3.12-.29,6.47-1.35,9.33-.59a179.43,179.43,0,0,1,21.89,7.37c20.5,8.48,35,23.39,45.05,42.95C380,217.72,381.57,220.79,383.49,224.57ZM266.06,317c.41-3.27.6-5.92,1.1-8.52.47-2.43,1.27-4.8,1.93-7.19l1.38.11,6.41,81.19a44.5,44.5,0,0,0,1.83-6.51c1.37-9.46,3.16-18.91,3.62-28.42.65-13.46,1-26.95-.86-40.43-1.42-10.22-1.81-20.54-3.67-30.77-2.22-12.24-4.39-24.43-8.87-36a92.51,92.51,0,0,0-7.35-15.16,68.52,68.52,0,0,0-20.27-21.15c-3.86-2.59-8-4.72-12-7.06l-.52.68c11.7,10.8,20.07,23.93,26.31,38.35,7.57,17.49,12.24,41,11,45.22l-4.45-11.74a58.71,58.71,0,0,0-5.95,5.34c-3.54,4.14-7.39,7-13.33,4.94.13-.56.24-1.15.41-1.73,1.15-4.13,2.42-8.22,3.44-12.38a38.78,38.78,0,0,0,1.38-8.45,42.94,42.94,0,0,0-1.09-8.52c-.7-3.74-1.16-7.61-2.52-11.11a66,66,0,0,0-13.17-20.91c-3.43-3.73-7.25-7.09-10.89-10.62,19.68,28.94,19.22,60,10.92,92.83l7.22-10.17c4.64,4.45,4,9,1.63,14-1,2.21-1.11,4.88-1.74,7.89,4.05-.66,7.49-1.12,10.88-1.81a8.38,8.38,0,0,1,7.49,1.55C259.25,312.72,262.49,314.63,266.06,317ZM199.41,129.76l.81-.21c-.17-2.36-.43-4.72-.5-7.08-.22-7.94-.82-15.9-.45-23.82a234.86,234.86,0,0,1,2.8-27.52c1.46-8.77,3.19-17.66,6.27-26,3.69-9.91,8.95-19.23,13.76-29.3-6.11,6-12.39,11.5-17.77,17.74A75.6,75.6,0,0,0,190,59.52c-.23.71-1.23,1.78-1.67,1.7-3.73-.73-8.28.51-10.46-4.24a15.31,15.31,0,0,0-2.53-3l-6.06-7.18c-1.63,3.55-3,6.5-4.36,9.46-1.74,3.81-3.49,7.41-8.15,8.69-3.71,1-7.21,2.82-11.16,4.42,2.91,2.78,5.75,5.12,8.11,7.86,1.83,2.12,5,3.3,4.72,7.12a74,74,0,0,0,.48,10.19c.1,1.5.34,3,.53,4.63l3-.61,13.75,37.73c4.6-15.14,2.1-29.1-7.26-42,3-1.37,5.1-4,8.69-2.6a72.38,72.38,0,0,0,8,2.21c1.93.49,2.66,1.57,3,3.63a152,152,0,0,0,3.62,15.83c.89,3.08,2.61,5.91,3.91,8.88C197.32,124.7,198.35,127.24,199.41,129.76ZM67.16,76.62l.53-.71a24.47,24.47,0,0,1,2.86.85,168.17,168.17,0,0,1,33,18.45c11.45,8.39,21.13,18.47,30,29.4,5.22,6.43,10.13,13.12,15.2,19.67,1.39,1.79,2.87,3.5,4.32,5.25l.83-.34c-.5-2.44-1-4.9-1.52-7.33-1.23-5.27-2.35-10.56-3.82-15.77-2.21-7.86-6.2-14.83-10.9-21.49a81,81,0,0,0-26.18-23.39A115.83,115.83,0,0,0,68.73,67.06c-1.61-.22-3.07-1.47-4.73-2.32-7.6,3.07-16.25-1.13-24.54,1.62l14.21,4.3-.28,1.19L38.75,69.79c1.25,3.86,2.36,7.13,3.36,10.43.73,2.39.9,4.51-.75,7-2,2.93-3,6.48-4.58,9.91,4,.22,7.59.58,11.19.56a6.93,6.93,0,0,1,5.57,2.67l7.26,8.29c1.54-4.45,2.73-7.6,3.71-10.81a8.67,8.67,0,0,1,4.84-5.59c3.07-1.49,6-3.22,9.1-4.89C75,83,69.29,81.59,67.16,76.62Zm148.75,55.1.45.68a7.8,7.8,0,0,0,1.84-.56c4.4-2.64,8.75-5.37,13.17-8,10.51-6.23,20.79-12.91,31.64-18.47,13-6.64,26.79-9,41.33-5.41,25.21,6.24,45.65,19.47,60.77,40.71,1.25,1.75,2.57,3.46,3.85,5.18.46-.73.48-1.24.25-1.61-1.48-2.43-3.12-4.77-4.51-7.25a170.12,170.12,0,0,0-17.11-25c-7.31-8.9-15.52-16.7-25.61-22.24-14.87-8.15-30.43-12.28-47.44-7.21-12.9,3.84-24.18,10.18-33.34,20.14-4,4.36-8.1,8.63-12,13.1C224.68,121,220.34,126.4,215.91,131.73Zm-24.7,158.08a26.83,26.83,0,0,0-3,0q-4.89.67-9.77,1.45c-3.21.51-3.86,0-3.75-3.37a25.53,25.53,0,0,1,.29-2.77c.92-6.38,1.79-12.77,2.79-19.13,1.19-7.58,2.35-15.18,3.78-22.72,1.39-7.34,3.14-14.62,4.69-21.93.38-1.81.59-3.66.88-5.49l-1.14-.64c-3.23,3.63-6.7,7.06-9.63,10.92-5.78,7.62-8.56,16.73-9.68,25.89-1.21,9.85-.46,19.94-.57,29.92,0,.56-.08,1.12-.14,1.78l-3-1c-.73,4.67-1.36,9.12-2.15,13.54a4.46,4.46,0,0,1-1.42,2.44c-3.68,3.07-7.45,6-11.46,9.24,3,1.62,5.69,3.2,8.49,4.62,3.27,1.66,5.93,3.51,6.7,7.63.66,3.52,2.36,6.84,3.6,10.27,2-1.91,4-3.62,5.8-5.57,3.05-3.38,6.22-6,11.31-5.37,3,.38,6.13-.19,9.64-.35-2-4.34-3.91-8.24-5.51-12.29a8.51,8.51,0,0,1-.34-4.83C188.56,298.06,189.91,294.12,191.22,289.81Zm-142-103.38a11.25,11.25,0,0,0-1.51,1.89c-1.71,3.49-3.31,7-5,10.52-1.27,2.59-2.76,4.75-5.91,5.69-4.65,1.38-9.12,3.37-14.3,5.33,3.23,3.12,6,5.77,8.77,8.48,3,3,5.57,5.91,5,10.82-.46,4.22.27,8.57.5,13.42,4.69-2.41,9-4.47,13.16-6.84a7.9,7.9,0,0,1,7-.74c4.55,1.53,9.2,2.78,14.53,4.36-.84-4.9-1.71-9.18-2.26-13.51-.29-2.24-.64-4.8.14-6.77,1.06-2.68,3.21-4.92,4.83-7.39s3-4.74,4.68-7.42c-5.63-1-10.72-1.74-15.77-2.72a6.07,6.07,0,0,1-3.34-1.75C56.24,195.57,52.92,191.17,49.22,186.43Zm224.46,43.65c2.46-1.64,4.66-2.92,6.65-4.47,3.91-3,7.8-5.44,13.16-3.74,3.06,1,6.36,1.19,9.84,1.8-1.35-5-2.64-9.62-3.78-14.24a5.19,5.19,0,0,1,.16-3.14c2-4.56,4.26-9,6.63-14-2.84,0-5.11,0-7.37,0-5.14-.13-10.42.13-13.48-5.37a11.5,11.5,0,0,0-2.34-2.4c-1.49-1.41-3-2.8-4.64-4.32l-5.24,13.9c-9.54-11.55-14.26-12.68-20.7-13.82-8.1-1.44-19.85,2-23.24,6.54,6.67,1.05,13.52,2,20.29,3.26a54.81,54.81,0,0,1,19.19,7.61l-10.39,5.58a68.32,68.32,0,0,0,6.47,5.31c4.65,2.94,7.29,6.87,7.53,12.47C272.55,223.88,273.2,226.71,273.68,230.08ZM147.4,168.34c-38.52-21.56-79.92-12.56-112.91,11.79C71.81,167.89,108.93,161.67,147.4,168.34Zm124.39-35.73.31-1c-3.83-2.05-7.5-4.58-11.54-6.06-7-2.58-13.41.48-19.3,3.92-8,4.68-14.79,10.9-19,19.32-1.8,3.55-2.82,7.49-4.19,11.26l.72.39c.72-.67,1.47-1.31,2.16-2,1.73-1.74,3.3-3.66,5.17-5.22a100.49,100.49,0,0,1,23.08-14.5C256.33,135.46,263.11,130.5,271.79,132.61ZM133.38,151l1-.8c-2.8-5.62-5.26-11.44-8.54-16.77a26.48,26.48,0,0,0-7.57-7.36c-7-4.86-15.16-4.6-23.23-4.12-2.5.15-5,.46-7.48.69l-.25,1C103.28,131.66,120.25,138.12,133.38,151Zm114-119.38c-3.89,6-8.9,9-16.39,7.93,4.7,5.93,4.92,12,1.88,19,7.09-3.23,12.77-1.84,18.16,3-.74-7.47,2.5-12.52,8.5-16.38C252.34,43.15,248.44,38.89,247.36,31.59ZM135,247.69l1,.21c2.57-5,5.36-9.81,7.67-14.88,5.26-11.53,14.93-18,25.81-23.26.53-.25,1-.54,2.34-1.23A43.88,43.88,0,0,0,151,211.9c-5.29,2.19-9.77,5.26-11.49,11.1a97,97,0,0,0-2.72,10.56C136,238.23,135.56,243,135,247.69Zm15.25-66.12a42.83,42.83,0,0,0-22.35-6.76,21.54,21.54,0,0,0-15.81,5.72c-4.32,4-8.57,8.05-12.85,12.08A115.29,115.29,0,0,1,150.23,181.57Zm54.63,76c7.2-10.37,8.84-21,5.14-32.25-1.26-3.81-2.65-7.84-5.74-11C203.61,228.67,202.41,242.82,204.86,257.58Zm25.39-172.3c-5,1.06-9,2.69-11.93,5.94-6.68,7.51-5.25,16.65-4.67,25.58C220.26,107,226.89,97.36,230.25,85.28Z" transform="translate(-22.32 -14.26)" fill="#fff"/>
      <path d="M156.59,193.47c-6.85,3.48-13.8,6.8-20.54,10.48-12.57,6.85-24.38,14.76-34.66,24.88a127.89,127.89,0,0,0-20.52,25.53q-8.79,14.74-17.42,29.59c-1.75,3-3.35,6.07-5.32,9.66,4.47,0,8.76.85,12.44-.27,2.95-.9,5.15-4.21,7.71-6.42,3-2.58,6-5.13,9.27-7.93,1.7,6.63,3.43,12.71,4.78,18.88a9,9,0,0,0,4.3,6q7.69,4.83,15.38,9.67a7,7,0,0,1,.92,1c-2.84,2-5.6,4-8.43,5.94s-5.7,3.35-8.15,5.49a12,12,0,0,0-3.43,5.51c-1.72,6.11-3,12.33-4.58,18.94-3.29-2.61-6.39-5-9.45-7.51-2.55-2.06-5-4.3-7.61-6.22a5.73,5.73,0,0,0-3.45-.74c-5.87.32-11.74.8-17.6,1.2-.81.06-1.63,0-2.73,0,1.62-4.51,3.13-8.8,4.69-13.07,1.09-3,3.13-5.9,3.14-8.86s-2.09-5.63-3.2-8.47c-1.69-4.33-3.34-8.67-5.14-13.37a56.79,56.79,0,0,1,6,0c2.66.3,3.53-.56,3.65-3.35a103.18,103.18,0,0,1,1.71-16.57,94.72,94.72,0,0,1,10.29-27.8,99.83,99.83,0,0,1,32.19-34.49c15.68-10.24,32.88-15.82,51.4-17.66.72-.07,1.42-.25,2.14-.34s1.41-.12,2.12-.18Z" transform="translate(-22.32 -14.26)"/>
      <path d="M383.49,224.57c-1.93-3.78-3.49-6.85-5.05-9.91-10-19.56-24.55-34.47-45.05-42.95a179.43,179.43,0,0,0-21.89-7.37c-2.85-.77-6.21.3-9.33.59-1,.09-1.92.38-3.32.66l.78-3.9c-27-5.9-52.17-1-76.71,11.5,3.34-3.45,6.42-7.23,10.08-10.31,15.78-13.24,34.41-18.81,54.7-19.58,4.2-.16,8.42,0,13.4,0l-8.76-14.85c4-.56,7.82-1.68,11.6-1.52,7.43.31,11.11-4.45,14.81-9.59,1.7-2.36,3.69-4.51,5.78-7,2.66,5.65,5,10.84,7.56,15.92a7,7,0,0,0,3,3.06c5.13,2.38,10.37,4.49,16.08,6.92-2.09,2.21-3.89,4.22-5.8,6.12-2.4,2.38-4.8,4.77-7.36,7-1.79,1.54-1.31,2.24.42,3.4,6.55,4.39,13.2,8.69,19.42,13.53a60.8,60.8,0,0,1,13.9,15.85c4.11,6.52,7.85,13.16,9.58,20.74C382.9,209.66,384.68,216.53,383.49,224.57Z" transform="translate(-22.32 -14.26)"/>
      <path d="M266.06,317c-3.57-2.4-6.81-4.31-9.73-6.63a8.38,8.38,0,0,0-7.49-1.55c-3.39.69-6.83,1.15-10.88,1.81.63-3,.69-5.69,1.74-7.89,2.36-5,3-9.52-1.63-14L230.85,299c8.3-32.78,8.76-63.89-10.92-92.83,3.64,3.53,7.46,6.9,10.89,10.62A66,66,0,0,1,244,237.68c1.36,3.51,1.82,7.38,2.52,11.11a42.94,42.94,0,0,1,1.09,8.52,38.78,38.78,0,0,1-1.38,8.45c-1,4.16-2.29,8.26-3.44,12.38-.16.57-.27,1.16-.41,1.73,5.94,2,9.79-.81,13.33-4.94a58.71,58.71,0,0,1,5.95-5.34l4.45,11.74c1.22-4.22-3.45-27.74-11-45.22-6.25-14.42-14.61-27.55-26.31-38.35l.52-.68c4,2.34,8.19,4.47,12,7.06a68.52,68.52,0,0,1,20.27,21.15,92.51,92.51,0,0,1,7.35,15.16c4.48,11.62,6.65,23.81,8.87,36,1.85,10.24,2.24,20.55,3.67,30.77,1.88,13.48,1.51,27,.86,40.43-.46,9.51-2.25,19-3.62,28.42a44.5,44.5,0,0,1-1.83,6.51l-6.41-81.19-1.38-.11c-.66,2.39-1.46,4.76-1.93,7.19C266.66,311.11,266.47,313.76,266.06,317Z" transform="translate(-22.32 -14.26)"/>
      <path d="M199.41,129.76c-1.06-2.52-2.09-5.05-3.19-7.56-1.3-3-3-5.8-3.91-8.88a152,152,0,0,1-3.62-15.83c-.36-2.06-1.1-3.14-3-3.63a72.38,72.38,0,0,1-8-2.21c-3.59-1.37-5.71,1.23-8.69,2.6,9.35,12.88,11.86,26.84,7.26,42L162.47,98.5l-3,.61c-.19-1.63-.43-3.12-.53-4.63a74,74,0,0,1-.48-10.19c.28-3.82-2.9-5-4.72-7.12-2.37-2.75-5.2-5.09-8.11-7.86,4-1.6,7.45-3.39,11.16-4.42,4.67-1.29,6.41-4.89,8.15-8.69,1.35-3,2.72-5.91,4.36-9.46l6.06,7.18a15.31,15.31,0,0,1,2.53,3c2.18,4.75,6.73,3.51,10.46,4.24.45.09,1.44-1,1.67-1.7a75.6,75.6,0,0,1,14.34-25.89c5.38-6.24,11.66-11.71,17.77-17.74C217.29,26,212,35.28,208.34,45.18c-3.09,8.29-4.81,17.18-6.27,26a234.86,234.86,0,0,0-2.8,27.52c-.37,7.91.22,15.88.45,23.82.07,2.36.33,4.72.5,7.08Z" transform="translate(-22.32 -14.26)"/>
      <path d="M67.16,76.62c2.13,5,7.86,6.42,11.29,10.7-3.07,1.66-6,3.39-9.1,4.89a8.67,8.67,0,0,0-4.84,5.59c-1,3.21-2.17,6.36-3.71,10.81l-7.26-8.29A6.93,6.93,0,0,0,48,97.65c-3.6,0-7.21-.34-11.19-.56,1.53-3.44,2.6-7,4.58-9.91,1.65-2.44,1.48-4.56.75-7-1-3.3-2.11-6.57-3.36-10.43l14.63,2.06.28-1.19-14.21-4.3c8.29-2.75,16.94,1.45,24.54-1.62,1.66.84,3.13,2.1,4.73,2.32a115.83,115.83,0,0,1,42.76,14.16,81,81,0,0,1,26.18,23.39c4.69,6.66,8.69,13.63,10.9,21.49,1.46,5.2,2.59,10.5,3.82,15.77.57,2.43,1,4.89,1.52,7.33l-.83.34c-1.44-1.75-2.93-3.46-4.32-5.25-5.08-6.55-10-13.24-15.2-19.67-8.88-10.93-18.56-21-30-29.4a168.17,168.17,0,0,0-33-18.45,24.47,24.47,0,0,0-2.86-.85Z" transform="translate(-22.32 -14.26)"/>
      <path d="M215.91,131.73c4.43-5.33,8.77-10.73,13.31-16,3.88-4.47,8-8.75,12-13.1,9.15-10,20.44-16.3,33.34-20.14,17-5.06,32.57-.94,47.44,7.21,10.09,5.53,18.3,13.34,25.61,22.24a170.12,170.12,0,0,1,17.11,25c1.39,2.48,3,4.82,4.51,7.25.22.36.21.87-.25,1.61-1.29-1.73-2.61-3.43-3.85-5.18C350,119.45,329.55,106.21,304.34,100,289.8,96.38,276,98.75,263,105.39c-10.85,5.56-21.13,12.25-31.64,18.47-4.42,2.62-8.76,5.35-13.17,8a7.8,7.8,0,0,1-1.84.56Z" transform="translate(-22.32 -14.26)"/>
      <path d="M191.22,289.81c-1.31,4.31-2.66,8.25-3.63,12.28a8.51,8.51,0,0,0,.34,4.83c1.59,4,3.53,8,5.51,12.29-3.52.16-6.64.73-9.64.35-5.1-.65-8.26,2-11.31,5.37-1.76,2-3.79,3.66-5.8,5.57-1.25-3.43-2.95-6.76-3.6-10.27-.77-4.12-3.42-6-6.7-7.63-2.8-1.42-5.53-3-8.49-4.62,4-3.21,7.78-6.17,11.46-9.24a4.46,4.46,0,0,0,1.42-2.44c.79-4.42,1.43-8.87,2.15-13.54l3,1c.05-.66.13-1.22.14-1.78.11-10-.64-20.08.57-29.92,1.13-9.16,3.9-18.27,9.68-25.89,2.93-3.85,6.4-7.29,9.63-10.92l1.14.64c-.29,1.83-.5,3.68-.88,5.49-1.55,7.31-3.29,14.59-4.69,21.93-1.43,7.54-2.59,15.13-3.78,22.72-1,6.37-1.87,12.75-2.79,19.13a25.53,25.53,0,0,0-.29,2.77c-.11,3.34.54,3.88,3.75,3.37s6.51-1,9.77-1.45A26.83,26.83,0,0,1,191.22,289.81Z" transform="translate(-22.32 -14.26)"/>
      <path d="M49.22,186.43c3.7,4.74,7,9.14,10.53,13.37a6.07,6.07,0,0,0,3.34,1.75c5.05,1,10.14,1.77,15.77,2.72-1.69,2.68-3.14,5.08-4.68,7.42s-3.77,4.71-4.83,7.39c-.78,2-.43,4.53-.14,6.77.56,4.32,1.42,8.61,2.26,13.51-5.33-1.58-10-2.83-14.53-4.36a7.9,7.9,0,0,0-7,.74c-4.14,2.37-8.47,4.42-13.16,6.84-.23-4.85-1-9.2-.5-13.42.53-4.91-2-7.85-5-10.82-2.74-2.71-5.54-5.36-8.77-8.48,5.18-2,9.65-4,14.3-5.33,3.16-.94,4.65-3.1,5.91-5.69,1.71-3.49,3.31-7,5-10.52A11.25,11.25,0,0,1,49.22,186.43Z" transform="translate(-22.32 -14.26)"/>
      <path d="M273.68,230.08c-.49-3.38-1.13-6.2-1.25-9-.24-5.6-2.88-9.52-7.53-12.47a68.32,68.32,0,0,1-6.47-5.31l10.39-5.58a54.81,54.81,0,0,0-19.19-7.61c-6.78-1.3-13.63-2.2-20.29-3.26,3.38-4.55,15.14-8,23.24-6.54,6.45,1.14,11.16,2.27,20.7,13.82l5.24-13.9c1.64,1.52,3.15,2.91,4.64,4.32a11.5,11.5,0,0,1,2.34,2.4c3.05,5.5,8.34,5.24,13.48,5.37,2.26.06,4.53,0,7.37,0-2.37,5-4.58,9.44-6.63,14a5.19,5.19,0,0,0-.16,3.14c1.14,4.63,2.43,9.22,3.78,14.24-3.49-.61-6.78-.83-9.84-1.8-5.36-1.7-9.25.71-13.16,3.74C278.34,227.16,276.14,228.44,273.68,230.08Z" transform="translate(-22.32 -14.26)"/>
      <path d="M147.4,168.34c-38.46-6.67-75.59-.45-112.91,11.79C67.48,155.78,108.88,146.78,147.4,168.34Z" transform="translate(-22.32 -14.26)"/>
      <path d="M271.79,132.61c-8.68-2.11-15.46,2.85-22.64,6.1a100.49,100.49,0,0,0-23.08,14.5c-1.87,1.56-3.44,3.49-5.17,5.22-.69.7-1.44,1.34-2.16,2l-.72-.39c1.37-3.76,2.39-7.71,4.19-11.26,4.26-8.41,11-14.63,19-19.32,5.9-3.44,12.26-6.49,19.3-3.92,4,1.48,7.71,4,11.54,6.06Z" transform="translate(-22.32 -14.26)"/>
      <path d="M133.38,151c-13.14-12.85-30.11-19.31-46.12-27.37l.25-1c2.49-.24,5-.54,7.48-.69,8.07-.48,16.2-.74,23.23,4.12a26.48,26.48,0,0,1,7.57,7.36c3.28,5.33,5.74,11.15,8.54,16.77Z" transform="translate(-22.32 -14.26)"/>
      <path d="M247.36,31.59c1.08,7.3,5,11.56,12.15,13.53-6,3.87-9.24,8.91-8.5,16.38-5.39-4.79-11.07-6.18-18.16-3,3-7.07,2.83-13.1-1.88-19C238.46,40.61,243.47,37.59,247.36,31.59Z" transform="translate(-22.32 -14.26)"/>
      <path d="M135,247.69c.58-4.72,1-9.46,1.8-14.14A97,97,0,0,1,139.51,223c1.72-5.84,6.2-8.9,11.49-11.1a43.88,43.88,0,0,1,20.77-3.37c-1.3.69-1.81,1-2.34,1.23C158.56,215,148.88,221.49,143.62,233c-2.31,5.07-5.1,9.92-7.67,14.88Z" transform="translate(-22.32 -14.26)"/>
      <path d="M150.23,181.57a115.29,115.29,0,0,0-51,11c4.28-4,8.52-8.1,12.85-12.08a21.54,21.54,0,0,1,15.81-5.72A42.83,42.83,0,0,1,150.23,181.57Z" transform="translate(-22.32 -14.26)"/>
      <path d="M204.86,257.58c-2.45-14.76-1.25-28.91-.6-43.21,3.09,3.12,4.48,7.16,5.74,11C213.7,236.55,212.06,247.21,204.86,257.58Z" transform="translate(-22.32 -14.26)"/>
      <path d="M230.25,85.28c-3.36,12.07-10,21.75-16.6,31.53-.58-8.94-2-18.08,4.67-25.58C221.21,88,225.28,86.34,230.25,85.28Z" transform="translate(-22.32 -14.26)"/>
    </g>
  </g>
</svg>
