<svg id="Layer_1" data-name="Layer 1" xmlns="http://www.w3.org/2000/svg" viewBox="0 0 381.75 307.73">
  <title>heart</title>
  <g id="ZGXaIR.tif">
    <path d="M347.21,46.17c3.08,9.72,6.09,19.47,7.51,29.61.11.76.34.88.91.42a22.32,22.32,0,0,0,1.74-1.43,2.34,2.34,0,0,1,2.57-.55c2.92.95,6.18,5.11,6.38,8.18a2.48,2.48,0,0,1-1,2.34c-.55.4-1.06.85-1.61,1.25s-.39.66.15.87c9.18,3.49,17.56,8.51,25.94,13.53,1.77,1.06,1.76,1.05.29,2.43-2.24,2.1-4.51,4.18-6.7,6.35a1.82,1.82,0,0,1-2.27.43c-7-2.82-14.14-5.51-21.4-7.7-2-.6-4-1.12-6-1.67l-.11.25c.35.15.7.31,1.06.44a182.62,182.62,0,0,1,24.25,10.67c1.19.63,1.21.63.22,1.56-2.22,2.08-4.46,4.13-6.66,6.23a1.54,1.54,0,0,1-2,.31,141.12,141.12,0,0,0-22.36-8.76,38.86,38.86,0,0,0-5.45-1.21c1.46.56,2.91,1.17,4.39,1.69a180.49,180.49,0,0,1,21.82,9.78c1,.48,1,.61.16,1.32-1.81,1.62-3.64,3.22-5.41,4.9a1.55,1.55,0,0,1-1.9.36c-7-2.75-13.94-5.42-21.1-7.61a39.31,39.31,0,0,0-6.82-1.6c.59.23,1.16.48,1.76.69a187.11,187.11,0,0,1,23.79,10.38c.75.39,1,.67.24,1.33-3,2.57-6,5.16-9.16,7.62a2.15,2.15,0,0,1-2.78.13c-7.18-4-14.41-8-22.35-10.35-3.81-1.15-7.67-2-11.55-2.89A2,2,0,0,0,312,126q-8.52,6.61-17.06,13.21c-1.5,1.16-3,2.34-4.52,3.46-.75.55-.88,1-.27,1.78a72.49,72.49,0,0,1,11.45,22.21,72.69,72.69,0,0,1,3.32,13.74,89.9,89.9,0,0,1,.23,13.08,73.52,73.52,0,0,1-3.1,18.34,79.32,79.32,0,0,1-9.08,19.6c-2.94,4.66-5.56,9.51-8.66,14.07a230.31,230.31,0,0,1-19,24.17q-7.45,8.32-15.51,16.05c-8.5,8.15-17.38,15.86-26.54,23.26a513.18,513.18,0,0,1-43.47,31.41c-4.08,2.65-8.27,5.13-12.39,7.72a1.64,1.64,0,0,1-2,0q-21.45-14.38-41.63-30.49c-7.47-6-14.76-12.12-21.95-18.41-2.18-1.91-4.29-3.89-6.41-5.86-1.3-1.21-1.28-1.21-2.69-.13L68,312.15a5.71,5.71,0,0,1-.51.39c-.82.5-.68.92,0,1.54a134.36,134.36,0,0,0,15.46,12.43c1.43,1,2.84,2.06,4.21,3.15,1,.8,1,1.21,0,2a45.3,45.3,0,0,1-10.78,5.93c-10,4.16-20.38,6.91-30.86,9.43-8,1.91-16,3.53-24.06,5-3.55.65-7.12,1.22-10.68,1.81-1.3.21-1.47,0-1.09-1.27,3.73-12.3,7.87-24.45,12.59-36.41a217.26,217.26,0,0,1,9.41-21.06,74.41,74.41,0,0,1,8-12.71c.88-1.08,1.87-2.06,2.78-3.12.55-.64,1-.46,1.36.12.63,1,1.25,2,1.79,3.05a166,166,0,0,0,10.37,18c.55.8,1.16,1.55,1.67,2.37s.89.73,1.54.23c2.79-2.18,5.61-4.33,8.41-6.49l15.61-12.09.43-.32c1.16-.92,1.17-.94.1-2a275.27,275.27,0,0,1-30.08-34.22c-5-6.92-10.15-13.78-14.38-21.22A72.54,72.54,0,0,1,30.41,201a77.18,77.18,0,0,1-.79-13.36,76,76,0,0,1,24.94-54.15,76.07,76.07,0,0,1,44-19.4,76.62,76.62,0,0,1,14.12.05A77.84,77.84,0,0,1,129,117.39a75.42,75.42,0,0,1,24.33,13.07,79.25,79.25,0,0,1,13.33,13.76c.76,1,.77,1,1.49,0a76,76,0,0,1,48.37-29.43c2.9-.48,5.81-.66,8.72-.88a70.56,70.56,0,0,1,23.87,2.46,74.19,74.19,0,0,1,30.07,16.17c1.66,1.46,1.66,1.48,3.36.17q10.87-8.4,21.73-16.8a2.2,2.2,0,0,0,.88-1.82c.74-11.06-1-21.82-4-32.43-.23-.83-.39-1.68-.69-2.48a1.63,1.63,0,0,1,.67-2.1q4.73-3.71,9.69-7.11c.95-.65,1-.63,1.28.54a176.07,176.07,0,0,1,4.21,23.42c.11,1.17.3,2.33.5,3.49a74.79,74.79,0,0,0-.21-9.7q-.42-6.37-1.21-12.7c-.25-2-.48-4-.79-6.06a2,2,0,0,1,.94-2.27c2-1.27,3.94-2.6,5.88-3.94.72-.5,1-.24,1.14.5a186.82,186.82,0,0,1,4.46,24.58c.12,1.2.31,2.4.51,3.59a88.41,88.41,0,0,0-.24-10.48,147.34,147.34,0,0,0-2.8-19.2,1.17,1.17,0,0,1,.57-1.36q4.09-2.66,8.16-5.36c.55-.37.81-.28,1,.37a187,187,0,0,1,3.77,19c.35,2.94.74,5.88,1.21,8.81,0-2.37.11-4.74,0-7.1-.21-3.82-.51-7.63-1-11.43-.41-3.48-.77-7-1.23-10.43a2.07,2.07,0,0,1,1.08-2.38c3-1.85,6-3.82,8.94-5.74Z" transform="translate(-9.39 -46.17)"/>
  </g>
</svg>
