<svg>
	<symbol id="Clover" data-name="Layer 1" xmlns="http://www.w3.org/2000/svg" viewBox="0 0 336.83 389.41">
  		<title>Clover Symbol</title>
 			<g id="_6t9H0a.tif" data-name="6t9H0a.tif">
  				<g>
			      <path d="M111.5,5.21h8.42c.15.11.3.29.46.31,8.39,1.07,15.66,4.71,22.31,9.74,9.51,7.19,16.89,16.31,23.43,26.15,11.52,17.34,20,36.16,27.17,55.65.23.62.49,1.24.89,2.25.5-1.38.82-2.26,1.13-3.14,6.67-18.79,14.55-37,25.19-53.94,6.18-9.83,13.13-19,22.4-26.23,6.76-5.24,14.22-8.74,23-8.69s16.14,3.79,22.87,9c12.36,9.58,19.72,22.42,23.94,37.25.56,2,.48,4.57,1.74,5.8s3.87,1.08,5.85,1.64c12,3.36,23.08,8.32,32,17.43,12.25,12.56,14.38,33.06,3.59,47.39-6.06,8-14,13.65-22.86,18.16-17.56,9-36.47,13.52-55.74,16.83-4,.69-8.08,1.23-12.68,1.92,1,.4,1.48.6,2,.76,4.25,1.39,8.53,2.69,12.75,4.16,18.83,6.57,37.1,14.34,53.84,25.34,8.64,5.68,16.64,12.12,22.88,20.49,6.89,9.24,10.64,19.49,7.84,31-5.15,21.16-18.18,35.24-39.22,41.52-2.09.62-2.78,1.46-3,3.59a61.47,61.47,0,0,1-7.45,24.74c-5.17,9-12.65,14.56-23.34,14.87a47.51,47.51,0,0,1-21.18-4.49c-11.49-5.21-20.71-13.36-29-22.67-11.29-12.72-20.23-27-28.07-42.06L210,255a1.4,1.4,0,0,0-.25,1.12c2.3,13.62,4.53,27.26,6.92,40.87,2.89,16.41,8.63,31.64,19.15,44.83,4.33,5.43,8.5,11,12.86,16.62L218.39,394.3c-.29-.92-.48-1.54-.68-2.17-4.53-13.89-8.94-27.82-13.66-41.65-2.35-6.87-5.73-13.4-7.85-20.33-5.71-18.61-8.79-37.81-12.09-57-.6-3.48-1.14-7-1.76-10.72a7.69,7.69,0,0,0-.59.78c-.54,1.07-1.07,2.15-1.61,3.22-7.41,14.91-15.64,29.34-25.69,42.66-5.61,7.44-11.68,14.46-19.35,19.9-5.69,4-11.82,6.87-19,5.84-5-.71-9.32-3.2-13.49-5.86-13.1-8.37-21.09-20.61-25.9-35.06-1.91-5.73-3.08-11.71-4.6-17.66-2.2-.44-4.73-.78-7.16-1.44-18.83-5.1-30-17.62-35.3-36.08-2.55-9-.47-16.72,5.34-23.72,4.77-5.75,10.77-10,17.18-13.61,14.31-8.16,29.8-13.36,45.59-17.73,6.65-1.84,13.39-3.4,20.49-5.2-.93-.2-1.48-.35-2-.45-15.8-2.77-31.4-6.39-46.44-12.08-10.15-3.84-19.93-8.43-28.32-15.51-5.47-4.61-10.11-10-11.61-17.11-2.45-11.63-1.44-23,4.18-33.7S48.29,82,58.93,77.1c5-2.3,10.3-3.95,15.66-6,0-.19-.09-.71-.21-1.21a77.72,77.72,0,0,1-1.86-23.27c1.53-20.25,15.15-36.13,35-40.55Z" transform="translate(-28.14 -5.21)"/>
			      <path d="M111.5,5.21l-4,.91c-19.81,4.42-33.43,20.3-35,40.55a77.72,77.72,0,0,0,1.86,23.27c.11.5.18,1,.21,1.21-5.35,2-10.65,3.66-15.66,6C48.29,82,39.54,89.14,34,99.68s-6.63,22.07-4.18,33.7c1.5,7.13,6.14,12.5,11.61,17.11,8.39,7.07,18.17,11.66,28.32,15.51,15,5.69,30.63,9.3,46.44,12.08.56.1,1.12.24,2,.45-7.11,1.79-13.84,3.36-20.49,5.2-15.79,4.37-31.27,9.57-45.59,17.73-6.41,3.65-12.42,7.87-17.18,13.61-5.81,7-7.88,14.76-5.34,23.72,5.25,18.46,16.47,31,35.3,36.08,2.44.66,5,1,7.16,1.44,1.53,6,2.7,11.93,4.6,17.66,4.81,14.45,12.81,26.69,25.9,35.06,4.17,2.66,8.49,5.14,13.49,5.86,7.22,1,13.35-1.8,19-5.84,7.67-5.44,13.74-12.46,19.35-19.9,10.05-13.32,18.28-27.75,25.69-42.66.53-1.08,1.06-2.15,1.61-3.22a7.69,7.69,0,0,1,.59-.78c.61,3.75,1.16,7.24,1.76,10.72,3.3,19.14,6.39,38.34,12.09,57,2.12,6.93,5.51,13.46,7.85,20.33,4.72,13.82,9.13,27.76,13.66,41.65.2.62.39,1.25.68,2.17l30.31-35.81c-4.36-5.65-8.53-11.2-12.86-16.62-10.52-13.19-16.25-28.41-19.15-44.83-2.4-13.61-4.62-27.24-6.92-40.87A1.4,1.4,0,0,1,210,255L212.6,260c7.84,15,16.78,29.34,28.07,42.06,8.27,9.32,17.48,17.46,29,22.67a47.51,47.51,0,0,0,21.18,4.49c10.68-.31,18.17-5.84,23.34-14.87a61.47,61.47,0,0,0,7.45-24.74c.21-2.13.91-3,3-3.59,21-6.27,34.06-20.36,39.22-41.52,2.8-11.5-.95-21.76-7.84-31-6.24-8.37-14.24-14.81-22.88-20.49-16.74-11-35-18.77-53.84-25.34-4.22-1.47-8.5-2.77-12.75-4.16-.48-.16-.94-.36-2-.76,4.6-.69,8.65-1.23,12.68-1.92C296.51,157.51,315.42,153,333,144c8.83-4.51,16.81-10.11,22.86-18.16,10.78-14.34,8.66-34.83-3.59-47.39-8.88-9.1-20-14.06-32-17.43-2-.56-4.58-.4-5.85-1.64s-1.18-3.82-1.74-5.8c-4.22-14.83-11.58-27.67-23.94-37.25-6.73-5.22-14.11-9-22.87-9s-16.21,3.44-23,8.69c-9.27,7.19-16.22,16.4-22.4,26.23C209.87,59.15,202,77.38,195.32,96.17c-.31.88-.63,1.75-1.13,3.14-.4-1-.67-1.62-.89-2.25-7.13-19.49-15.65-38.31-27.17-55.65-6.54-9.84-13.92-19-23.43-26.15-6.65-5-13.92-8.67-22.31-9.74-.16,0-.31-.2-.46-.31H365V394.63H28.14V5.21Z" transform="translate(-28.14 -5.21)" fill="000" fill-opacity="0"/>
			    </g>
			</g>
	</symbol>


	<symbol id="Easter" data-name="Layer 1" xmlns="http://www.w3.org/2000/svg" viewBox="0 0 311.84 390.48">
		  <title>Easter Symbol</title>
		  <g id="skZoSs.tif">
		    <g>
		      <path d="M35,5.18H346.88V395.66H35ZM113.93,297a11.32,11.32,0,0,1,.51,1.14c6.17,21.93,12,43.94,15.48,66.49,1.58,10.08,7.41,17.48,17.11,20.51,26.19,8.17,53,12.21,80.44,8.82,17.7-2.18,34.06-7.9,48.25-19.06a26.45,26.45,0,0,0,9.14-13.87c7.38-25.05,14.45-50.21,22.55-75,4.76-14.6,11.12-28.69,17.06-42.89a24.17,24.17,0,0,1,5.8-7.66,51.91,51.91,0,0,0,15.16-25.24c1.38-5.49,1.45-11.3-2.39-15.59-3.08-3.44-3-6.56-2.07-10.34a26.85,26.85,0,0,0,.51-3.12c1.42-10.9,3.6-21.81,2-32.84-3.39-23.24-17.48-38.93-41.63-41.72-5-.58-10.08-.08-15.16-.08a2.85,2.85,0,0,1-.23-.44c-.35-1-.69-2-1-3C278.18,82,268,62.46,252.28,46.33,224.73,18,191.36,4,151.54,6.94c-18.9,1.41-34,10-44.53,25.85A122.49,122.49,0,0,0,96.08,52.9c-9.54,22.71-13.06,46.7-14,71.15-.06,1.49,0,3,0,4.25-5,.55-9.54.78-13.95,1.58-10.46,1.92-19.41,6.28-25,16-6.74,11.79-8.29,24.39-5.71,37.47,2.86,14.5,9.42,27.43,18,39.38.65.9,1.19,1.87,1.86,2.92-5.33,4.38-5.85,9.74-3.74,15.7.38,1.08.65,2.2,1,3.29,3.6,10.62,8.27,20.67,16.51,28.55,9.09,8.69,19.6,11.55,31.67,6.91,1.66-.64,3.33-1.22,5-1.83l.5.56a20.1,20.1,0,0,1-1.71,2.18c-3.9,3.81-8.12,7.34-11.68,11.45A77.69,77.69,0,0,0,85,306.11c-3.41,6.32-.19,11.16,7,11.58,7.51.44,12.47-3.57,16.06-9.62C110.12,304.63,111.84,301,113.93,297Z" transform="translate(-35.04 -5.18)" fill="000" fill-opacity="0"/>
		      <path d="M113.93,297c-2.09,4-3.81,7.59-5.86,11-3.6,6-8.55,10.06-16.06,9.62-7.21-.42-10.43-5.26-7-11.58a77.69,77.69,0,0,1,9.87-13.64c3.56-4.11,7.78-7.63,11.68-11.45a20.1,20.1,0,0,0,1.71-2.18l-.5-.56c-1.67.61-3.34,1.19-5,1.83-12.07,4.64-22.58,1.77-31.67-6.91-8.25-7.88-12.91-17.93-16.51-28.55-.37-1.09-.63-2.21-1-3.29-2.11-6-1.59-11.32,3.74-15.7-.67-1.05-1.21-2-1.86-2.92-8.59-11.95-15.15-24.88-18-39.38-2.58-13.08-1-25.68,5.71-37.47,5.57-9.73,14.52-14.09,25-16,4.4-.81,8.91-1,13.95-1.58,0-1.27-.05-2.76,0-4.25,1-24.45,4.48-48.44,14-71.15A122.49,122.49,0,0,1,107,32.78c10.52-15.84,25.63-24.43,44.53-25.85C191.36,4,224.73,18,252.28,46.33,268,62.46,278.18,82,285.42,103.16c.34,1,.68,2,1,3a2.85,2.85,0,0,0,.23.44c5.08,0,10.18-.49,15.16.08,24.15,2.79,38.24,18.48,41.63,41.72,1.61,11-.57,21.94-2,32.84a26.85,26.85,0,0,1-.51,3.12c-1,3.78-1,6.9,2.07,10.34,3.84,4.29,3.78,10.1,2.39,15.59a51.91,51.91,0,0,1-15.16,25.24,24.17,24.17,0,0,0-5.8,7.66c-5.95,14.19-12.3,28.29-17.06,42.89-8.1,24.82-15.17,50-22.55,75A26.45,26.45,0,0,1,275.73,375c-14.19,11.16-30.55,16.87-48.25,19.06-27.49,3.39-54.25-.65-80.44-8.82-9.7-3-15.54-10.43-17.11-20.51-3.53-22.56-9.31-44.57-15.48-66.49A11.32,11.32,0,0,0,113.93,297ZM269,112.12c-.6-1.92-1-3.52-1.58-5-7.52-18.14-17-35.15-30-49.92C219.51,37,197.86,23.51,170.61,20.44,147.09,17.8,128.33,25.88,115.3,46A100.47,100.47,0,0,0,108,59.33c-7.47,16.59-10.93,34.19-12.68,52.18-.58,6-.81,12-1.2,17.9,15.82,3.79,30.56,9.14,44.38,17.17a95,95,0,0,1,29.91-31.47c13.06-8.77,26.71-9.45,40.41-2.06,5.92,3.19,11.23,7.59,16.6,11.71,3.39,2.6,6.39,5.71,9.68,8.69A130.82,130.82,0,0,1,269,112.12ZM136.18,148.86a19.31,19.31,0,0,0-3.52-2.24c-9.74-3.9-19.4-8-29.32-11.41a68.2,68.2,0,0,0-34-2.29c-9.29,1.6-17.62,4.92-22.89,13.57-6.26,10.29-7.76,21.38-6.43,33.12a14.21,14.21,0,0,0,3.8,8.12c2.72,3.05,5.31,6.22,7.94,9.32-3.22,3.77-3.5,5.81-1.14,7.89s4.39,1.47,7.64-2.08l5,4-10.6,6.58c2.26,3.2,4.2,6.16,6.38,8.92a3.26,3.26,0,0,0,2.75,1c7.42-1.94,14.41-.68,21.17,2.55,7.1,3.39,13,8.4,18.31,14.1,1.37,1.47,2.44,1.81,4.1.67,6.82-4.72,13.55-9.58,20.58-14,2.8-1.75,2.6-3.57,2.12-6.15-3.07-16.26-3.39-32.56.62-48.67C130.58,164.15,133.55,156.78,136.18,148.86ZM96.47,61.32c.28-.48.57-1,.82-1.45A78.72,78.72,0,0,1,139,21.44c15.49-6.34,31.28-5.46,47-1.08C209.85,27,228.59,41.2,243.83,60.3c12.08,15.15,21.69,31.78,27.7,50.23,3.07,9.43,5.23,19.18,7.4,28.88,5.69,25.44,9.78,51.1,9.51,77.28,0,2.93,0,5.86,0,9h10.71a72,72,0,0,0,.39-8.1c-.81-13.83-1-27.76-2.86-41.46-2.55-19.12-5.53-38.26-9.82-57-5.69-24.9-16-48-33.31-67.19C226.24,21.58,192.27,6.66,151.08,9.84c-13.54,1-25.33,6.25-34.83,16.21S100.65,48.13,96.47,61.32ZM177.4,212.91A16.53,16.53,0,0,1,189,220.46a3.8,3.8,0,0,0,4,2c9.06-.67,18.15-1,27.18-1.95,15.23-1.57,29.79-5.86,44-11.47,1.83-.72,2.58-1.68,2.28-3.63-.76-4.9-1.19-9.87-2.23-14.71s-2.65-9.47-4-14.1c-5.47,1.2-10.28,2.46-15.16,3.29-15.55,2.64-31.06,5.64-46.7,7.51a179.86,179.86,0,0,1-52.62-1.22c-5.23-.92-10.4-2.2-15.83-3.36a116,116,0,0,0,.61,33c.12.73,1.48,1.64,2.38,1.79,6.22,1.05,12.47,2,18.72,2.81a4.89,4.89,0,0,0,3-.44c6.09-3.74,12.47-6.63,19.6-7.18.24-3.62.58-6.9-2.83-9.46-1.82-1.37-.39-3.13,1.51-3.38a5.52,5.52,0,0,0,5.11-4c1-2.8,3-2.82,4.48-.11,1.12,2,2.31,3.21,4.77,3.25a3.93,3.93,0,0,1,2.94,1.76c.3.59-.59,2.2-1.37,2.84-1.77,1.46-1.91,3-1.33,5.06.27,1,.15,2.72-.44,3.11a3.73,3.73,0,0,1-3.39,0C181.18,210.19,179.44,211.21,177.4,212.91Zm-19.47,43.84.23,1c-1.48.81-2.91,1.74-4.45,2.41-4.38,1.91-8.77,3.84-13.25,5.5-2,.74-2.46,1.82-2.5,3.81s1.37,2.27,2.67,2.67a57.57,57.57,0,0,0,23.55,2.12c10.94-1.28,19.57-6.3,24.3-16.75,5.14-11.36,3.8-22.64-1.13-33.56-2.95-6.53-8.92-9.08-16-7.5-13.52,3-23.6,10.92-31,22.44a39.89,39.89,0,0,0-5.89,16.33c-.49,3.62,1.59,5.52,5,4.77,4.67-1,9.34-2,14-2.94A34.13,34.13,0,0,1,157.92,256.76ZM208.12,314c6,6.9,11.19,13.35,16.85,19.42,5.1,5.47,10.8,10.33,17.69,13.52a6.2,6.2,0,0,0,3.52.64,200,200,0,0,0,40.25-12.36,5.81,5.81,0,0,0,3.61-4.33c1.36-5.14,1.43-5.08-2.83-8.09-6.67-4.72-13.23-9.68-17-17.15-1.39-2.76-2.68-2.8-5.28-2.2-11.16,2.62-22.35,5.2-33.61,7.36C224,312.26,216.59,312.91,208.12,314ZM338.88,180.36c.75-8.86,2-17.5,2.09-26.16.16-13.84-6.94-33.82-26.15-41.37a49.65,49.65,0,0,0-26.66-3c2.24,10.63,4.42,21,6.64,31.35.13.62.41,1.52.86,1.7,3,1.16,3.47,3.87,4.3,6.4,1,3.09,2.11,6.15,3,9.26a3.09,3.09,0,0,0,3.32,2.48c4.87.14,9.73.51,14.6.56a4.28,4.28,0,0,1,4.49,3.19c1.2,3.43,2.52,6.82,3.57,10.29.73,2.42,1.71,4,4.64,4C335.15,179,336.7,179.77,338.88,180.36Zm-100.7,169c-.93-.74-1.13-1-1.37-1.09-13.43-7.77-23.93-18.31-30.69-32.38-.7-1.46-1.58-1.78-3.12-1.75-9.65.18-19.3.23-28.95.35a3.63,3.63,0,0,0-2.14.51,15.69,15.69,0,0,1-10.72,4c1,5.26,2.32,10.19,2.75,15.19.54,6.31,3.52,10.82,8.31,14.62a11.82,11.82,0,0,0,6.7,2.71,235,235,0,0,0,42.09-.1C226.55,350.87,232,350.08,238.18,349.33ZM89.33,262.2l.13-1a28.19,28.19,0,0,1,3.55-.46c4.21,0,8.43-.13,12.62.14,2.83.19,2.89-2.09,3.69-3.59a3.2,3.2,0,0,0-.39-2.89c-5.4-6.17-10.52-12.68-16.56-18.17-4.07-3.7-9.3-6.32-14.36-8.68a22,22,0,0,0-16.8-.46c-3.85,1.34-6.6,5.42-5.71,9.23,2.94,12.64,7.69,24.51,16.93,34,11.69,11.94,24.23,10.79,37.65,3.14a10.3,10.3,0,0,1-1.38-2.44c-.71-2.87-2.76-3.7-5.38-4.26-3.45-.73-6.84-1.79-10.22-2.83A32.38,32.38,0,0,1,89.33,262.2Zm151.86,42c-.24-.52-.27-.75-.39-.84a61,61,0,0,1-21.68-28,3.14,3.14,0,0,0-2.48-1.42q-21.22.86-42.42,2a54.62,54.62,0,0,0-6.5,1.15c1.3,2.84,2.32,5.29,3.53,7.65,4.31,8.39,9.27,16.3,16.75,22.34a9.37,9.37,0,0,0,7.09,2.4c9.61-.91,19.26-1.54,28.86-2.58C229.68,306.3,235.36,305.13,241.19,304.19Zm-20-30.63c3,4.2,5.4,8,8.14,11.5,4.77,6.14,10,11.92,16.93,15.67a9.27,9.27,0,0,0,5.92.85,242.3,242.3,0,0,0,43.54-14.22c.81-.35,1.57-.81,2.84-1.46-12-3.26-20.85-10.2-28.5-18.94a4.2,4.2,0,0,0-3.34-1.06c-9.78,1.73-19.51,3.72-29.28,5.44C232.27,272.25,227,272.77,221.17,273.56ZM208,357.93a79.23,79.23,0,0,0,5,6.29c9.53,9.75,21.39,16,33.55,21.67a4.46,4.46,0,0,0,3-.19,76.62,76.62,0,0,0,24.95-13.81c2.2-1.87,3.79-4.48,5.58-6.82,1-1.34.58-2.17-.86-3.17q-7.63-5.31-15-11.05a4.81,4.81,0,0,0-4.63-1.17c-6.5,1.56-13,3.21-19.61,4.22C229.65,355.46,219.19,356.54,208,357.93Zm-38.69-2.17c-.14.56-.32.86-.26,1.1,2.64,10.78,5.34,21.55,10.91,31.3a4.79,4.79,0,0,0,3.12,2,161.84,161.84,0,0,0,44.87.73c3.43-.46,6.81-1.21,10.36-1.85-3.64-2.11-7.07-3.81-10.2-6-9.09-6.26-16.29-14.44-22.71-23.31a5.37,5.37,0,0,0-4.74-2.39c-9.54-.4-19.08-1-28.61-1.56C171.13,355.71,170.2,355.76,169.32,355.76Zm11.47-83.25c33.78-.89,67.5-4,99.76-14l-6.42-11.72L269,248.23c-25.15,6.88-50.8,10.83-76.74,13.13a4.78,4.78,0,0,0-2.87,1.29C186.48,265.84,183.68,269.18,180.79,272.5ZM281.51,168c-1.42-7.35-2.66-14.1-4.12-20.81a3.42,3.42,0,0,0-2.4-2,6.35,6.35,0,0,1-5.42-4.06c-1.68-3.64-3.68-7.16-5.12-10.89-1.2-3.11-3-4.9-6.39-5.16-2-.16-4.46-1.38-5.77-.57-5.3,3.27-10.23,7.14-15.43,10.89a138.3,138.3,0,0,1,22.91,32.24,3.53,3.53,0,0,0,2.74,1.3c4.58-.06,9.16-.33,13.74-.55C277.85,168.29,279.44,168.16,281.51,168Zm15.21-17.74a5.6,5.6,0,0,0-.15,1.13c1.36,10.42,2.7,20.84,4.19,31.24a2.81,2.81,0,0,0,2,1.71,53,53,0,0,0,7.73.14,4,4,0,0,1,4.11,2.31c2.79,4.89,5.76,9.68,8.67,14.5,1.06,1.76,9.63,2.46,10.92.87a3.11,3.11,0,0,0,.5-1.32c1.17-5.77,2.31-11.55,3.47-17.37-.55,0-.73-.07-.91-.07-6.9-.06-8.75-1.35-10.95-7.61-1-2.7-2-5.37-2.89-8.09a3.32,3.32,0,0,0-3.59-2.54c-5.06-.07-10.11-.39-15.17-.52a4,4,0,0,1-4.22-3.08C299.32,157.87,298,154.22,296.72,150.28Zm23.14,93.85-.25-.51c-3.66,2.91-7.57,5.57-10.93,8.8-5.29,5.07-11.4,8.58-18.65,8.13-6.29-.39-11.37,2.76-17.17,3.56.14.53.13.76.25.87,8.49,8.56,19.12,13.54,30.14,17.79.51.19,1.88-.68,2.18-1.36,1-2.26,1.66-4.68,2.56-7Q313.88,259.26,319.86,244.12ZM128.92,279.38c5.95,11.19,11.85,21.09,20.33,29.16a30.54,30.54,0,0,0,7.16,5.15,17.07,17.07,0,0,0,6.85,1.55c3.39.13,7.35-2.64,8.1-5.39,1-3.52-.77-6.18-3.37-8.22a178.48,178.48,0,0,0-34.64-21.67C132.31,279.45,131,279.62,128.92,279.38Zm9.78-125.76-.89-.13c-.47,2.12-1.91,4.68-1.19,6.26,1.26,2.79,4.5,3.2,7.51,2.93a6.49,6.49,0,0,0,2-.4,66.83,66.83,0,0,0,7.54-3.4c6.52-3.8,10.7-3.44,16.27,1.74,4.89,4.54,10.8,5.59,16.61,2.42,2.8-1.53,5.13-3.91,7.72-5.84,5.65-4.22,10.46-4.2,16.36-.44a40.63,40.63,0,0,0,8.93,4.43c5.89,1.94,10.32.05,13.64-4.86,1.41-2.09,3-4.59,5.06-5.56s4.91-.21,7.26-.21c-.54-.74-1.3-1.83-2.11-2.88-2.1-2.7-4.33-3.58-7.15-1.73a25.73,25.73,0,0,0-6.78,6.68c-2.56,3.67-4.71,5-8.89,3.47a35.48,35.48,0,0,1-7.57-4c-5.94-4-12-4.82-18.33-1.2a49.36,49.36,0,0,0-7.52,5.67c-4.56,4-9.78,4-14.08-.15-6.31-6.05-13.71-6.89-21.23-2.47a38.87,38.87,0,0,1-5.58,2.9C142.09,158.52,140.42,157.71,138.7,153.62ZM118.48,279.09l-.85-1.28c-1.26.31-2.88.23-3.72,1-6.41,5.88-12.86,11.74-18.89,18a46.35,46.35,0,0,0-7.2,10.28c-2.48,4.62-.64,7.32,4.56,7.56,6.12.29,10.07-3.07,13-7.92a98.55,98.55,0,0,0,4.78-9.15C113,291.44,115.71,285.25,118.48,279.09Zm194.84-34.47c4.29-3.18,8.75-6.26,13-9.66a44.75,44.75,0,0,0,14.94-21.31,38.47,38.47,0,0,0,1.45-12.06c0-2.26-1.62-4.51-2.51-6.76l-1.11.08c-1.61,18.76-14.75,28.53-28.22,36.9Zm-10.83,45.56L272,301.9c6.51,6.71,12.3,14,21.05,18.43Zm-17-80c-4.94,1.88-9.18,3.59-13.5,5.07-1.78.61-2.21,1.62-2.37,3.33-.47,4.84-1,9.68-1.81,14.47-.73,4.18-1.92,8.28-3,13,3.15-.9,5.88-1.61,8.55-2.52.44-.15.82-1.17.82-1.79,0-6.69,2.89-11.51,9-14.38a2.77,2.77,0,0,0,1.51-1.75C285,220.67,285.23,215.72,285.51,210.17Zm-105.86-94c-3.18,1.35-6.26,2.23-8.88,3.85-9.66,6-16.91,14.5-23.55,23.56a4.3,4.3,0,0,0-1,2.35c0,1.24,0,3,.8,3.59A4.41,4.41,0,0,0,151,150a19.1,19.1,0,0,0,4.82-3.88c3-3.06,5.66-6.49,8.82-9.37,5.36-4.89,11.05-9.41,16.47-14.23a5.37,5.37,0,0,0,1.85-3.77C182.85,117.85,181,117.14,179.65,116.19ZM270.46,211c2-.74,4.18-1.49,6.3-2.32,2.74-1.07,6.64-1.48,7.87-3.5,1.34-2.19.07-5.9.15-8.94.11-4.17-1.6-7.59-4.11-10.71-.44-.55-1.19-1.28-1.74-1.24-4.13.3-8.25.77-12.09,1.16Zm55.62,5.85a17,17,0,0,0-2.61-.43c-3.27.19-5.18-1.43-6.67-4.27-2.12-4.05-4.73-7.85-7-11.85-1.71-3.05-4.05-1-6.1-.92s-1.4,1.89-1.36,3.12c.1,3,.33,5.92.38,8.88.07,3.5,0,7,0,10.41,7.14,1.32,7.14,1.32,9.63,5.65Zm-61,15.09-1.09-1.3c-1.47.61-3.25.9-4.35,1.92a25,25,0,0,0-3.94,5.24c-2.28,3.66-4.88,5.14-9.1,4.32a59.26,59.26,0,0,1-9-2.7c-5-1.85-9.77-1.62-14.15,1.57a48.92,48.92,0,0,0-4.5,4c-6.42,6-13.1,7.07-21,3.25-1-.47-1.94-1-3.1-1.55l-.76,5c4.41,2.12,8.66,3.32,13.29,3,6.47-.5,11.55-3.66,16-8.09,4.74-4.7,7.86-5.18,13.95-2.71a39.24,39.24,0,0,0,8.25,2.33c6.57,1.09,10.74-1.1,14.06-6.85a41.4,41.4,0,0,1,2.75-3.64C263.38,234.43,264.25,233.16,265.14,231.91Zm-109.8,46.33c.32,3.5.51,6.81,1,10.07.11.75,1.12,1.46,1.85,2,3.61,2.67,7.27,5.27,10.91,7.9a14.39,14.39,0,0,1,6.07,9.37c.12.68.81,1.74,1.3,1.77,2.38.19,4.77.08,7.89.08-10.4-8.77-17.17-18.91-19.66-31.62Zm131.87,62.35-21,7.56,16,10.35ZM275,140.89l1.06-.81-6.3-25.24-11,5.39a8.41,8.41,0,0,0,1.79.87c3.55.47,5.43,2.7,6.75,5.84,1.66,4,3.55,7.83,5.48,11.66A10.67,10.67,0,0,0,275,140.89Zm27,85.75,5.64,3C307.33,226.15,307.25,226.1,302,226.64Z" transform="translate(-35.04 -5.18)"/>
		      <path d="M269,112.12a130.82,130.82,0,0,0-33.85,21.33c-3.29-3-6.29-6.09-9.68-8.69-5.38-4.12-10.68-8.52-16.6-11.71-13.7-7.39-27.35-6.71-40.41,2.06a95,95,0,0,0-29.91,31.47c-13.82-8-28.56-13.38-44.38-17.17.39-5.92.62-11.92,1.2-17.9,1.75-18,5.21-35.6,12.68-52.18A100.47,100.47,0,0,1,115.3,46c13-20.11,31.8-28.2,55.31-25.55,27.26,3.07,48.9,16.58,66.78,36.75,13.09,14.77,22.52,31.78,30,49.92C268,108.61,268.41,110.2,269,112.12Z" transform="translate(-35.04 -5.18)" fill="000" fill-opacity="0"/>
		      <path d="M136.18,148.86c-2.63,7.92-5.6,15.3-7.5,22.94-4,16.11-3.69,32.41-.62,48.67.49,2.58.68,4.41-2.12,6.15-7,4.39-13.76,9.26-20.58,14-1.66,1.15-2.73.8-4.1-.67-5.31-5.7-11.21-10.7-18.31-14.1-6.76-3.23-13.75-4.49-21.17-2.55a3.26,3.26,0,0,1-2.75-1c-2.18-2.77-4.13-5.72-6.38-8.92l10.6-6.58-5-4c-3.26,3.56-5.37,4.08-7.64,2.08s-2.08-4.12,1.14-7.89c-2.63-3.1-5.22-6.27-7.94-9.32a14.21,14.21,0,0,1-3.8-8.12c-1.33-11.74.17-22.83,6.43-33.12,5.26-8.65,13.6-12,22.89-13.57a68.2,68.2,0,0,1,34,2.29c9.92,3.39,19.58,7.51,29.32,11.41A19.31,19.31,0,0,1,136.18,148.86Z" transform="translate(-35.04 -5.18)" fill="000" fill-opacity="0"/>
		      <path d="M96.47,61.32c4.18-13.19,10.22-25.24,19.78-35.27s21.29-15.16,34.83-16.21C192.27,6.66,226.24,21.58,253.54,52c17.26,19.2,27.62,42.29,33.31,67.19,4.29,18.79,7.27,37.93,9.82,57,1.83,13.7,2,27.63,2.86,41.46a72,72,0,0,1-.39,8.1H288.43c0-3.18,0-6.12,0-9,.28-26.19-3.81-51.84-9.51-77.28-2.17-9.7-4.33-19.45-7.4-28.88-6-18.45-15.62-35.09-27.7-50.23C228.59,41.2,209.85,27,186,20.37c-15.74-4.38-31.53-5.26-47,1.08A78.72,78.72,0,0,0,97.3,59.87C97,60.37,96.75,60.84,96.47,61.32Z" transform="translate(-35.04 -5.18)" fill="000" fill-opacity="0"/>
		      <path d="M177.4,212.91c2-1.7,3.79-2.72,6.25-1a3.73,3.73,0,0,0,3.39,0c.6-.39.72-2.14.44-3.11-.58-2.05-.44-3.6,1.33-5.06.78-.64,1.67-2.25,1.37-2.84a3.93,3.93,0,0,0-2.94-1.76c-2.46,0-3.66-1.21-4.77-3.25-1.49-2.71-3.44-2.69-4.48.11a5.52,5.52,0,0,1-5.11,4c-1.9.25-3.33,2-1.51,3.38,3.41,2.57,3.08,5.84,2.83,9.46-7.13.54-13.51,3.44-19.6,7.18a4.89,4.89,0,0,1-3,.44c-6.25-.85-12.5-1.76-18.72-2.81-.9-.15-2.26-1.07-2.38-1.79a116,116,0,0,1-.61-33c5.43,1.16,10.6,2.44,15.83,3.36a179.86,179.86,0,0,0,52.62,1.22c15.64-1.86,31.15-4.87,46.7-7.51,4.88-.83,9.69-2.09,15.16-3.29,1.33,4.63,3,9.3,4,14.1s1.47,9.81,2.23,14.71c.3,1.94-.46,2.91-2.28,3.63-14.2,5.61-28.77,9.9-44,11.47-9,.93-18.12,1.28-27.18,1.95a3.8,3.8,0,0,1-4-2A16.53,16.53,0,0,0,177.4,212.91Zm76.31-10.62c3.16,0,4.19-1.56,2.83-4.25a5.11,5.11,0,0,1,.29-5.72c1.74-2.78.71-4.33-2.7-4.09a6,6,0,0,1-5.49-2.09c-1.94-2.16-3.94-1.6-4.5,1.23-.48,2.44-1.3,4-3.87,4.86s-2.9,3.06-.42,4.29,3.45,3.08,3.7,5.74c.19,2,1.79,3,3.48,1.73C249.27,202.28,251.26,200.69,253.71,202.29Zm-114.79,5.27c0,2.54,1,3.28,3.67,2.27,2-.77,3.63-1.13,5.41.59.68.66,2.49,1.08,3.08.65a4,4,0,0,0,1.14-3.19,4.51,4.51,0,0,1,2.22-4.79c.85-.55,2-2,1.73-2.61a4.3,4.3,0,0,0-2.69-2.15c-1.88-.5-3.26-1.06-3.83-3.21-.3-1.13-1.53-2-2.34-3-1,.89-2.38,1.59-3.06,2.7a3.73,3.73,0,0,1-3.61,2.11c-1.26,0-2.52.88-3.78,1.36.48,1.19.68,2.65,1.5,3.51,1.31,1.37,1.75,2.59.84,4.3A4.59,4.59,0,0,0,138.92,207.57Zm71.77-1.09-.94.61c.43,1.21.58,3.16,1.35,3.44a4.8,4.8,0,0,0,3.81-.94c1.57-1.19,2.79-1,4.44-.32,1,.42,2.76.53,3.45-.06s.76-2.39.36-3.36a4.24,4.24,0,0,1,1-5.13c.69-.73,1.42-2.43,1.06-2.93a4.13,4.13,0,0,0-3.12-1.4,4.43,4.43,0,0,1-4.62-2.5c-.53-.93-2.13-2.14-2.77-1.91a4.75,4.75,0,0,0-2.33,2.87c-.54,1.73-1.23,2.73-3.17,3.08-1.17.21-2.18,1.3-3.26,2,.75,1.13,1.45,2.29,2.25,3.39S209.86,205.42,210.7,206.47Z" transform="translate(-35.04 -5.18)" fill="000" fill-opacity="0"/>
		      <path d="M157.92,256.76a34.13,34.13,0,0,0-4.39.3c-4.69.91-9.37,1.91-14,2.94-3.43.75-5.5-1.15-5-4.77a39.89,39.89,0,0,1,5.89-16.33c7.36-11.52,17.43-19.44,31-22.44,7.1-1.58,13.07,1,16,7.5,4.93,10.92,6.27,22.2,1.13,33.56-4.73,10.45-13.35,15.48-24.3,16.75a57.57,57.57,0,0,1-23.55-2.12c-1.3-.39-2.72-.55-2.67-2.67s.51-3.07,2.5-3.81c4.48-1.66,8.86-3.59,13.25-5.5,1.54-.67,3-1.6,4.45-2.41Z" transform="translate(-35.04 -5.18)" fill="000" fill-opacity="0"/>
		      <path d="M208.12,314c8.47-1.13,15.91-1.79,23.2-3.19,11.26-2.16,22.44-4.74,33.61-7.36,2.59-.61,3.88-.57,5.28,2.2,3.77,7.48,10.33,12.43,17,17.15,4.26,3,4.19,3,2.83,8.09a5.81,5.81,0,0,1-3.61,4.33,200,200,0,0,1-40.25,12.36,6.2,6.2,0,0,1-3.52-.64c-6.89-3.19-12.59-8-17.69-13.52C219.31,327.39,214.07,320.94,208.12,314Z" transform="translate(-35.04 -5.18)" fill="000" fill-opacity="0"/>
		      <path d="M338.88,180.36c-2.19-.58-3.74-1.36-5.27-1.33-2.93.06-3.91-1.56-4.64-4-1-3.47-2.37-6.86-3.57-10.29a4.28,4.28,0,0,0-4.49-3.19c-4.87-.05-9.73-.42-14.6-.56a3.09,3.09,0,0,1-3.32-2.48c-.92-3.11-2-6.18-3-9.26-.83-2.53-1.35-5.23-4.3-6.4-.45-.18-.73-1.08-.86-1.7-2.21-10.36-4.39-20.73-6.64-31.35a49.65,49.65,0,0,1,26.66,3c19.22,7.55,26.32,27.53,26.15,41.37C340.87,162.85,339.63,171.5,338.88,180.36Z" transform="translate(-35.04 -5.18)" fill="000" fill-opacity="0"/>
		      <path d="M238.18,349.33c-6.17.75-11.63,1.54-17.13,2.05a235,235,0,0,1-42.09.1,11.82,11.82,0,0,1-6.7-2.71c-4.79-3.79-7.77-8.31-8.31-14.62-.43-5-1.76-9.92-2.75-15.19a15.69,15.69,0,0,0,10.72-4,3.63,3.63,0,0,1,2.14-.51c9.65-.13,19.3-.17,28.95-.35,1.54,0,2.42.29,3.12,1.75,6.76,14.07,17.26,24.62,30.69,32.38C237,348.38,237.25,348.59,238.18,349.33Z" transform="translate(-35.04 -5.18)" fill="000" fill-opacity="0"/>
		      <path d="M89.33,262.2a32.38,32.38,0,0,0,3.78,1.68c3.38,1,6.77,2.1,10.22,2.83,2.62.55,4.67,1.38,5.38,4.26a10.3,10.3,0,0,0,1.38,2.44c-13.42,7.65-26,8.8-37.65-3.14-9.24-9.44-14-21.31-16.93-34-.89-3.81,1.86-7.89,5.71-9.23a22,22,0,0,1,16.8.46c5.06,2.36,10.29,5,14.36,8.68,6,5.49,11.16,12,16.56,18.17a3.2,3.2,0,0,1,.39,2.89c-.79,1.5-.86,3.78-3.69,3.59-4.19-.28-8.41-.17-12.62-.14a28.19,28.19,0,0,0-3.55.46Z" transform="translate(-35.04 -5.18)" fill="000" fill-opacity="0"/>
		      <path d="M241.19,304.19c-5.82.94-11.51,2.11-17.26,2.73-9.6,1-19.24,1.67-28.86,2.58a9.37,9.37,0,0,1-7.09-2.4c-7.48-6-12.44-13.94-16.75-22.34-1.21-2.36-2.23-4.82-3.53-7.65a54.62,54.62,0,0,1,6.5-1.15q21.2-1.11,42.42-2a3.14,3.14,0,0,1,2.48,1.42,61,61,0,0,0,21.68,28C240.92,303.44,240.95,303.67,241.19,304.19Z" transform="translate(-35.04 -5.18)" fill="000" fill-opacity="0"/>
		      <path d="M221.17,273.56c5.88-.79,11.1-1.31,16.26-2.22,9.78-1.72,19.51-3.72,29.28-5.44A4.2,4.2,0,0,1,270,267c7.65,8.74,16.46,15.68,28.5,18.94-1.27.66-2,1.11-2.84,1.46a242.3,242.3,0,0,1-43.54,14.22,9.27,9.27,0,0,1-5.92-.85c-6.94-3.75-12.16-9.53-16.93-15.67C226.57,281.53,224.13,277.76,221.17,273.56Z" transform="translate(-35.04 -5.18)" fill="000" fill-opacity="0"/>
		      <path d="M208,357.93c11.18-1.39,21.63-2.47,32-4,6.6-1,13.11-2.66,19.61-4.22a4.81,4.81,0,0,1,4.63,1.17q7.31,5.74,15,11.05c1.44,1,1.89,1.83.86,3.17-1.79,2.33-3.37,5-5.58,6.82a76.62,76.62,0,0,1-24.95,13.81,4.46,4.46,0,0,1-3,.19c-12.15-5.71-24-11.92-33.55-21.67A79.23,79.23,0,0,1,208,357.93Z" transform="translate(-35.04 -5.18)" fill="000" fill-opacity="0"/>
		      <path d="M169.32,355.76c.88,0,1.81,0,2.72,0,9.54.53,19.07,1.16,28.61,1.56a5.37,5.37,0,0,1,4.74,2.39c6.43,8.87,13.62,17.05,22.71,23.31,3.12,2.15,6.56,3.85,10.2,6-3.55.64-6.93,1.39-10.36,1.85a161.84,161.84,0,0,1-44.87-.73,4.79,4.79,0,0,1-3.12-2c-5.57-9.74-8.27-20.52-10.91-31.3C169,356.62,169.18,356.32,169.32,355.76Z" transform="translate(-35.04 -5.18)" fill="000" fill-opacity="0"/>
		      <path d="M180.79,272.5c2.89-3.32,5.69-6.66,8.65-9.84a4.78,4.78,0,0,1,2.87-1.29c25.94-2.3,51.59-6.25,76.74-13.13l5.08-1.42,6.42,11.72C248.29,268.5,214.57,271.61,180.79,272.5Z" transform="translate(-35.04 -5.18)" fill="000" fill-opacity="0"/>
		      <path d="M281.51,168c-2.07.14-3.65.26-5.24.34-4.58.22-9.16.49-13.74.55a3.53,3.53,0,0,1-2.74-1.3,138.3,138.3,0,0,0-22.91-32.24c5.21-3.75,10.13-7.62,15.43-10.89,1.3-.8,3.81.42,5.77.57,3.34.27,5.19,2.05,6.39,5.16,1.44,3.73,3.44,7.25,5.12,10.89a6.35,6.35,0,0,0,5.42,4.06,3.42,3.42,0,0,1,2.4,2C278.84,153.92,280.08,160.67,281.51,168Z" transform="translate(-35.04 -5.18)" fill="000" fill-opacity="0"/>
		      <path d="M296.72,150.28c1.31,3.94,2.6,7.59,3.74,11.29a4,4,0,0,0,4.22,3.08c5.06.12,10.11.44,15.17.52a3.32,3.32,0,0,1,3.59,2.54c.89,2.72,1.94,5.39,2.89,8.09,2.2,6.26,4.05,7.56,10.95,7.61.18,0,.36,0,.91.07-1.16,5.82-2.31,11.6-3.47,17.37a3.11,3.11,0,0,1-.5,1.32c-1.3,1.59-9.86.9-10.92-.87-2.91-4.82-5.88-9.61-8.67-14.5a4,4,0,0,0-4.11-2.31,53,53,0,0,1-7.73-.14,2.81,2.81,0,0,1-2-1.71c-1.49-10.4-2.83-20.82-4.19-31.24A5.6,5.6,0,0,1,296.72,150.28Z" transform="translate(-35.04 -5.18)" fill="000" fill-opacity="0"/>
		      <path d="M319.86,244.12q-5.94,15.15-11.88,30.3c-.9,2.31-1.54,4.74-2.56,7-.3.68-1.68,1.55-2.18,1.36-11-4.25-21.65-9.24-30.14-17.79-.11-.11-.1-.34-.25-.87,5.81-.8,10.88-4,17.17-3.56,7.25.44,13.36-3.06,18.65-8.13,3.36-3.22,7.27-5.88,10.93-8.8Z" transform="translate(-35.04 -5.18)" fill="000" fill-opacity="0"/>
		      <path d="M128.92,279.38c2,.24,3.39.08,4.45.57A178.48,178.48,0,0,1,168,301.62c2.6,2,4.33,4.7,3.37,8.22-.75,2.76-4.72,5.53-8.1,5.39a17.07,17.07,0,0,1-6.85-1.55,30.54,30.54,0,0,1-7.16-5.15C140.78,300.47,134.87,290.57,128.92,279.38Z" transform="translate(-35.04 -5.18)" fill="000" fill-opacity="0"/>
		      <path d="M138.7,153.62c1.71,4.09,3.39,4.9,7.56,3.29a38.87,38.87,0,0,0,5.58-2.9c7.52-4.43,14.93-3.59,21.23,2.47,4.3,4.13,9.52,4.11,14.08.15a49.36,49.36,0,0,1,7.52-5.67c6.28-3.62,12.4-2.8,18.33,1.2a35.48,35.48,0,0,0,7.57,4c4.18,1.53,6.33.2,8.89-3.47a25.73,25.73,0,0,1,6.78-6.68c2.82-1.85,5-1,7.15,1.73.81,1,1.57,2.14,2.11,2.88-2.35,0-5.2-.75-7.26.21s-3.65,3.47-5.06,5.56c-3.32,4.91-7.75,6.8-13.64,4.86a40.63,40.63,0,0,1-8.93-4.43c-5.91-3.76-10.71-3.78-16.36.44-2.59,1.93-4.92,4.31-7.72,5.84-5.81,3.17-11.72,2.12-16.61-2.42-5.57-5.17-9.75-5.54-16.27-1.74a66.83,66.83,0,0,1-7.54,3.4,6.49,6.49,0,0,1-2,.4c-3,.27-6.25-.14-7.51-2.93-.72-1.59.72-4.14,1.19-6.26Z" transform="translate(-35.04 -5.18)" fill="000" fill-opacity="0"/>
		      <path d="M118.48,279.09c-2.77,6.16-5.49,12.35-8.34,18.48a98.55,98.55,0,0,1-4.78,9.15c-2.91,4.85-6.86,8.2-13,7.92-5.21-.24-7-2.94-4.56-7.56A46.35,46.35,0,0,1,95,296.8c6-6.25,12.48-12.11,18.89-18,.84-.77,2.46-.68,3.72-1Z" transform="translate(-35.04 -5.18)" fill="000" fill-opacity="0"/>
		      <path d="M313.33,244.63l-2.49-12.8c13.47-8.37,26.61-18.14,28.22-36.9l1.11-.08c.89,2.25,2.48,4.5,2.51,6.76a38.47,38.47,0,0,1-1.45,12.06A44.75,44.75,0,0,1,326.28,235C322.08,238.36,317.62,241.44,313.33,244.63Z" transform="translate(-35.04 -5.18)" fill="000" fill-opacity="0"/>
		      <path d="M302.49,290.18,293,320.33c-8.75-4.47-14.54-11.72-21.05-18.43Z" transform="translate(-35.04 -5.18)" fill="000" fill-opacity="0"/>
		      <path d="M285.51,210.17c-.27,5.54-.46,10.49-.82,15.43a2.77,2.77,0,0,1-1.51,1.75c-6.13,2.86-9,7.69-9,14.38,0,.62-.38,1.64-.82,1.79-2.66.91-5.39,1.61-8.55,2.52,1.12-4.72,2.32-8.82,3-13,.83-4.78,1.34-9.63,1.81-14.47.17-1.71.6-2.73,2.37-3.33C276.33,213.77,280.56,212,285.51,210.17Z" transform="translate(-35.04 -5.18)" fill="000" fill-opacity="0"/>
		      <path d="M179.65,116.19c1.32,1,3.2,1.67,3.28,2.54a5.37,5.37,0,0,1-1.85,3.77c-5.42,4.83-11.11,9.34-16.47,14.23-3.16,2.88-5.82,6.31-8.82,9.37A19.1,19.1,0,0,1,151,150a4.41,4.41,0,0,1-3.89-.45c-.76-.59-.79-2.35-.8-3.59a4.3,4.3,0,0,1,1-2.35c6.64-9.06,13.89-17.56,23.55-23.56C173.39,118.41,176.47,117.54,179.65,116.19Z" transform="translate(-35.04 -5.18)" fill="000" fill-opacity="0"/>
		      <path d="M270.46,211l-3.62-25.55c3.84-.39,8-.86,12.09-1.16.56,0,1.3.69,1.74,1.24,2.5,3.12,4.21,6.54,4.11,10.71-.08,3,1.19,6.75-.15,8.94-1.23,2-5.13,2.43-7.87,3.5C274.64,209.47,272.49,210.22,270.46,211Z" transform="translate(-35.04 -5.18)" fill="000" fill-opacity="0"/>
		      <path d="M326.09,216.82l-13.67,10.59c-2.49-4.33-2.49-4.33-9.63-5.65,0-3.42.05-6.92,0-10.41-.06-3-.29-5.92-.38-8.88,0-1.23-.73-3,1.36-3.12s4.39-2.14,6.1.92c2.24,4,4.84,7.8,7,11.85,1.49,2.84,3.39,4.46,6.67,4.27A17,17,0,0,1,326.09,216.82Z" transform="translate(-35.04 -5.18)" fill="000" fill-opacity="0"/>
		      <path d="M265.14,231.91c-.89,1.25-1.75,2.52-2.66,3.76a41.4,41.4,0,0,0-2.75,3.64c-3.32,5.75-7.49,7.94-14.06,6.85a39.24,39.24,0,0,1-8.25-2.33c-6.09-2.47-9.21-2-13.95,2.71-4.47,4.43-9.55,7.6-16,8.09-4.63.36-8.88-.84-13.29-3l.76-5c1.16.58,2.12,1.07,3.1,1.55C205.9,252,212.57,251,219,245a48.92,48.92,0,0,1,4.5-4c4.38-3.2,9.13-3.42,14.15-1.57a59.26,59.26,0,0,0,9,2.7c4.22.82,6.82-.66,9.1-4.32a25,25,0,0,1,3.94-5.24c1.1-1,2.87-1.31,4.35-1.92Z" transform="translate(-35.04 -5.18)" fill="000" fill-opacity="0"/>
		      <path d="M155.34,278.24l9.35-.42c2.49,12.71,9.25,22.85,19.66,31.62-3.12,0-5.51.1-7.89-.08-.49,0-1.17-1.1-1.3-1.77a14.39,14.39,0,0,0-6.07-9.37c-3.64-2.63-7.3-5.23-10.91-7.9-.73-.54-1.74-1.26-1.85-2C155.85,285,155.66,281.74,155.34,278.24Z" transform="translate(-35.04 -5.18)" fill="000" fill-opacity="0"/>
		      <path d="M287.21,340.59l-5,17.91-16-10.35Z" transform="translate(-35.04 -5.18)" fill="000" fill-opacity="0"/>
		      <path d="M275,140.89a10.67,10.67,0,0,1-2.2-2.28c-1.93-3.84-3.81-7.71-5.48-11.66-1.32-3.14-3.2-5.37-6.75-5.84a8.41,8.41,0,0,1-1.79-.87l11-5.39,6.3,25.24Z" transform="translate(-35.04 -5.18)" fill="000" fill-opacity="0"/>
		      <path d="M302,226.64c5.29-.54,5.38-.49,5.64,3Z" transform="translate(-35.04 -5.18)" fill="000" fill-opacity="0"/>
		      <path d="M253.71,202.29c-2.45-1.61-4.44,0-6.67,1.7-1.68,1.29-3.28.29-3.48-1.73-.25-2.66-1.1-4.45-3.7-5.74s-2.28-3.36.42-4.29,3.39-2.42,3.87-4.86c.55-2.83,2.55-3.38,4.5-1.23a6,6,0,0,0,5.49,2.09c3.41-.24,4.44,1.31,2.7,4.09a5.11,5.11,0,0,0-.29,5.72C257.91,200.73,256.87,202.27,253.71,202.29Z" transform="translate(-35.04 -5.18)"/>
		      <path d="M138.92,207.57a4.59,4.59,0,0,1,.29-1.48c.9-1.7.47-2.92-.84-4.3-.82-.86-1-2.32-1.5-3.51,1.26-.48,2.51-1.35,3.78-1.36a3.73,3.73,0,0,0,3.61-2.11c.67-1.11,2-1.82,3.06-2.7.81,1,2,1.88,2.34,3,.58,2.15,2,2.71,3.83,3.21a4.3,4.3,0,0,1,2.69,2.15c.22.6-.88,2.07-1.73,2.61a4.51,4.51,0,0,0-2.22,4.79,4,4,0,0,1-1.14,3.19c-.59.43-2.41,0-3.08-.65-1.77-1.72-3.39-1.36-5.41-.59C140,210.84,138.89,210.11,138.92,207.57Z" transform="translate(-35.04 -5.18)"/>
		      <path d="M210.7,206.47c-.83-1.05-1.7-2.08-2.49-3.16s-1.5-2.26-2.25-3.39c1.08-.69,2.09-1.78,3.26-2,1.94-.34,2.63-1.34,3.17-3.08a4.75,4.75,0,0,1,2.33-2.87c.64-.23,2.24,1,2.77,1.91a4.43,4.43,0,0,0,4.62,2.5,4.13,4.13,0,0,1,3.12,1.4c.36.5-.37,2.19-1.06,2.93a4.24,4.24,0,0,0-1,5.13c.4,1,.28,2.81-.36,3.36s-2.42.48-3.45.06c-1.65-.67-2.87-.87-4.44.32a4.8,4.8,0,0,1-3.81.94c-.77-.28-.92-2.23-1.35-3.44Z" transform="translate(-35.04 -5.18)"/>
		    </g>
		  </g>
		</symbol>


		<symbol id="Heart" data-name="Layer 1" xmlns="http://www.w3.org/2000/svg" viewBox="0 0 381.75 307.73">
 		 <title>Heart Symbol</title>
  			<g id="ZGXaIR.tif">
		    <path d="M347.21,46.17c3.08,9.72,6.09,19.47,7.51,29.61.11.76.34.88.91.42a22.32,22.32,0,0,0,1.74-1.43,2.34,2.34,0,0,1,2.57-.55c2.92.95,6.18,5.11,6.38,8.18a2.48,2.48,0,0,1-1,2.34c-.55.4-1.06.85-1.61,1.25s-.39.66.15.87c9.18,3.49,17.56,8.51,25.94,13.53,1.77,1.06,1.76,1.05.29,2.43-2.24,2.1-4.51,4.18-6.7,6.35a1.82,1.82,0,0,1-2.27.43c-7-2.82-14.14-5.51-21.4-7.7-2-.6-4-1.12-6-1.67l-.11.25c.35.15.7.31,1.06.44a182.62,182.62,0,0,1,24.25,10.67c1.19.63,1.21.63.22,1.56-2.22,2.08-4.46,4.13-6.66,6.23a1.54,1.54,0,0,1-2,.31,141.12,141.12,0,0,0-22.36-8.76,38.86,38.86,0,0,0-5.45-1.21c1.46.56,2.91,1.17,4.39,1.69a180.49,180.49,0,0,1,21.82,9.78c1,.48,1,.61.16,1.32-1.81,1.62-3.64,3.22-5.41,4.9a1.55,1.55,0,0,1-1.9.36c-7-2.75-13.94-5.42-21.1-7.61a39.31,39.31,0,0,0-6.82-1.6c.59.23,1.16.48,1.76.69a187.11,187.11,0,0,1,23.79,10.38c.75.39,1,.67.24,1.33-3,2.57-6,5.16-9.16,7.62a2.15,2.15,0,0,1-2.78.13c-7.18-4-14.41-8-22.35-10.35-3.81-1.15-7.67-2-11.55-2.89A2,2,0,0,0,312,126q-8.52,6.61-17.06,13.21c-1.5,1.16-3,2.34-4.52,3.46-.75.55-.88,1-.27,1.78a72.49,72.49,0,0,1,11.45,22.21,72.69,72.69,0,0,1,3.32,13.74,89.9,89.9,0,0,1,.23,13.08,73.52,73.52,0,0,1-3.1,18.34,79.32,79.32,0,0,1-9.08,19.6c-2.94,4.66-5.56,9.51-8.66,14.07a230.31,230.31,0,0,1-19,24.17q-7.45,8.32-15.51,16.05c-8.5,8.15-17.38,15.86-26.54,23.26a513.18,513.18,0,0,1-43.47,31.41c-4.08,2.65-8.27,5.13-12.39,7.72a1.64,1.64,0,0,1-2,0q-21.45-14.38-41.63-30.49c-7.47-6-14.76-12.12-21.95-18.41-2.18-1.91-4.29-3.89-6.41-5.86-1.3-1.21-1.28-1.21-2.69-.13L68,312.15a5.71,5.71,0,0,1-.51.39c-.82.5-.68.92,0,1.54a134.36,134.36,0,0,0,15.46,12.43c1.43,1,2.84,2.06,4.21,3.15,1,.8,1,1.21,0,2a45.3,45.3,0,0,1-10.78,5.93c-10,4.16-20.38,6.91-30.86,9.43-8,1.91-16,3.53-24.06,5-3.55.65-7.12,1.22-10.68,1.81-1.3.21-1.47,0-1.09-1.27,3.73-12.3,7.87-24.45,12.59-36.41a217.26,217.26,0,0,1,9.41-21.06,74.41,74.41,0,0,1,8-12.71c.88-1.08,1.87-2.06,2.78-3.12.55-.64,1-.46,1.36.12.63,1,1.25,2,1.79,3.05a166,166,0,0,0,10.37,18c.55.8,1.16,1.55,1.67,2.37s.89.73,1.54.23c2.79-2.18,5.61-4.33,8.41-6.49l15.61-12.09.43-.32c1.16-.92,1.17-.94.1-2a275.27,275.27,0,0,1-30.08-34.22c-5-6.92-10.15-13.78-14.38-21.22A72.54,72.54,0,0,1,30.41,201a77.18,77.18,0,0,1-.79-13.36,76,76,0,0,1,24.94-54.15,76.07,76.07,0,0,1,44-19.4,76.62,76.62,0,0,1,14.12.05A77.84,77.84,0,0,1,129,117.39a75.42,75.42,0,0,1,24.33,13.07,79.25,79.25,0,0,1,13.33,13.76c.76,1,.77,1,1.49,0a76,76,0,0,1,48.37-29.43c2.9-.48,5.81-.66,8.72-.88a70.56,70.56,0,0,1,23.87,2.46,74.19,74.19,0,0,1,30.07,16.17c1.66,1.46,1.66,1.48,3.36.17q10.87-8.4,21.73-16.8a2.2,2.2,0,0,0,.88-1.82c.74-11.06-1-21.82-4-32.43-.23-.83-.39-1.68-.69-2.48a1.63,1.63,0,0,1,.67-2.1q4.73-3.71,9.69-7.11c.95-.65,1-.63,1.28.54a176.07,176.07,0,0,1,4.21,23.42c.11,1.17.3,2.33.5,3.49a74.79,74.79,0,0,0-.21-9.7q-.42-6.37-1.21-12.7c-.25-2-.48-4-.79-6.06a2,2,0,0,1,.94-2.27c2-1.27,3.94-2.6,5.88-3.94.72-.5,1-.24,1.14.5a186.82,186.82,0,0,1,4.46,24.58c.12,1.2.31,2.4.51,3.59a88.41,88.41,0,0,0-.24-10.48,147.34,147.34,0,0,0-2.8-19.2,1.17,1.17,0,0,1,.57-1.36q4.09-2.66,8.16-5.36c.55-.37.81-.28,1,.37a187,187,0,0,1,3.77,19c.35,2.94.74,5.88,1.21,8.81,0-2.37.11-4.74,0-7.1-.21-3.82-.51-7.63-1-11.43-.41-3.48-.77-7-1.23-10.43a2.07,2.07,0,0,1,1.08-2.38c3-1.85,6-3.82,8.94-5.74Z" transform="translate(-9.39 -46.17)"/>
		  </g>
		</symbol>



		<symbol id="Fireworks" data-name="Layer 1" xmlns="http://www.w3.org/2000/svg" viewBox="0 0 362.7 372.62">
			  <title>Fireworks Symbol</title>
			  <g id="Xl0Ait.tif">
			    <g>
			      <path d="M385,386.88H22.32V14.26H385ZM156.59,193.47l-.1-.42c-.71.06-1.42.1-2.12.18s-1.42.27-2.14.34c-18.52,1.85-35.72,7.43-51.4,17.66a99.83,99.83,0,0,0-32.19,34.49,94.72,94.72,0,0,0-10.29,27.8,103.18,103.18,0,0,0-1.71,16.57c-.13,2.79-1,3.65-3.65,3.35a56.79,56.79,0,0,0-6,0c1.8,4.7,3.45,9,5.14,13.37,1.11,2.84,3.21,5.65,3.2,8.47s-2,5.89-3.14,8.86c-1.57,4.27-3.08,8.55-4.69,13.07,1.1,0,1.92,0,2.73,0,5.87-.4,11.73-.88,17.6-1.2a5.73,5.73,0,0,1,3.45.74c2.64,1.92,5.06,4.16,7.61,6.22,3.06,2.48,6.17,4.9,9.45,7.51,1.56-6.61,2.87-12.83,4.58-18.94A12,12,0,0,1,96.35,326c2.45-2.14,5.44-3.64,8.15-5.49s5.58-3.93,8.43-5.94a7,7,0,0,0-.92-1q-7.68-4.85-15.38-9.67a9,9,0,0,1-4.3-6C91,291.69,89.25,285.6,87.55,279c-3.28,2.81-6.29,5.36-9.27,7.93-2.56,2.21-4.76,5.53-7.71,6.42-3.68,1.12-8,.27-12.44.27,2-3.59,3.57-6.67,5.32-9.66q8.66-14.82,17.42-29.59a127.89,127.89,0,0,1,20.52-25.53c10.28-10.12,22.09-18,34.66-24.88C142.8,200.27,149.74,197,156.59,193.47Zm226.9,31.1c1.18-8-.6-14.9-2.17-21.77-1.74-7.58-5.47-14.22-9.58-20.74a60.8,60.8,0,0,0-13.9-15.85c-6.22-4.84-12.86-9.14-19.42-13.53-1.73-1.16-2.21-1.86-.42-3.4,2.56-2.2,5-4.59,7.36-7,1.91-1.9,3.72-3.91,5.8-6.12-5.71-2.43-11-4.54-16.08-6.92a7,7,0,0,1-3-3.06c-2.56-5.08-4.9-10.27-7.56-15.92-2.09,2.52-4.07,4.68-5.78,7-3.71,5.13-7.38,9.89-14.81,9.59-3.79-.16-7.63,1-11.6,1.52l8.76,14.85c-5,0-9.2-.14-13.4,0-20.29.76-38.92,6.34-54.7,19.58-3.66,3.07-6.74,6.85-10.08,10.31,24.54-12.47,49.73-17.39,76.71-11.5l-.78,3.9c1.4-.29,2.35-.57,3.32-.66,3.12-.29,6.47-1.35,9.33-.59a179.43,179.43,0,0,1,21.89,7.37c20.5,8.48,35,23.39,45.05,42.95C380,217.72,381.57,220.79,383.49,224.57ZM266.06,317c.41-3.27.6-5.92,1.1-8.52.47-2.43,1.27-4.8,1.93-7.19l1.38.11,6.41,81.19a44.5,44.5,0,0,0,1.83-6.51c1.37-9.46,3.16-18.91,3.62-28.42.65-13.46,1-26.95-.86-40.43-1.42-10.22-1.81-20.54-3.67-30.77-2.22-12.24-4.39-24.43-8.87-36a92.51,92.51,0,0,0-7.35-15.16,68.52,68.52,0,0,0-20.27-21.15c-3.86-2.59-8-4.72-12-7.06l-.52.68c11.7,10.8,20.07,23.93,26.31,38.35,7.57,17.49,12.24,41,11,45.22l-4.45-11.74a58.71,58.71,0,0,0-5.95,5.34c-3.54,4.14-7.39,7-13.33,4.94.13-.56.24-1.15.41-1.73,1.15-4.13,2.42-8.22,3.44-12.38a38.78,38.78,0,0,0,1.38-8.45,42.94,42.94,0,0,0-1.09-8.52c-.7-3.74-1.16-7.61-2.52-11.11a66,66,0,0,0-13.17-20.91c-3.43-3.73-7.25-7.09-10.89-10.62,19.68,28.94,19.22,60,10.92,92.83l7.22-10.17c4.64,4.45,4,9,1.63,14-1,2.21-1.11,4.88-1.74,7.89,4.05-.66,7.49-1.12,10.88-1.81a8.38,8.38,0,0,1,7.49,1.55C259.25,312.72,262.49,314.63,266.06,317ZM199.41,129.76l.81-.21c-.17-2.36-.43-4.72-.5-7.08-.22-7.94-.82-15.9-.45-23.82a234.86,234.86,0,0,1,2.8-27.52c1.46-8.77,3.19-17.66,6.27-26,3.69-9.91,8.95-19.23,13.76-29.3-6.11,6-12.39,11.5-17.77,17.74A75.6,75.6,0,0,0,190,59.52c-.23.71-1.23,1.78-1.67,1.7-3.73-.73-8.28.51-10.46-4.24a15.31,15.31,0,0,0-2.53-3l-6.06-7.18c-1.63,3.55-3,6.5-4.36,9.46-1.74,3.81-3.49,7.41-8.15,8.69-3.71,1-7.21,2.82-11.16,4.42,2.91,2.78,5.75,5.12,8.11,7.86,1.83,2.12,5,3.3,4.72,7.12a74,74,0,0,0,.48,10.19c.1,1.5.34,3,.53,4.63l3-.61,13.75,37.73c4.6-15.14,2.1-29.1-7.26-42,3-1.37,5.1-4,8.69-2.6a72.38,72.38,0,0,0,8,2.21c1.93.49,2.66,1.57,3,3.63a152,152,0,0,0,3.62,15.83c.89,3.08,2.61,5.91,3.91,8.88C197.32,124.7,198.35,127.24,199.41,129.76ZM67.16,76.62l.53-.71a24.47,24.47,0,0,1,2.86.85,168.17,168.17,0,0,1,33,18.45c11.45,8.39,21.13,18.47,30,29.4,5.22,6.43,10.13,13.12,15.2,19.67,1.39,1.79,2.87,3.5,4.32,5.25l.83-.34c-.5-2.44-1-4.9-1.52-7.33-1.23-5.27-2.35-10.56-3.82-15.77-2.21-7.86-6.2-14.83-10.9-21.49a81,81,0,0,0-26.18-23.39A115.83,115.83,0,0,0,68.73,67.06c-1.61-.22-3.07-1.47-4.73-2.32-7.6,3.07-16.25-1.13-24.54,1.62l14.21,4.3-.28,1.19L38.75,69.79c1.25,3.86,2.36,7.13,3.36,10.43.73,2.39.9,4.51-.75,7-2,2.93-3,6.48-4.58,9.91,4,.22,7.59.58,11.19.56a6.93,6.93,0,0,1,5.57,2.67l7.26,8.29c1.54-4.45,2.73-7.6,3.71-10.81a8.67,8.67,0,0,1,4.84-5.59c3.07-1.49,6-3.22,9.1-4.89C75,83,69.29,81.59,67.16,76.62Zm148.75,55.1.45.68a7.8,7.8,0,0,0,1.84-.56c4.4-2.64,8.75-5.37,13.17-8,10.51-6.23,20.79-12.91,31.64-18.47,13-6.64,26.79-9,41.33-5.41,25.21,6.24,45.65,19.47,60.77,40.71,1.25,1.75,2.57,3.46,3.85,5.18.46-.73.48-1.24.25-1.61-1.48-2.43-3.12-4.77-4.51-7.25a170.12,170.12,0,0,0-17.11-25c-7.31-8.9-15.52-16.7-25.61-22.24-14.87-8.15-30.43-12.28-47.44-7.21-12.9,3.84-24.18,10.18-33.34,20.14-4,4.36-8.1,8.63-12,13.1C224.68,121,220.34,126.4,215.91,131.73Zm-24.7,158.08a26.83,26.83,0,0,0-3,0q-4.89.67-9.77,1.45c-3.21.51-3.86,0-3.75-3.37a25.53,25.53,0,0,1,.29-2.77c.92-6.38,1.79-12.77,2.79-19.13,1.19-7.58,2.35-15.18,3.78-22.72,1.39-7.34,3.14-14.62,4.69-21.93.38-1.81.59-3.66.88-5.49l-1.14-.64c-3.23,3.63-6.7,7.06-9.63,10.92-5.78,7.62-8.56,16.73-9.68,25.89-1.21,9.85-.46,19.94-.57,29.92,0,.56-.08,1.12-.14,1.78l-3-1c-.73,4.67-1.36,9.12-2.15,13.54a4.46,4.46,0,0,1-1.42,2.44c-3.68,3.07-7.45,6-11.46,9.24,3,1.62,5.69,3.2,8.49,4.62,3.27,1.66,5.93,3.51,6.7,7.63.66,3.52,2.36,6.84,3.6,10.27,2-1.91,4-3.62,5.8-5.57,3.05-3.38,6.22-6,11.31-5.37,3,.38,6.13-.19,9.64-.35-2-4.34-3.91-8.24-5.51-12.29a8.51,8.51,0,0,1-.34-4.83C188.56,298.06,189.91,294.12,191.22,289.81Zm-142-103.38a11.25,11.25,0,0,0-1.51,1.89c-1.71,3.49-3.31,7-5,10.52-1.27,2.59-2.76,4.75-5.91,5.69-4.65,1.38-9.12,3.37-14.3,5.33,3.23,3.12,6,5.77,8.77,8.48,3,3,5.57,5.91,5,10.82-.46,4.22.27,8.57.5,13.42,4.69-2.41,9-4.47,13.16-6.84a7.9,7.9,0,0,1,7-.74c4.55,1.53,9.2,2.78,14.53,4.36-.84-4.9-1.71-9.18-2.26-13.51-.29-2.24-.64-4.8.14-6.77,1.06-2.68,3.21-4.92,4.83-7.39s3-4.74,4.68-7.42c-5.63-1-10.72-1.74-15.77-2.72a6.07,6.07,0,0,1-3.34-1.75C56.24,195.57,52.92,191.17,49.22,186.43Zm224.46,43.65c2.46-1.64,4.66-2.92,6.65-4.47,3.91-3,7.8-5.44,13.16-3.74,3.06,1,6.36,1.19,9.84,1.8-1.35-5-2.64-9.62-3.78-14.24a5.19,5.19,0,0,1,.16-3.14c2-4.56,4.26-9,6.63-14-2.84,0-5.11,0-7.37,0-5.14-.13-10.42.13-13.48-5.37a11.5,11.5,0,0,0-2.34-2.4c-1.49-1.41-3-2.8-4.64-4.32l-5.24,13.9c-9.54-11.55-14.26-12.68-20.7-13.82-8.1-1.44-19.85,2-23.24,6.54,6.67,1.05,13.52,2,20.29,3.26a54.81,54.81,0,0,1,19.19,7.61l-10.39,5.58a68.32,68.32,0,0,0,6.47,5.31c4.65,2.94,7.29,6.87,7.53,12.47C272.55,223.88,273.2,226.71,273.68,230.08ZM147.4,168.34c-38.52-21.56-79.92-12.56-112.91,11.79C71.81,167.89,108.93,161.67,147.4,168.34Zm124.39-35.73.31-1c-3.83-2.05-7.5-4.58-11.54-6.06-7-2.58-13.41.48-19.3,3.92-8,4.68-14.79,10.9-19,19.32-1.8,3.55-2.82,7.49-4.19,11.26l.72.39c.72-.67,1.47-1.31,2.16-2,1.73-1.74,3.3-3.66,5.17-5.22a100.49,100.49,0,0,1,23.08-14.5C256.33,135.46,263.11,130.5,271.79,132.61ZM133.38,151l1-.8c-2.8-5.62-5.26-11.44-8.54-16.77a26.48,26.48,0,0,0-7.57-7.36c-7-4.86-15.16-4.6-23.23-4.12-2.5.15-5,.46-7.48.69l-.25,1C103.28,131.66,120.25,138.12,133.38,151Zm114-119.38c-3.89,6-8.9,9-16.39,7.93,4.7,5.93,4.92,12,1.88,19,7.09-3.23,12.77-1.84,18.16,3-.74-7.47,2.5-12.52,8.5-16.38C252.34,43.15,248.44,38.89,247.36,31.59ZM135,247.69l1,.21c2.57-5,5.36-9.81,7.67-14.88,5.26-11.53,14.93-18,25.81-23.26.53-.25,1-.54,2.34-1.23A43.88,43.88,0,0,0,151,211.9c-5.29,2.19-9.77,5.26-11.49,11.1a97,97,0,0,0-2.72,10.56C136,238.23,135.56,243,135,247.69Zm15.25-66.12a42.83,42.83,0,0,0-22.35-6.76,21.54,21.54,0,0,0-15.81,5.72c-4.32,4-8.57,8.05-12.85,12.08A115.29,115.29,0,0,1,150.23,181.57Zm54.63,76c7.2-10.37,8.84-21,5.14-32.25-1.26-3.81-2.65-7.84-5.74-11C203.61,228.67,202.41,242.82,204.86,257.58Zm25.39-172.3c-5,1.06-9,2.69-11.93,5.94-6.68,7.51-5.25,16.65-4.67,25.58C220.26,107,226.89,97.36,230.25,85.28Z" transform="translate(-22.32 -14.26)" fill="000" fill-opacity="0"/>
			      <path d="M156.59,193.47c-6.85,3.48-13.8,6.8-20.54,10.48-12.57,6.85-24.38,14.76-34.66,24.88a127.89,127.89,0,0,0-20.52,25.53q-8.79,14.74-17.42,29.59c-1.75,3-3.35,6.07-5.32,9.66,4.47,0,8.76.85,12.44-.27,2.95-.9,5.15-4.21,7.71-6.42,3-2.58,6-5.13,9.27-7.93,1.7,6.63,3.43,12.71,4.78,18.88a9,9,0,0,0,4.3,6q7.69,4.83,15.38,9.67a7,7,0,0,1,.92,1c-2.84,2-5.6,4-8.43,5.94s-5.7,3.35-8.15,5.49a12,12,0,0,0-3.43,5.51c-1.72,6.11-3,12.33-4.58,18.94-3.29-2.61-6.39-5-9.45-7.51-2.55-2.06-5-4.3-7.61-6.22a5.73,5.73,0,0,0-3.45-.74c-5.87.32-11.74.8-17.6,1.2-.81.06-1.63,0-2.73,0,1.62-4.51,3.13-8.8,4.69-13.07,1.09-3,3.13-5.9,3.14-8.86s-2.09-5.63-3.2-8.47c-1.69-4.33-3.34-8.67-5.14-13.37a56.79,56.79,0,0,1,6,0c2.66.3,3.53-.56,3.65-3.35a103.18,103.18,0,0,1,1.71-16.57,94.72,94.72,0,0,1,10.29-27.8,99.83,99.83,0,0,1,32.19-34.49c15.68-10.24,32.88-15.82,51.4-17.66.72-.07,1.42-.25,2.14-.34s1.41-.12,2.12-.18Z" transform="translate(-22.32 -14.26)"/>
			      <path d="M383.49,224.57c-1.93-3.78-3.49-6.85-5.05-9.91-10-19.56-24.55-34.47-45.05-42.95a179.43,179.43,0,0,0-21.89-7.37c-2.85-.77-6.21.3-9.33.59-1,.09-1.92.38-3.32.66l.78-3.9c-27-5.9-52.17-1-76.71,11.5,3.34-3.45,6.42-7.23,10.08-10.31,15.78-13.24,34.41-18.81,54.7-19.58,4.2-.16,8.42,0,13.4,0l-8.76-14.85c4-.56,7.82-1.68,11.6-1.52,7.43.31,11.11-4.45,14.81-9.59,1.7-2.36,3.69-4.51,5.78-7,2.66,5.65,5,10.84,7.56,15.92a7,7,0,0,0,3,3.06c5.13,2.38,10.37,4.49,16.08,6.92-2.09,2.21-3.89,4.22-5.8,6.12-2.4,2.38-4.8,4.77-7.36,7-1.79,1.54-1.31,2.24.42,3.4,6.55,4.39,13.2,8.69,19.42,13.53a60.8,60.8,0,0,1,13.9,15.85c4.11,6.52,7.85,13.16,9.58,20.74C382.9,209.66,384.68,216.53,383.49,224.57Z" transform="translate(-22.32 -14.26)"/>
			      <path d="M266.06,317c-3.57-2.4-6.81-4.31-9.73-6.63a8.38,8.38,0,0,0-7.49-1.55c-3.39.69-6.83,1.15-10.88,1.81.63-3,.69-5.69,1.74-7.89,2.36-5,3-9.52-1.63-14L230.85,299c8.3-32.78,8.76-63.89-10.92-92.83,3.64,3.53,7.46,6.9,10.89,10.62A66,66,0,0,1,244,237.68c1.36,3.51,1.82,7.38,2.52,11.11a42.94,42.94,0,0,1,1.09,8.52,38.78,38.78,0,0,1-1.38,8.45c-1,4.16-2.29,8.26-3.44,12.38-.16.57-.27,1.16-.41,1.73,5.94,2,9.79-.81,13.33-4.94a58.71,58.71,0,0,1,5.95-5.34l4.45,11.74c1.22-4.22-3.45-27.74-11-45.22-6.25-14.42-14.61-27.55-26.31-38.35l.52-.68c4,2.34,8.19,4.47,12,7.06a68.52,68.52,0,0,1,20.27,21.15,92.51,92.51,0,0,1,7.35,15.16c4.48,11.62,6.65,23.81,8.87,36,1.85,10.24,2.24,20.55,3.67,30.77,1.88,13.48,1.51,27,.86,40.43-.46,9.51-2.25,19-3.62,28.42a44.5,44.5,0,0,1-1.83,6.51l-6.41-81.19-1.38-.11c-.66,2.39-1.46,4.76-1.93,7.19C266.66,311.11,266.47,313.76,266.06,317Z" transform="translate(-22.32 -14.26)"/>
			      <path d="M199.41,129.76c-1.06-2.52-2.09-5.05-3.19-7.56-1.3-3-3-5.8-3.91-8.88a152,152,0,0,1-3.62-15.83c-.36-2.06-1.1-3.14-3-3.63a72.38,72.38,0,0,1-8-2.21c-3.59-1.37-5.71,1.23-8.69,2.6,9.35,12.88,11.86,26.84,7.26,42L162.47,98.5l-3,.61c-.19-1.63-.43-3.12-.53-4.63a74,74,0,0,1-.48-10.19c.28-3.82-2.9-5-4.72-7.12-2.37-2.75-5.2-5.09-8.11-7.86,4-1.6,7.45-3.39,11.16-4.42,4.67-1.29,6.41-4.89,8.15-8.69,1.35-3,2.72-5.91,4.36-9.46l6.06,7.18a15.31,15.31,0,0,1,2.53,3c2.18,4.75,6.73,3.51,10.46,4.24.45.09,1.44-1,1.67-1.7a75.6,75.6,0,0,1,14.34-25.89c5.38-6.24,11.66-11.71,17.77-17.74C217.29,26,212,35.28,208.34,45.18c-3.09,8.29-4.81,17.18-6.27,26a234.86,234.86,0,0,0-2.8,27.52c-.37,7.91.22,15.88.45,23.82.07,2.36.33,4.72.5,7.08Z" transform="translate(-22.32 -14.26)"/>
			      <path d="M67.16,76.62c2.13,5,7.86,6.42,11.29,10.7-3.07,1.66-6,3.39-9.1,4.89a8.67,8.67,0,0,0-4.84,5.59c-1,3.21-2.17,6.36-3.71,10.81l-7.26-8.29A6.93,6.93,0,0,0,48,97.65c-3.6,0-7.21-.34-11.19-.56,1.53-3.44,2.6-7,4.58-9.91,1.65-2.44,1.48-4.56.75-7-1-3.3-2.11-6.57-3.36-10.43l14.63,2.06.28-1.19-14.21-4.3c8.29-2.75,16.94,1.45,24.54-1.62,1.66.84,3.13,2.1,4.73,2.32a115.83,115.83,0,0,1,42.76,14.16,81,81,0,0,1,26.18,23.39c4.69,6.66,8.69,13.63,10.9,21.49,1.46,5.2,2.59,10.5,3.82,15.77.57,2.43,1,4.89,1.52,7.33l-.83.34c-1.44-1.75-2.93-3.46-4.32-5.25-5.08-6.55-10-13.24-15.2-19.67-8.88-10.93-18.56-21-30-29.4a168.17,168.17,0,0,0-33-18.45,24.47,24.47,0,0,0-2.86-.85Z" transform="translate(-22.32 -14.26)"/>
			      <path d="M215.91,131.73c4.43-5.33,8.77-10.73,13.31-16,3.88-4.47,8-8.75,12-13.1,9.15-10,20.44-16.3,33.34-20.14,17-5.06,32.57-.94,47.44,7.21,10.09,5.53,18.3,13.34,25.61,22.24a170.12,170.12,0,0,1,17.11,25c1.39,2.48,3,4.82,4.51,7.25.22.36.21.87-.25,1.61-1.29-1.73-2.61-3.43-3.85-5.18C350,119.45,329.55,106.21,304.34,100,289.8,96.38,276,98.75,263,105.39c-10.85,5.56-21.13,12.25-31.64,18.47-4.42,2.62-8.76,5.35-13.17,8a7.8,7.8,0,0,1-1.84.56Z" transform="translate(-22.32 -14.26)"/>
			      <path d="M191.22,289.81c-1.31,4.31-2.66,8.25-3.63,12.28a8.51,8.51,0,0,0,.34,4.83c1.59,4,3.53,8,5.51,12.29-3.52.16-6.64.73-9.64.35-5.1-.65-8.26,2-11.31,5.37-1.76,2-3.79,3.66-5.8,5.57-1.25-3.43-2.95-6.76-3.6-10.27-.77-4.12-3.42-6-6.7-7.63-2.8-1.42-5.53-3-8.49-4.62,4-3.21,7.78-6.17,11.46-9.24a4.46,4.46,0,0,0,1.42-2.44c.79-4.42,1.43-8.87,2.15-13.54l3,1c.05-.66.13-1.22.14-1.78.11-10-.64-20.08.57-29.92,1.13-9.16,3.9-18.27,9.68-25.89,2.93-3.85,6.4-7.29,9.63-10.92l1.14.64c-.29,1.83-.5,3.68-.88,5.49-1.55,7.31-3.29,14.59-4.69,21.93-1.43,7.54-2.59,15.13-3.78,22.72-1,6.37-1.87,12.75-2.79,19.13a25.53,25.53,0,0,0-.29,2.77c-.11,3.34.54,3.88,3.75,3.37s6.51-1,9.77-1.45A26.83,26.83,0,0,1,191.22,289.81Z" transform="translate(-22.32 -14.26)"/>
			      <path d="M49.22,186.43c3.7,4.74,7,9.14,10.53,13.37a6.07,6.07,0,0,0,3.34,1.75c5.05,1,10.14,1.77,15.77,2.72-1.69,2.68-3.14,5.08-4.68,7.42s-3.77,4.71-4.83,7.39c-.78,2-.43,4.53-.14,6.77.56,4.32,1.42,8.61,2.26,13.51-5.33-1.58-10-2.83-14.53-4.36a7.9,7.9,0,0,0-7,.74c-4.14,2.37-8.47,4.42-13.16,6.84-.23-4.85-1-9.2-.5-13.42.53-4.91-2-7.85-5-10.82-2.74-2.71-5.54-5.36-8.77-8.48,5.18-2,9.65-4,14.3-5.33,3.16-.94,4.65-3.1,5.91-5.69,1.71-3.49,3.31-7,5-10.52A11.25,11.25,0,0,1,49.22,186.43Z" transform="translate(-22.32 -14.26)"/>
			      <path d="M273.68,230.08c-.49-3.38-1.13-6.2-1.25-9-.24-5.6-2.88-9.52-7.53-12.47a68.32,68.32,0,0,1-6.47-5.31l10.39-5.58a54.81,54.81,0,0,0-19.19-7.61c-6.78-1.3-13.63-2.2-20.29-3.26,3.38-4.55,15.14-8,23.24-6.54,6.45,1.14,11.16,2.27,20.7,13.82l5.24-13.9c1.64,1.52,3.15,2.91,4.64,4.32a11.5,11.5,0,0,1,2.34,2.4c3.05,5.5,8.34,5.24,13.48,5.37,2.26.06,4.53,0,7.37,0-2.37,5-4.58,9.44-6.63,14a5.19,5.19,0,0,0-.16,3.14c1.14,4.63,2.43,9.22,3.78,14.24-3.49-.61-6.78-.83-9.84-1.8-5.36-1.7-9.25.71-13.16,3.74C278.34,227.16,276.14,228.44,273.68,230.08Z" transform="translate(-22.32 -14.26)"/>
			      <path d="M147.4,168.34c-38.46-6.67-75.59-.45-112.91,11.79C67.48,155.78,108.88,146.78,147.4,168.34Z" transform="translate(-22.32 -14.26)"/>
			      <path d="M271.79,132.61c-8.68-2.11-15.46,2.85-22.64,6.1a100.49,100.49,0,0,0-23.08,14.5c-1.87,1.56-3.44,3.49-5.17,5.22-.69.7-1.44,1.34-2.16,2l-.72-.39c1.37-3.76,2.39-7.71,4.19-11.26,4.26-8.41,11-14.63,19-19.32,5.9-3.44,12.26-6.49,19.3-3.92,4,1.48,7.71,4,11.54,6.06Z" transform="translate(-22.32 -14.26)"/>
			      <path d="M133.38,151c-13.14-12.85-30.11-19.31-46.12-27.37l.25-1c2.49-.24,5-.54,7.48-.69,8.07-.48,16.2-.74,23.23,4.12a26.48,26.48,0,0,1,7.57,7.36c3.28,5.33,5.74,11.15,8.54,16.77Z" transform="translate(-22.32 -14.26)"/>
			      <path d="M247.36,31.59c1.08,7.3,5,11.56,12.15,13.53-6,3.87-9.24,8.91-8.5,16.38-5.39-4.79-11.07-6.18-18.16-3,3-7.07,2.83-13.1-1.88-19C238.46,40.61,243.47,37.59,247.36,31.59Z" transform="translate(-22.32 -14.26)"/>
			      <path d="M135,247.69c.58-4.72,1-9.46,1.8-14.14A97,97,0,0,1,139.51,223c1.72-5.84,6.2-8.9,11.49-11.1a43.88,43.88,0,0,1,20.77-3.37c-1.3.69-1.81,1-2.34,1.23C158.56,215,148.88,221.49,143.62,233c-2.31,5.07-5.1,9.92-7.67,14.88Z" transform="translate(-22.32 -14.26)"/>
			      <path d="M150.23,181.57a115.29,115.29,0,0,0-51,11c4.28-4,8.52-8.1,12.85-12.08a21.54,21.54,0,0,1,15.81-5.72A42.83,42.83,0,0,1,150.23,181.57Z" transform="translate(-22.32 -14.26)"/>
			      <path d="M204.86,257.58c-2.45-14.76-1.25-28.91-.6-43.21,3.09,3.12,4.48,7.16,5.74,11C213.7,236.55,212.06,247.21,204.86,257.58Z" transform="translate(-22.32 -14.26)"/>
			      <path d="M230.25,85.28c-3.36,12.07-10,21.75-16.6,31.53-.58-8.94-2-18.08,4.67-25.58C221.21,88,225.28,86.34,230.25,85.28Z" transform="translate(-22.32 -14.26)"/>
			    </g>
			  </g>
			</symbol>

			<symbol id="Pumpkin" data-name="Layer 1" xmlns="http://www.w3.org/2000/svg" viewBox="0 0 373.21 367.28">
			  <title>Pumpkin Symbol</title>
			  <g id="lEoREz.tif">
			    <g>
			      <path d="M191.71,384.88H14.58V17.6H387.79V230.93c-1.42-7.8-2.44-15.69-4.33-23.38-9.51-38.8-33.54-66.82-66.2-88.32C293,103.29,265.93,95.1,237.93,88.85,215.28,83.79,203.32,60,211.67,38.37c2.27-5.9,6.4-9.12,12.85-8.19s10,5.32,10.61,11.21c.27,2.72-1.85,6.56-4.11,8.37-1.6,1.29-5.39.49-7.9-.31-1.05-.34-2.13-3.34-1.73-4.7s2.42-2.9,4-3.4c1.27-.39,3,.67,5.7,1.41-3.78-5-7.21-5-10.44-1.8-3.45,3.39-3.93,7.94.19,10.62,3.09,2,8.28,3.61,11.2,2.34a17,17,0,0,0,8.4-9.74c2.73-9.29-3-19.1-12-23-10.76-4.66-23.82-.54-28.66,11-3.32,7.94-3.12,17.29-5,25.89-1.17,5.23-2.4,10.88-5.31,15.19-7.18,10.61-18.34,15-30.6,17.45-37.52,7.49-71.14,22.91-99.07,49.63C10.2,187.72,2.89,255.63,42.05,309.82c22.61,31.29,53.71,51.06,90,63,9.38,3.07,19.07,5.21,28.61,7.78-30.13-10.19-55.83-27-74.61-52.26-39.86-53.67-43.93-111-11.34-169.39,18.64-33.42,47.71-55.45,84.42-66.88,4-1.24,8.32-1.27,12.5-1.86-30.61,17.41-46,40.09-57.9,67.57-6,13.71-11.26,27.74-16.25,41.84C95.23,206,94.44,213,92.66,221.12l86.62,2.72c-6.72-8.25-12.24-14.34-16.9-21-2.15-3.09-4-7.47-3.63-11,1.26-13,3-26,5.5-38.73,3.82-19.25,8.51-38.37,19.81-54.92,2.15-3.15,5.65-6.76,9.07-7.44,17.88-3.59,23.36-.55,31.69,16,1.85,3.67,4,7.35,4.92,11.29,4.93,20.66,9.41,41.42,14.25,62.09,2.49,10.63-.39,19-8.5,26.4-5,4.54-8.53,10.59-12.88,16.16,1.55.68,2,1,2.41,1q38.44-.79,76.89-1.65c5.35-.12,5.69-3.58,4.7-7.53-2.64-10.53-5.39-21-8.16-31.53-6.17-23.45-16-45-31.71-63.79-10-12-22.22-21.11-37.13-28.36,44.11-3.21,102.46,51.89,116.15,108.68,9.38,38.92,4.17,76-15.74,110.69s-49.43,57.34-87.29,69.65c25.31-4.22,49.09-12.59,70.8-26.18,37-23.15,63.42-54.15,71.51-98.39.95-5.19,1.82-10.39,2.73-15.58V384.88H212c3.91-1.19,7.85-2.3,11.73-3.59,30.44-10.09,48.75-32.8,62.47-60.22,2.1-4.2,3.79-8.61,5.76-13.13l-14.41-5.69.73-2.27,24.6,5.16c.35-5.95.83-11.17.94-16.4.35-16.17.29-16.28,16.51-17.18,4.16-.23,5.65-1.62,4.85-5.79-1.7-8.83-3.19-17.71-4.88-27.18-2.29,1.51-4.93,3.47-7.77,5.05a34.84,34.84,0,0,1-5.75,2c-.62-2-1.57-3.93-1.79-6A46.5,46.5,0,0,1,305,231c.47-5.9-2.13-7.46-7.8-7-14,1.18-28,2.18-42,2.51-6.29.15-8.8,2-8.34,8.4a150.3,150.3,0,0,1,0,17.42c-.24,5.39-.94,10.76-1.59,17.87l-17.82-18.82-21.29,29.67-22-31.44-26.09,27.45c-.48-15.71-1.09-29.37-1.22-43,0-5.25-1.75-7.22-7.16-7.27-11.36-.1-22.71-.89-34.06-1.33-5.2-.2-12.37-2.32-15.08.23s-1.46,9.88-1.76,15.12c-.39,6.82-4.27,9.22-10.7,6.42-3.22-1.4-6.39-2.93-9.58-4.4l-1.65.74c7,9.54,5.38,19.09.2,28.88,2.79.35,4.42.59,6.05.74,14.11,1.3,15.18,2.38,17,16.2.61,4.62,1.6,9.19,2.45,14l23.16-7.08,1,2.66c-3.6,1.57-7.08,3.53-10.82,4.6-4.19,1.2-5,3.37-3.22,6.95,3.73,7.59,7,15.45,11.38,22.69,13.42,22.38,30.84,40.29,56.59,48.34C184.34,382.68,188,383.77,191.71,384.88Z" transform="translate(-14.58 -17.6)" fill="000" fill-opacity="0"/>
			      <path d="M387.79,239.64c-.91,5.19-1.78,10.4-2.73,15.58-8.09,44.24-34.53,75.24-71.51,98.39-21.71,13.59-45.5,22-70.8,26.18,37.85-12.31,67.44-35.07,87.29-69.65s25.12-71.77,15.74-110.69c-13.69-56.8-72-111.89-116.15-108.68,14.9,7.24,27.09,16.33,37.13,28.36,15.69,18.78,25.54,40.34,31.71,63.79,2.76,10.5,5.52,21,8.16,31.53,1,4,.65,7.42-4.7,7.53q-38.44.85-76.89,1.65c-.43,0-.86-.36-2.41-1C227,217,230.54,211,235.5,206.43c8.11-7.43,11-15.77,8.5-26.4-4.84-20.68-9.33-41.44-14.25-62.09-.94-3.93-3.07-7.62-4.92-11.29-8.33-16.53-13.81-19.57-31.69-16-3.42.69-6.91,4.29-9.07,7.44-11.31,16.54-16,35.67-19.81,54.92-2.54,12.78-4.24,25.76-5.5,38.73-.35,3.57,1.47,8,3.63,11,4.66,6.69,10.18,12.78,16.9,21l-86.62-2.72c1.77-8.13,2.57-15.1,4.85-21.54,5-14.1,10.28-28.13,16.25-41.84,11.95-27.48,27.3-50.17,57.9-67.57-4.17.59-8.52.63-12.5,1.86-36.71,11.42-65.78,33.46-84.42,66.88C42.15,217.35,46.23,274.63,86.09,328.3c18.78,25.29,44.47,42.07,74.61,52.26-9.55-2.57-19.23-4.7-28.61-7.78-36.31-11.91-67.41-31.68-90-63C2.89,255.63,10.2,187.72,59.72,140.36c27.93-26.72,61.55-42.14,99.07-49.63,12.26-2.45,23.42-6.83,30.6-17.45,2.91-4.31,4.14-10,5.31-15.19,1.92-8.6,1.73-18,5-25.89,4.84-11.57,17.9-15.69,28.66-11,9,3.91,14.77,13.72,12,23a17,17,0,0,1-8.4,9.74c-2.93,1.27-8.11-.33-11.2-2.34-4.13-2.68-3.65-7.23-.19-10.62,3.23-3.17,6.67-3.19,10.44,1.8-2.71-.74-4.43-1.8-5.7-1.41-1.6.49-3.6,1.95-4,3.4s.68,4.37,1.73,4.7c2.51.8,6.3,1.6,7.9.31,2.26-1.81,4.38-5.65,4.11-8.37-.59-5.89-4.28-10.29-10.61-11.21s-10.58,2.29-12.85,8.19c-8.35,21.66,3.61,45.42,26.26,50.48,28,6.25,55.12,14.44,79.33,30.39,32.65,21.5,56.69,49.52,66.2,88.32,1.88,7.68,2.91,15.58,4.33,23.38Z" transform="translate(-14.58 -17.6)"/>
			      <path d="M191.71,384.88c-3.68-1.11-7.37-2.2-11-3.35-25.74-8.05-43.17-26-56.59-48.34-4.34-7.24-7.64-15.09-11.38-22.69-1.76-3.58-1-5.75,3.22-6.95,3.74-1.07,7.22-3,10.82-4.6l-1-2.66-23.16,7.08c-.85-4.77-1.84-9.34-2.45-14-1.83-13.83-2.9-14.91-17-16.2-1.63-.15-3.26-.4-6.05-.74,5.18-9.79,6.78-19.34-.2-28.88l1.65-.74c3.19,1.47,6.36,3,9.58,4.4,6.43,2.8,10.31.4,10.7-6.42.3-5.24-1.07-12.45,1.76-15.12s9.88-.43,15.08-.23c11.36.44,22.71,1.23,34.06,1.33,5.41,0,7.11,2,7.16,7.27.13,13.66.74,27.32,1.22,43l26.09-27.45,22,31.44,21.29-29.67,17.82,18.82c.66-7.11,1.35-12.48,1.59-17.87a150.3,150.3,0,0,0,0-17.42c-.46-6.39,2.05-8.25,8.34-8.4,14-.33,28-1.33,42-2.51,5.67-.48,8.27,1.08,7.8,7a46.5,46.5,0,0,0,.06,8.7c.22,2,1.17,4,1.79,6a34.84,34.84,0,0,0,5.75-2c2.84-1.58,5.48-3.54,7.77-5.05,1.69,9.47,3.17,18.34,4.88,27.18.8,4.17-.69,5.56-4.85,5.79-16.21.9-16.15,1-16.51,17.18-.11,5.23-.59,10.45-.94,16.4L278.33,300l-.73,2.27L292,307.94c-2,4.52-3.66,8.93-5.76,13.13-13.72,27.42-32,50.13-62.47,60.22-3.88,1.29-7.82,2.4-11.73,3.59h-5.81c5.72-6.05,12.95-11.29,16.81-18.35,5.49-10.06,8.55-21.45,12.56-32.3,1.06-2.87,1.77-5.87,2.75-9.21l26.4,10.28,1.08-2.51c-9.74-4.54-19.55-8.92-29.17-13.7-4.33-2.15-7.06-1.1-9.85,2.47-5.44,7-11.18,13.68-18.42,22.48-9.55-10.3-18.31-20-27.37-29.31-1.59-1.64-5.11-3.5-6.59-2.8-10.13,4.74-20,10.13-29.89,15.31l1.28,2.62,18.5-8.2c3.4,11,6.12,21.28,9.78,31.22,4.71,12.81,10.57,25,23.42,32Z" transform="translate(-14.58 -17.6)"/>
			      <path d="M197.52,384.88c-12.85-7-18.71-19.22-23.42-32-3.66-9.94-6.37-20.22-9.78-31.22l-18.5,8.2-1.28-2.62c9.93-5.18,19.76-10.57,29.89-15.31,1.48-.69,5,1.17,6.59,2.8,9.06,9.36,17.82,19,27.37,29.31,7.24-8.8,13-15.53,18.42-22.48,2.8-3.57,5.53-4.62,9.85-2.47,9.61,4.79,19.43,9.16,29.17,13.7l-1.08,2.51L238.36,325c-1,3.34-1.69,6.34-2.75,9.21-4,10.86-7.07,22.25-12.56,32.3-3.86,7.07-11.09,12.3-16.81,18.35Z" transform="translate(-14.58 -17.6)" fill="000" fill-opacity="0"/>
			    </g>
			  </g>
			</symbol>


			<symbol id="Turkey" data-name="Layer 1" xmlns="http://www.w3.org/2000/svg" viewBox="0 0 379.98 393.34">
			  <title>Turkey Symbol</title>
			  <g id="lK6JZj.tif">
			    <g>
			      <path d="M391.33,397.34h-380V4h380Zm-219.6-25.14c-3.78,4-7.72,8.11-11.49,12.33a25.62,25.62,0,0,0-4,5.7c-1.57,3.22.08,5.47,3.55,4.8a27.07,27.07,0,0,0,7.51-2.58c5-2.67,9.88-5.58,14.7-8.57a58.36,58.36,0,0,1,29.09-8.6c5.86-.24,11.7-1.28,17.53-2.11,2.49-.35,4.41-1.7,4.81-4.4s-1.18-4.33-3.3-5.25c-3.24-1.41-6.68-2.36-10-3.7-2.21-.91-4.86-1.65-6.32-3.33-6.14-7.08-9.88-15.29-10-24.86-.06-5.36,7.47-10.08,12.34-7.75,15.3,7.31,31.42,9.49,48.14,7.53,5.37-.63,10.69-1.76,15.95-2.64,3.08,4.34,3.75,8.61.93,13.4a91.46,91.46,0,0,0-5.2,11.19c-1.32,3.15-3.53,5.07-6.53,6.73a15.67,15.67,0,0,0-5.88,5.93c-1.79,3.29.08,6.2,3.81,6.78a25.35,25.35,0,0,0,5.65.22,79.22,79.22,0,0,1,25.14,2.21,131.83,131.83,0,0,0,18.65,3.67c7.71.79,15.52.77,23.29.9a4.51,4.51,0,0,0,4.88-3.74c.5-2.66-1.5-3.71-3.47-4.64-1.7-.8-3.43-1.53-5.14-2.29,6.46-.7,12.68-.61,18.9-.75a30.39,30.39,0,0,0,7.55-1c2.51-.71,3.11-2.81,1.15-4.55-1.75-1.55-4-3.13-6.22-3.46-7-1.05-14.11-1.58-21.19-2.2-2.15-.19-4.33,0-7.15,0,3.51-2.85,8.22-3.64,8.86-8.5-3.23-2.86-6.9-2.49-10.5-1.58-4.53,1.15-9,2.56-13.46,3.9-9.12,2.72-18.23,5.47-27.88,8.37,3.1-7.2,5.87-14,8.95-20.56.55-1.19,2.33-1.83,3.57-2.68,1.7-1.16,3.76-2,5.09-3.45a18.05,18.05,0,0,0,4.42-13.6c-.07-1.23.42-3.17,1.29-3.65,3.64-2,7.36-4.32,11.34-5.18,14.86-3.2,27.9-9.57,38.72-20.35.63-.62,1.32-1.17,2.52-2.22-.68,3.86-1.43,6.9-1.67,10-.11,1.47.74,3,1.16,4.54,1.63-.69,3.83-.93,4.8-2.14,9.29-11.66,17-24.22,20.9-38.79,5.37-19.84,1.36-36.93-14.29-50.88a64.88,64.88,0,0,1-15.95-20.78c-2-4.31-5.1-8-9.52-10a15.86,15.86,0,0,1-8.27-8.25c-1.78-3.83-3.82-7.55-5.47-11.43a45.8,45.8,0,0,1-4-19.8,26.61,26.61,0,0,1,9.57-19.66c-.72,6.09-1.79,12.07-2.77,18.07-1.15,7.09-1.63,14.18,1,21.09,2.45,6.49,8.16,7.58,12.06,1.88a31,31,0,0,0,4.6-11.57c1.65-8.89-.38-17.7-1.58-26.52-.84-6.15-1.32-12.36-1.56-18.56-.13-3.49,2-5.81,4.62-5.26,8.36,1.76,17.9-1,24.54,6.85,9.67-15.48,4.78-33.45-11-41.65-2.14-1.11-4.25-2.28-6.1-3.27.45-2.21,1.2-3.95,1.09-5.62C363.81,45,363,34.11,361.87,23.27a37.82,37.82,0,0,0-2.78-9.92c-2.46-6.13-7.59-7-12.39-2.42-.72.69-1.33,1.49-2,2.2-.38.37-1,1-1.28.89-3.79-1.36-8.42-1.9-11.13-4.45C326,3.71,322.49,3.17,316.07,9a6.56,6.56,0,0,1-3.67,1.91c-10.83.34-19.8,5.3-27.73,11.89-11,9.17-15.31,21.21-11.47,35.28,1.13,4.12.73,7.33-1.41,10.65-5.26,8.16-4.61,16.32-.36,24.69a74.69,74.69,0,0,0,24.29,27.91A16.15,16.15,0,0,1,303,132.07c.67,3.6,1.83,7.12,2.52,10.72,1.49,7.71,2.82,15.45,4.36,24a22.3,22.3,0,0,0-19.23.86,2.9,2.9,0,0,1-2.23-.07c-4-1.88-7.95-3.88-12.12-5.94,1.52-2.19,2.85-4.08,4.15-6a56,56,0,0,0,4.06-6.11c2-4,4.29-8.09,5.53-12.4,1.66-5.74-1.7-9.53-7.69-9.58-1.93,0-3.86,0-5.92,0,.13-1,.16-1.42.24-1.85,2.06-10.54-2.32-16-13-16.13-2,0-4,0-6.2,0,.29-1.23.5-2.19.73-3.14,1.16-4.75,2.52-9.47,3.43-14.27,1.24-6.51-2.93-10.41-9.35-8.94a46.79,46.79,0,0,0-5.71,1.83c-2.22.82-4.4,1.76-6.91,2.77.09-1.4.16-2.38.2-3.37.23-5.22.88-10.46.6-15.65-.53-9.51-8.41-14.48-17.25-10.94a42.21,42.21,0,0,0-8.75,5.39c-2.94,2.14-5.63,4.61-8.77,7.22-.48-3.17-.79-5.92-1.34-8.63-1-4.89-1.61-9.95-3.3-14.6-2.92-8-10.55-9.63-16.76-3.77a30.61,30.61,0,0,0-5.66,7.36c-2.73,4.94-5,10.12-7.61,15.42l-3.53-7.4c-3-6.38-6.59-12.38-12.1-17-4.62-3.87-9.82-6-16-5.36-15,1.64-25.1,15.22-23,30.88.31,2.23.64,4.46,1.06,7.38-2.33-1.13-3.89-1.91-5.47-2.66-8-3.82-16.35-6.48-25.44-5.37-7.17.88-9.75,5.53-6.7,12.1.8,1.72,1.74,3.38,2.84,5.51-1.89-.48-3.16-.82-4.44-1.12C67.88,80.84,58.52,83.12,50.53,90c-11,9.55-10.84,25.85.45,35,8,6.43,16.1,12.66,24.52,18.46,21.19,14.61,41.93,29.75,60.36,47.83.87.85,1.66,1.78,2.49,2.67a12.6,12.6,0,0,1-4.82-1.77c-14.21-7.64-28.31-15.49-42.65-22.85C77,162.23,62.4,156.7,46.78,154.56c-9.39-1.28-18.22.07-25.87,6.15-11.86,9.44-10.63,25.63,2.56,33a31.24,31.24,0,0,0,7.67,3.19c7.12,1.76,14.29,3.42,21.51,4.7,26.52,4.68,53,9.66,78.62,18.12,1.2.4,2.39.85,3.58,1.28a19.15,19.15,0,0,1-6,.33c-17.46-.57-34.93-1.85-52.36-1.42-12.48.31-25,2.48-37.33,4.63A35.25,35.25,0,0,0,18,237,20.53,20.53,0,0,0,29.6,270.65a48.8,48.8,0,0,0,24.68-1.76C69.76,264,85.21,259,100.69,254.06c5.16-1.64,10.38-3.08,16.16-4.78-.55,1-.8,1.49-1,1.94-1.82,3.52-1.16,5.41,2.64,6.55a44.64,44.64,0,0,0,7.2,1.33c2.88.37,5.79.54,9,.83-4.1,3.09-8.05,5.63-11.43,8.79-1.49,1.4-2.74,4.24-2.36,6.07.31,1.47,3.1,3,5,3.44,6.62,1.44,13.34,2.41,20,3.55l2.77.46.14.82c-3.86,1.6-7.77,3.1-11.56,4.86-1.17.54-3,2.2-2.82,2.63.63,1.48,1.76,3.2,3.14,3.8a25.08,25.08,0,0,0,8.05,2c10.29.73,20.6,1.25,30.91,1.66,2.12.08,2.94.64,3.66,2.72a38.14,38.14,0,0,0,4.64,9.4c1.59,2.27,2.71,4.15,1.65,6.95-1,2.63-.24,4.78,2.4,6.14a16.76,16.76,0,0,1,2.1,1.52c-2.68,8.23-1.44,16.31.3,24.69a49.71,49.71,0,0,0-24.35-.31c-2,.51-3.84,2-5.82,3.12,3.36,5.14,8.58,4.19,12.88,6-6.69,2.18-13.16,4.16-19.54,6.42a18,18,0,0,0-6.3,3.56c-1.35,1.28-1.8,3.51-2.66,5.32,1.79.84,3.52,2.07,5.4,2.41a15.57,15.57,0,0,0,5.61-.53C161.78,374.43,167,373.25,171.73,372.21Z" transform="translate(-11.35 -4.01)" fill="000" fill-opacity="0"/>
			      <path d="M171.73,372.21c-4.77,1-10,2.22-15.17,3.28A15.57,15.57,0,0,1,151,376c-1.88-.34-3.61-1.57-5.4-2.41.85-1.81,1.3-4,2.66-5.32a18,18,0,0,1,6.3-3.56c6.38-2.26,12.85-4.25,19.54-6.42-4.31-1.82-9.52-.87-12.88-6,2-1.09,3.77-2.62,5.82-3.12a49.71,49.71,0,0,1,24.35.31c-1.75-8.38-3-16.46-.3-24.69a16.76,16.76,0,0,0-2.1-1.52c-2.63-1.36-3.39-3.51-2.4-6.14,1.06-2.8-.05-4.68-1.65-6.95a38.14,38.14,0,0,1-4.64-9.4c-.72-2.08-1.53-2.64-3.66-2.72-10.31-.41-20.62-.93-30.91-1.66a25.08,25.08,0,0,1-8.05-2c-1.39-.6-2.52-2.32-3.14-3.8-.18-.42,1.65-2.08,2.82-2.63,3.79-1.76,7.69-3.26,11.56-4.86l-.14-.82-2.77-.46c-6.68-1.14-13.41-2.11-20-3.55-1.93-.42-4.72-2-5-3.44-.38-1.82.87-4.67,2.36-6.07,3.37-3.16,7.32-5.71,11.43-8.79-3.24-.29-6.15-.46-9-.83a44.64,44.64,0,0,1-7.2-1.33c-3.79-1.14-4.45-3-2.64-6.55.23-.45.47-.89,1-1.94-5.79,1.71-11,3.15-16.16,4.78C85.21,259,69.76,264,54.28,268.9a48.8,48.8,0,0,1-24.68,1.76A20.53,20.53,0,0,1,18,237a35.25,35.25,0,0,1,21.17-12.45C51.5,222.43,64,220.26,76.48,220c17.43-.43,34.91.85,52.36,1.42a19.15,19.15,0,0,0,6-.33c-1.19-.43-2.38-.88-3.58-1.28-25.65-8.46-52.1-13.44-78.62-18.12-7.22-1.28-14.39-2.94-21.51-4.7a31.24,31.24,0,0,1-7.67-3.19c-13.2-7.41-14.43-23.6-2.56-33,7.65-6.09,16.48-7.44,25.87-6.15C62.4,156.7,77,162.23,90.87,169.37c14.35,7.36,28.45,15.21,42.65,22.85a12.6,12.6,0,0,0,4.82,1.77c-.83-.89-1.62-1.82-2.49-2.67-18.43-18.08-39.17-33.22-60.36-47.83-8.42-5.8-16.57-12-24.52-18.46-11.29-9.13-11.48-25.44-.45-35,8-6.92,17.35-9.2,27.73-6.81,1.28.3,2.55.64,4.44,1.12-1.1-2.13-2-3.79-2.84-5.51-3.05-6.57-.47-11.22,6.7-12.1C95.65,65.62,104,68.27,112,72.1c1.58.75,3.14,1.53,5.47,2.66-.42-2.93-.75-5.15-1.06-7.38-2.15-15.66,8-29.25,23-30.88,6.16-.67,11.36,1.49,16,5.36,5.5,4.61,9.06,10.62,12.1,17l3.53,7.4c2.58-5.3,4.88-10.48,7.61-15.42a30.61,30.61,0,0,1,5.66-7.36c6.21-5.86,13.84-4.24,16.76,3.77,1.69,4.65,2.31,9.7,3.3,14.6.55,2.71.86,5.46,1.34,8.63,3.14-2.61,5.83-5.08,8.77-7.22a42.21,42.21,0,0,1,8.75-5.39c8.84-3.54,16.72,1.43,17.25,10.94.29,5.19-.36,10.43-.6,15.65,0,1-.12,2-.2,3.37,2.51-1,4.69-2,6.91-2.77a46.79,46.79,0,0,1,5.71-1.83c6.43-1.46,10.59,2.44,9.35,8.94-.91,4.8-2.28,9.52-3.43,14.27-.23.95-.44,1.9-.73,3.14,2.24,0,4.22,0,6.2,0,10.72.16,15.09,5.59,13,16.13-.08.43-.12.87-.24,1.85,2.06,0,4,0,5.92,0,6,0,9.35,3.85,7.69,9.58-1.25,4.31-3.5,8.36-5.53,12.4a56,56,0,0,1-4.06,6.11c-1.3,1.91-2.63,3.8-4.15,6,4.17,2.06,8.12,4.05,12.12,5.94a2.9,2.9,0,0,0,2.23.07,22.3,22.3,0,0,1,19.23-.86c-1.54-8.56-2.87-16.3-4.36-24-.69-3.6-1.85-7.11-2.52-10.72a16.15,16.15,0,0,0-7.24-10.72,74.69,74.69,0,0,1-24.29-27.91c-4.25-8.37-4.9-16.52.36-24.69,2.14-3.32,2.53-6.52,1.41-10.65-3.84-14.06.44-26.11,11.47-35.28,7.93-6.59,16.9-11.55,27.73-11.89A6.56,6.56,0,0,0,316.07,9c6.42-5.87,9.94-5.33,16.16.53,2.72,2.55,7.34,3.1,11.13,4.45.29.1.9-.52,1.28-.89.71-.7,1.33-1.5,2-2.2,4.8-4.62,9.93-3.72,12.39,2.42a37.82,37.82,0,0,1,2.78,9.92C363,34.11,363.81,45,364.58,55.86c.12,1.67-.63,3.41-1.09,5.62,1.86,1,4,2.16,6.1,3.27,15.74,8.2,20.63,26.16,11,41.65-6.63-7.8-16.18-5.08-24.54-6.85-2.6-.55-4.76,1.77-4.62,5.26.23,6.2.72,12.41,1.56,18.56,1.2,8.82,3.23,17.63,1.58,26.52a31,31,0,0,1-4.6,11.57c-3.9,5.71-9.61,4.61-12.06-1.88-2.61-6.91-2.14-14-1-21.09,1-6,2.05-12,2.77-18.07a26.61,26.61,0,0,0-9.57,19.66,45.8,45.8,0,0,0,4,19.8c1.65,3.88,3.69,7.6,5.47,11.43a15.86,15.86,0,0,0,8.27,8.25c4.41,2,7.49,5.65,9.52,10a64.88,64.88,0,0,0,15.95,20.78c15.65,14,19.66,31,14.29,50.88-3.95,14.58-11.61,27.14-20.9,38.79-1,1.22-3.17,1.45-4.8,2.14-.42-1.52-1.27-3.07-1.16-4.54.24-3.08,1-6.11,1.67-10-1.2,1.05-1.89,1.6-2.52,2.22C349.07,300.61,336,307,321.16,310.18c-4,.86-7.7,3.17-11.34,5.18-.86.47-1.36,2.42-1.29,3.65a18.05,18.05,0,0,1-4.42,13.6c-1.32,1.48-3.39,2.29-5.09,3.45-1.24.85-3,1.49-3.57,2.68-3.08,6.61-5.85,13.36-8.95,20.56,9.65-2.9,18.76-5.65,27.88-8.37,4.48-1.34,8.94-2.75,13.46-3.9,3.6-.91,7.27-1.28,10.5,1.58-.64,4.86-5.35,5.65-8.86,8.5,2.82,0,5-.16,7.15,0,7.07.62,14.17,1.14,21.19,2.2,2.22.33,4.47,1.91,6.22,3.46,2,1.74,1.36,3.84-1.15,4.55a30.39,30.39,0,0,1-7.55,1c-6.22.14-12.45,0-18.9.75,1.72.76,3.45,1.49,5.14,2.29,2,.93,4,2,3.47,4.64a4.51,4.51,0,0,1-4.88,3.74c-7.77-.13-15.57-.11-23.29-.9a131.83,131.83,0,0,1-18.65-3.67A79.22,79.22,0,0,0,273.1,373a25.35,25.35,0,0,1-5.65-.22c-3.73-.58-5.6-3.49-3.81-6.78a15.67,15.67,0,0,1,5.88-5.93c3-1.66,5.21-3.58,6.53-6.73a91.46,91.46,0,0,1,5.2-11.19c2.82-4.79,2.16-9.06-.93-13.4-5.26.89-10.57,2-15.95,2.64-16.72,2-32.84-.22-48.14-7.53-4.87-2.32-12.4,2.39-12.34,7.75.11,9.57,3.85,17.78,10,24.86,1.46,1.68,4.11,2.43,6.32,3.33,3.28,1.34,6.72,2.29,10,3.7,2.13.92,3.69,2.64,3.3,5.25s-2.32,4-4.81,4.4c-5.83.82-11.67,1.87-17.53,2.11a58.36,58.36,0,0,0-29.09,8.6c-4.82,3-9.7,5.91-14.7,8.57a27.07,27.07,0,0,1-7.51,2.58c-3.46.67-5.11-1.58-3.55-4.8a25.62,25.62,0,0,1,4-5.7C164,380.31,168,376.24,171.73,372.21ZM337.51,234c-4.86-4.72-5.77-13.3-14.67-12.69-.59-3.17-.81-6.22-1.75-9-1.46-4.39-2.85-9-5.3-12.82-2.25-3.53-5.27-5.84-4.19-11.12.91-4.45-.86-9.44-1.36-14.19-.27-2.56-1.71-3.92-4-4.74-6.16-2.18-15.45.77-19.14,6.21a17.93,17.93,0,0,0-1.22,2.63l11.27,1.73.58,1.25c-1.92,2.47-3.65,5.11-5.78,7.37-7.63,8.1-12.79,17.36-13.73,28.61-.2,2.42.32,4.9.51,7.35l1.41.68,12.29-10.31,1.22.59a53.38,53.38,0,0,1,0,5.39c-.81,8-1.82,15.91-2.52,23.88-.17,1.92.53,3.92.83,5.88l1.07.16c1.75-2.39,3.45-4.81,5.26-7.15s3.3-5.36,7.57-6c.3,2.18.51,4.29.9,6.37.66,3.46,1.08,7,2.26,10.3,1,2.9,4.77,3.94,8.32,3.29,3.35-.62,3.23-3,3.31-5.54.09-2.78.59-5.55.91-8.33l1.18,0c.13,1.22.29,2.44.4,3.67.62,7.09,1.09,14.2,1.93,21.26.26,2.15,1.54,4.17,2.36,6.25,1.62-1.71,3.57-3.21,4.81-5.16,2.48-3.89,4.58-8,6.83-12.05,6.37,3.29,8,2.9,12.51-2.33a23.83,23.83,0,0,0,5.74-17.3c-.16-3.08-.12-5.63,4.25-5.46-.34-2.06-.5-3.82-.94-5.51-1.18-4.52-2.59-9-3.69-13.52a19.94,19.94,0,0,1-.06-4.6l1.06-.43,5.08,4.74c-.82-9.37-9.71-25.47-17.48-31C351.41,201.06,350.92,218.47,337.51,234Zm4.31-138.89-1-.68c-1.09,1.37-2.17,2.75-3.28,4.09a90.18,90.18,0,0,1-6.48,7.61c-3.35,3.22-7.57,2.34-8.13-1.79-.49-3.54-.82-7.65.5-10.78,2.57-6.09,6.33-11.67,9.64-17.44.38-.66.87-1.52,1.5-1.73a29.35,29.35,0,0,1,4.32-.84,20,20,0,0,1,.57,3.5,29.64,29.64,0,0,1-.59,3.61c-.65,4.89.8,7.56,5.4,9.47a50.18,50.18,0,0,0,7.89,2.65c9.16,2.11,18.35,4,27.66,6.08,0-4.71.47-9.54-.1-14.23-1.08-8.8-7.12-13.67-14.8-17-5.4-2.32-10.89-4.5-16-7.32-2.42-1.33-4.11-4-6.43-6.38-1.67,7.52-6,12.64-11.33,17a56,56,0,0,1-6.25,5c-5,3-7,7.27-7.41,12.94-.63,8.25-.35,16.22,3.66,23.7,1.71,3.19,4,4,6,1.59C332.2,108,336.94,101.48,341.82,95.08Zm-113,274.28.13-1.28a16.43,16.43,0,0,0-9.9-4.65c-2.69-.37-6.06-1.33-7.66-3.25-7.53-9-12.91-19-10.42-31.46.7-3.51-2.08-3.42-3.92-4.11-2.27-.86-3.41.65-3.59,2.68-1.11,12.81.22,24.77,11.68,33.22a33.92,33.92,0,0,1,4.11,4.27l-.71,1c-1.42-.41-3.06-.51-4.22-1.31a22.06,22.06,0,0,1-5.74-5c-4.58-6.56-10.84-8.12-18.32-7.25a81.4,81.4,0,0,1-9.41.06l-.06.9c1.14.22,2.26.48,3.41.66,5.28.82,10.58,1.51,15.83,2.47a24.44,24.44,0,0,1,4.82,2l-.18,1.12c-2.2.66-4.36,1.51-6.6,1.94-8.52,1.65-17.11,2.93-25.57,4.82-3.85.86-7.44,2.85-11.15,4.32l.41,1.21c2.22-.45,4.46-.86,6.67-1.36,9-2.06,18-4.21,27-6.21,2.06-.46,4.43-1.13,5.92,2A95.8,95.8,0,0,0,162,389.65a19.11,19.11,0,0,0,5.22-2.11q6.18-3.64,12.26-7.46A60,60,0,0,1,214,370.69C218.93,370.83,223.86,369.84,228.78,369.36Zm63.63-32.79c-3.5-1.38-4.85.2-5.88,2.62-2.53,5.93-5.15,11.82-7.72,17.74-1.41,3.25-3.6,5.58-7.21,6.3-2.71.54-3.7,2.51-4.31,5.4,1.73.28,3.3.65,4.9.77,8.64.6,17.36.65,25.92,1.81,10.23,1.39,20.31,3.8,30.48,5.62,4.68.84,8.32.2,11.58-1.77l-31-8,.22-1.92c7.93-.6,15.9-.51,23.86-.58s16.2,0,24.3,0l.1-1.54c-3.79-.54-7.58-1.49-11.38-1.54-9.44-.11-18.88.2-28.32.33-2.26,0-4.52,0-6.78,0l-.15-1.3,23.06-9.45L333.8,350c-3.17.69-6.39,1.2-9.5,2.09-13,3.74-26,7.66-39.06,11.34-2.34.66-4.89.55-7.6.82C286,356.12,287.38,345.5,292.41,336.57ZM328.78,62.31c2.44-.35,3.13-1.82,3.09-3.77-.14-7.22-.27-14.44-.54-21.66-.11-2.91-1-5.6-4.36-6.29-3.18-.66-5,1.37-6.38,3.77a37.2,37.2,0,0,0-5.21,23c.16,1.71,1.11,3.34,1.7,5a8.42,8.42,0,0,0,1.35-3.8c.33-2.31.22-4.79,1.08-6.88.65-1.58,2.46-3.58,3.88-3.68s3.38,1.67,4.33,3.13.88,3.39,1,5.14S328.78,60,328.78,62.31Zm18.17-14.94c5.1-1.29,5.84-.76,6.31,4.18.13,1.32.05,2.68.29,4a29.32,29.32,0,0,0,1.12,3.6l1-.27c-.43-8.64,1.46-17.7-5.21-26.11Zm-24,14.33c3.44-1.79,3.73-3.67,1-7Z" transform="translate(-11.35 -4.01)"/>
			      <path d="M337.51,234c13.42-15.5,13.9-32.91,8-51.67,7.77,5.56,16.66,21.65,17.48,31l-5.08-4.74-1.06.43a19.94,19.94,0,0,0,.06,4.6c1.11,4.54,2.51,9,3.69,13.52.44,1.69.6,3.45.94,5.51-4.37-.17-4.41,2.38-4.25,5.46a23.83,23.83,0,0,1-5.74,17.3c-4.47,5.23-6.13,5.62-12.51,2.33-2.25,4-4.35,8.16-6.83,12.05-1.24,1.95-3.18,3.45-4.81,5.16-.81-2.08-2.1-4.1-2.36-6.25-.84-7.06-1.31-14.17-1.93-21.26-.11-1.22-.26-2.45-.4-3.67l-1.18,0c-.32,2.78-.83,5.55-.91,8.33-.08,2.58,0,4.93-3.31,5.54-3.55.65-7.27-.39-8.32-3.29-1.18-3.28-1.61-6.84-2.26-10.3-.39-2.08-.6-4.2-.9-6.37-4.27.61-5.7,3.57-7.57,6s-3.51,4.76-5.26,7.15l-1.07-.16c-.3-2-1-4-.83-5.88.71-8,1.71-15.92,2.52-23.88a53.38,53.38,0,0,0,0-5.39l-1.22-.59L280.1,225.2l-1.41-.68c-.19-2.45-.71-4.93-.51-7.35.95-11.24,6.11-20.51,13.73-28.61,2.13-2.26,3.87-4.9,5.78-7.37l-.58-1.25-11.27-1.73a17.93,17.93,0,0,1,1.22-2.63c3.69-5.44,13-8.39,19.14-6.21,2.32.82,3.76,2.18,4,4.74.5,4.76,2.27,9.74,1.36,14.19-1.07,5.29,1.95,7.6,4.19,11.12,2.45,3.84,3.84,8.43,5.3,12.82.94,2.82,1.16,5.87,1.75,9C331.74,220.67,332.65,229.25,337.51,234Z" transform="translate(-11.35 -4.01)" fill="000" fill-opacity="0"/>
			      <path d="M341.82,95.08c-4.88,6.4-9.62,12.9-14.71,19.13-2,2.43-4.25,1.6-6-1.59-4-7.48-4.29-15.45-3.66-23.7.43-5.67,2.45-10,7.41-12.94a56,56,0,0,0,6.25-5c5.35-4.39,9.66-9.51,11.33-17,2.33,2.38,4,5.05,6.43,6.38,5.13,2.82,10.63,5,16,7.32,7.67,3.31,13.72,8.17,14.8,17,.58,4.69.1,9.52.1,14.23-9.31-2-18.51-4-27.66-6.08a50.18,50.18,0,0,1-7.89-2.65c-4.59-1.91-6-4.59-5.4-9.47a29.64,29.64,0,0,0,.59-3.61,20,20,0,0,0-.57-3.5,29.35,29.35,0,0,0-4.32.84c-.63.21-1.12,1.07-1.5,1.73-3.3,5.77-7.07,11.36-9.64,17.44-1.32,3.13-1,7.24-.5,10.78.57,4.13,4.78,5,8.13,1.79a90.18,90.18,0,0,0,6.48-7.61c1.12-1.35,2.19-2.73,3.28-4.09Z" transform="translate(-11.35 -4.01)" fill="000" fill-opacity="0"/>
			      <path d="M228.78,369.36c-4.92.48-9.85,1.47-14.74,1.32a60,60,0,0,0-34.55,9.39q-6.08,3.81-12.26,7.46a19.11,19.11,0,0,1-5.22,2.11,95.8,95.8,0,0,1,29.28-23.56c-1.49-3.13-3.86-2.45-5.92-2-9,2-18,4.14-27,6.21-2.21.51-4.45.91-6.67,1.36l-.41-1.21c3.71-1.47,7.3-3.46,11.15-4.32,8.46-1.9,17.05-3.18,25.57-4.82,2.24-.43,4.4-1.28,6.6-1.94l.18-1.12a24.44,24.44,0,0,0-4.82-2c-5.25-1-10.55-1.66-15.83-2.47-1.14-.18-2.27-.44-3.41-.66l.06-.9a81.4,81.4,0,0,0,9.41-.06c7.48-.88,13.74.68,18.32,7.25a22.06,22.06,0,0,0,5.74,5c1.16.8,2.8.9,4.22,1.31l.71-1a33.92,33.92,0,0,0-4.11-4.27c-11.46-8.45-12.78-20.41-11.68-33.22.18-2,1.31-3.53,3.59-2.68,1.84.69,4.62.61,3.92,4.11-2.49,12.41,2.89,22.43,10.42,31.46,1.6,1.92,5,2.87,7.66,3.25a16.43,16.43,0,0,1,9.9,4.65Z" transform="translate(-11.35 -4.01)" fill="000" fill-opacity="0"/>
			      <path d="M292.41,336.57c-5,8.92-6.43,19.55-14.76,27.68,2.71-.27,5.26-.16,7.6-.82,13-3.69,26-7.61,39.06-11.34,3.11-.89,6.33-1.4,9.5-2.09l.33,1.09-23.06,9.45.15,1.3c2.26,0,4.52,0,6.78,0,9.44-.13,18.88-.44,28.32-.33,3.8,0,7.59,1,11.38,1.54l-.1,1.54c-8.1,0-16.2-.06-24.3,0s-15.93,0-23.86.58l-.22,1.92,31,8c-3.26,2-6.89,2.61-11.58,1.77-10.17-1.82-20.26-4.23-30.48-5.62-8.56-1.17-17.28-1.21-25.92-1.81-1.6-.11-3.17-.49-4.9-.77.61-2.89,1.6-4.86,4.31-5.4,3.61-.72,5.8-3,7.21-6.3,2.56-5.92,5.19-11.81,7.72-17.74C287.56,336.77,288.91,335.2,292.41,336.57Z" transform="translate(-11.35 -4.01)" fill="000" fill-opacity="0"/>
			      <path d="M328.78,62.31c0-2.27.12-4.16,0-6s-.14-3.77-1-5.14-2.92-3.23-4.33-3.13-3.23,2.1-3.88,3.68c-.86,2.08-.74,4.57-1.08,6.88a8.42,8.42,0,0,1-1.35,3.8c-.59-1.67-1.54-3.3-1.7-5a37.2,37.2,0,0,1,5.21-23c1.43-2.4,3.2-4.43,6.38-3.77,3.36.7,4.24,3.38,4.36,6.29.27,7.22.4,14.44.54,21.66C331.91,60.49,331.23,62,328.78,62.31Z" transform="translate(-11.35 -4.01)" fill="000" fill-opacity="0"/>
			      <path d="M346.95,47.37l3.54-14.63c6.67,8.41,4.78,17.47,5.21,26.11l-1,.27a29.32,29.32,0,0,1-1.12-3.6c-.24-1.3-.16-2.65-.29-4C352.79,46.62,352,46.08,346.95,47.37Z" transform="translate(-11.35 -4.01)" fill="000" fill-opacity="0"/>
			      <path d="M322.92,61.7l1-7C326.65,58,326.36,59.91,322.92,61.7Z" transform="translate(-11.35 -4.01)" fill="000" fill-opacity="0"/>
			    </g>
			  </g>
			</symbol>


			<symbol id="Christmas" data-name="Layer 1" xmlns="http://www.w3.org/2000/svg" viewBox="0 0 346.99 386.8">
			  <title>Christmas Symbol</title>
			  <g id="DmQZKj.tif">
			    <path d="M26.46,367.35c6.13-5.6,11.55-11.88,17.26-17.89,9-9.46,18-18.88,27-28.37,6.21-6.57,12.41-13.14,18.45-19.85,2.86-3.18,6.16-5.92,8.72-9.4,2.68-3.63,2.84-3.54-1.77-4.66a145.48,145.48,0,0,1-26.47-8.81c-3.14-1.44-3.29-2.36-.95-4.86,4.38-4.66,8.71-9.37,13-14.07,9.53-10.32,19.1-20.61,28.58-31,6.6-7.23,12.94-14.71,19.66-21.83,3.53-3.74,6.75-7.74,10.43-11.85-8-1.86-15.89-3.67-23.76-5.54-5.55-1.31-5.76-1.84-2.14-6.37,10.74-13.44,21.3-27,31.84-40.62C154.2,132.13,162.15,122.1,170,112s15.89-20.08,23.6-30.29c1.35-1.78,3.47-2.94,4.34-5.66-4.74,1.39-8.29,4.44-12.35,6.44s-7.86,4.49-11.78,6.77c-1,.56-2,1.59-3.09.88-1.35-.91-.48-2.42,0-3.44,3.18-7.33,4.06-15.31,6.56-22.82,1-3.15.17-5.2-2.4-7.07-6.61-4.8-13.12-9.73-19.64-14.65-1-.78-3-1.31-2.52-2.86s2.43-.81,3.73-.9c8.79-.57,17.58-1.09,26.37-1.61,3.06-.18,5.16-1.45,6.19-4.55,2.87-8.58,7.46-16.4,11-25.27a26.49,26.49,0,0,1,4.46,7.4c2.57,6.55,5.26,13,8.44,19.34,1.18,2.33,2.89,2.94,5.12,3.07,8.92.53,17.84,1,26.75,1.6,1.08.07,2.56-.41,3.09.78.62,1.38-1,1.89-1.76,2.5-6.68,5.11-13.34,10.27-20.18,15.16-2.6,1.86-3.61,3.63-2.68,6.9,2.25,7.85,5.37,15.45,6.82,23.52.17.93.93,2.06-.15,2.76-.83.54-1.64-.32-2.39-.74Q217,83.43,206.46,77.52c-1-.59-1.91-1.62-3.58-1.53,5.2,7.45,10.75,14.37,16.4,21.21,2.8,3.39,5.38,7,8.11,10.4,9.77,12.29,19.17,24.88,28.81,37.28q15.73,20.22,31.69,40.25c1.69,2.12,1.38,2.7-1,3.46-6.86,2.18-14,3.33-20.91,5.09-1.52.38-3.86,0-4.27,1.61s1.65,2.66,2.72,3.84q17.79,19.66,35.68,39.24c10.14,11.14,20.35,22.22,30.4,33.43,4.36,4.86,4.07,5.76-2.1,8.21a151.19,151.19,0,0,1-24.1,7.59c-.83.18-1.62.52-2.87.94,4.6,4.93,9,9.53,13.27,14.22C326.62,315.84,338.47,329,350.41,342q10.67,11.67,21.54,23.15c2.45,2.57,1.72,3.89-1.1,5.21-8.59,4-17.65,6.63-26.75,9.18-20.81,5.82-42.12,8.78-63.54,11-13.26,1.36-26.57,2.45-39.92,2.63-1.87,0-3.79-.25-5.58.62h-65c-6.56-1.35-13.25-.82-19.87-1.24-15.18-1-30.32-2.2-45.37-4.22-26.83-3.59-53.29-8.83-78.37-19.49Z" transform="translate(-26.46 -7)"/>
			  </g>
			</symbol>

			<symbol id="Hanukkah" xmlns="http://www.w3.org/2000/svg"
			 viewBox="0 0 900.000000 900.000000">
			 <title>Menorah Symbol</title>
			<g transform="translate(0.000000,900.000000) scale(0.100000,-0.100000)"
			fill="#000000" stroke="none">
			<path d="M4533 8533 c-17 -54 -53 -116 -103 -183 -109 -146 -141 -240 -125
			-361 6 -46 14 -59 59 -104 98 -97 197 -121 273 -66 94 68 124 160 99 297 -17
			91 -26 116 -85 239 -55 115 -68 145 -76 173 -8 26 -33 29 -42 5z"/>
			<path d="M3687 8343 c-4 -3 -7 -16 -7 -28 0 -28 -35 -93 -100 -188 -27 -41
			-50 -80 -50 -86 0 -6 -6 -22 -14 -34 -7 -12 -19 -48 -26 -80 -11 -48 -11 -67
			0 -110 17 -66 41 -98 107 -144 44 -30 63 -37 103 -37 43 0 55 5 86 35 59 57
			74 96 74 196 0 94 -18 166 -66 271 -14 31 -32 71 -39 87 -20 50 -56 125 -59
			125 -1 0 -6 -3 -9 -7z"/>
			<path d="M5395 8325 c-9 -45 -47 -119 -95 -185 -14 -19 -40 -64 -59 -100 -32
			-60 -34 -72 -35 -161 -1 -86 1 -99 24 -133 14 -20 49 -53 78 -73 43 -28 63
			-35 102 -35 57 0 85 17 129 82 30 44 31 49 31 150 -1 109 -24 201 -71 280 -5
			8 -12 22 -15 30 -3 8 -11 26 -19 40 -7 14 -16 39 -19 55 -4 17 -15 41 -26 55
			l-18 25 -7 -30z"/>
			<path d="M6295 8323 c-10 -46 -45 -113 -95 -183 -78 -107 -111 -220 -95 -325
			12 -85 119 -177 205 -178 55 -1 84 18 129 83 30 43 31 50 31 146 0 114 -13
			159 -100 349 -10 22 -26 59 -36 83 -22 54 -32 60 -39 25z"/>
			<path d="M7160 8331 c0 -32 -44 -118 -101 -196 -57 -80 -109 -205 -109 -265 0
			-33 25 -103 49 -138 9 -12 39 -37 66 -56 86 -57 143 -56 203 4 44 45 72 116
			72 185 -1 61 -29 172 -65 252 -52 115 -75 171 -89 216 -7 23 -26 22 -26 -2z"/>
			<path d="M1070 8331 c0 -22 -49 -114 -91 -171 -14 -19 -29 -42 -32 -50 -4 -8
			-16 -30 -27 -48 -32 -53 -60 -142 -60 -193 0 -109 86 -208 203 -233 81 -18
			187 110 187 227 0 52 -38 184 -80 277 -36 82 -62 146 -74 183 -5 17 -26 24
			-26 8z"/>
			<path d="M1946 8274 c-17 -36 -44 -85 -61 -108 -17 -22 -35 -48 -38 -56 -4 -8
			-16 -30 -27 -48 -32 -53 -60 -142 -60 -193 0 -115 104 -228 214 -232 36 -2 51
			4 82 29 46 37 83 107 90 172 8 60 -24 187 -76 302 -36 82 -62 146 -74 183 -9
			29 -20 19 -50 -49z"/>
			<path d="M2820 8315 c-5 -14 -10 -32 -10 -39 0 -7 -25 -51 -56 -97 -31 -46
			-72 -114 -90 -151 -31 -60 -34 -74 -34 -155 0 -68 4 -94 17 -113 52 -74 126
			-123 187 -123 53 0 76 13 123 70 l38 46 0 117 c0 128 0 125 -90 324 -15 33
			-33 78 -39 100 -14 48 -32 57 -46 21z"/>
			<path d="M7997 8263 c-19 -38 -57 -102 -85 -143 -28 -41 -60 -102 -71 -135
			-25 -72 -27 -163 -5 -208 18 -36 83 -107 98 -107 5 0 17 -7 27 -16 11 -10 37
			-17 67 -17 120 -2 198 146 163 312 -15 67 -23 93 -66 191 -33 75 -58 139 -69
			173 -10 31 -25 18 -59 -50z"/>
			<path d="M4326 7763 c-18 -5 -18 -17 -10 -381 5 -208 9 -476 9 -597 l0 -219
			40 -8 c22 -5 44 -13 49 -18 6 -6 27 -10 47 -10 21 0 44 -7 53 -15 10 -11 36
			-15 92 -15 67 0 75 -2 64 -15 -9 -10 -32 -15 -75 -15 -43 0 -66 5 -75 15 -7 8
			-24 15 -39 15 -15 0 -35 6 -46 14 -13 9 -63 16 -135 20 -145 9 -164 1 -168
			-66 -3 -43 -1 -48 27 -63 36 -18 40 -47 16 -115 -20 -57 -19 -157 3 -197 18
			-34 96 -98 127 -104 30 -6 27 -23 -8 -39 -39 -18 -61 -60 -52 -100 12 -53 147
			-100 286 -100 88 0 113 7 198 50 70 36 78 96 20 139 -31 23 -32 23 -62 6 -24
			-14 -53 -18 -161 -18 -135 0 -176 6 -176 25 0 7 18 8 58 2 101 -14 235 -4 277
			21 11 7 32 15 46 19 33 7 107 80 117 115 9 34 9 163 0 221 l-8 45 50 22 c61
			27 79 57 60 103 -8 19 -27 38 -45 47 -30 14 -37 14 -92 -5 -32 -11 -71 -26
			-86 -33 -33 -15 -50 -3 -23 16 18 14 18 22 7 192 -15 231 -15 875 0 961 6 36
			8 67 3 72 -10 8 -359 20 -388 13z"/>
			<path d="M913 7612 c-41 -6 -43 -16 -33 -272 5 -135 10 -379 10 -542 0 -281 1
			-298 18 -298 10 0 27 -7 38 -15 17 -13 8 -14 -89 -12 -105 2 -109 1 -127 -23
			-28 -36 -25 -66 10 -92 35 -25 38 -55 15 -132 -20 -65 -19 -95 5 -149 22 -50
			89 -111 132 -122 16 -4 25 -11 23 -16 -3 -4 -12 -6 -20 -3 -39 15 -95 -59 -74
			-99 29 -54 113 -85 229 -86 94 0 150 17 200 61 77 67 -11 153 -106 103 -31
			-16 -135 -19 -169 -5 -30 12 -4 19 90 23 128 6 216 50 256 129 18 35 20 53 16
			127 -3 47 -8 98 -12 112 -6 24 -3 28 29 39 45 14 79 55 70 84 -10 32 -45 66
			-69 66 -27 0 -79 -16 -122 -38 -36 -18 -57 -9 -28 12 17 12 17 26 6 282 -14
			339 -14 598 0 737 7 62 8 112 3 117 -9 8 -258 18 -301 12z m133 -1157 c5 -11
			22 -15 65 -15 32 0 59 -4 59 -9 0 -23 -91 -29 -109 -7 -6 7 -29 16 -51 20 -49
			8 -53 26 -5 26 22 0 38 -6 41 -15z"/>
			<path d="M1813 7612 c-42 -6 -44 -17 -33 -253 5 -123 10 -366 10 -540 l0 -316
			30 -6 c17 -4 30 -11 30 -17 0 -6 -38 -9 -100 -7 -97 2 -102 1 -120 -23 -28
			-36 -25 -66 11 -92 34 -25 35 -44 9 -158 -18 -82 -2 -132 62 -193 28 -26 64
			-51 82 -55 l31 -8 -42 -7 c-37 -6 -45 -12 -58 -43 -11 -28 -12 -41 -3 -57 28
			-53 119 -87 235 -87 68 0 92 5 138 26 83 40 105 84 66 132 -23 26 -85 30 -115
			7 -20 -15 -138 -21 -170 -9 -34 13 -1 24 73 24 50 0 89 5 107 15 16 8 36 15
			45 15 29 0 97 58 119 102 18 38 21 56 17 124 -3 43 -8 93 -12 109 -6 28 -3 31
			37 50 24 11 50 32 58 47 13 25 13 29 -6 54 -33 45 -47 50 -104 35 -28 -7 -65
			-20 -81 -28 -35 -17 -52 -10 -24 11 17 13 18 25 6 272 -14 321 -14 607 0 748
			6 60 7 112 2 116 -8 8 -258 18 -300 12z m137 -1157 c8 -10 31 -15 66 -15 30 0
			54 -4 54 -9 0 -23 -91 -29 -109 -7 -6 7 -29 16 -51 20 -22 3 -40 11 -40 16 0
			16 66 12 80 -5z"/>
			<path d="M2670 7610 l-35 -5 1 -115 c0 -63 3 -311 7 -550 l8 -435 29 -8 c17
			-4 30 -12 30 -18 0 -8 -26 -9 -84 -4 -113 9 -146 -7 -146 -72 0 -24 7 -37 30
			-53 31 -22 38 -48 18 -68 -7 -7 -14 -52 -16 -107 l-4 -95 36 -44 c20 -24 59
			-56 87 -69 l51 -26 -36 -7 c-39 -7 -76 -44 -76 -76 0 -55 121 -108 246 -108
			86 0 128 13 191 58 43 31 49 55 23 92 -17 24 -29 30 -60 30 -21 0 -51 -7 -66
			-15 -30 -16 -108 -20 -165 -8 -52 10 -9 21 86 23 53 0 86 5 99 15 11 8 28 15
			39 15 29 0 95 57 118 102 29 57 34 124 15 192 -9 31 -14 61 -11 66 4 6 21 17
			40 24 42 18 59 48 50 92 -11 60 -52 68 -151 28 -69 -27 -91 -26 -56 3 20 17
			20 23 12 128 -18 204 -24 750 -11 879 7 65 9 122 4 126 -10 9 -253 17 -303 10z
			m138 -1158 c3 -10 -5 -13 -29 -10 -18 2 -34 9 -37 16 -3 10 5 13 29 10 18 -2
			34 -9 37 -16z m122 -22 c0 -23 -100 -26 -108 -2 -3 8 12 12 52 12 31 0 56 -4
			56 -10z"/>
			<path d="M3535 7610 l-30 -5 2 -550 3 -550 30 -8 c16 -4 30 -13 30 -19 0 -7
			-24 -9 -77 -4 -43 3 -91 3 -107 -2 -54 -15 -61 -101 -10 -124 21 -10 24 -17
			20 -37 -20 -82 -28 -163 -22 -204 6 -39 16 -56 56 -96 29 -29 61 -51 80 -54
			38 -8 31 -27 -10 -27 -60 0 -84 -92 -32 -126 53 -36 123 -54 209 -54 157 0
			262 80 207 158 -18 27 -76 30 -120 7 -29 -15 -120 -20 -162 -8 -43 11 -1 23
			83 23 54 0 86 5 99 15 11 8 30 15 42 15 13 0 43 19 72 48 42 41 50 56 60 108
			10 49 10 74 -1 126 -14 67 -9 98 17 98 7 0 25 9 40 21 36 28 37 89 1 113 -36
			24 -61 20 -177 -29 -18 -7 -25 5 -11 18 3 4 6 262 5 574 l-2 568 -22 2 c-60 6
			-247 8 -273 3z m135 -1155 c8 -10 30 -15 61 -15 48 0 72 -13 43 -24 -30 -12
			-84 -6 -90 9 -4 8 -17 15 -29 15 -30 0 -55 10 -55 21 0 15 57 10 70 -6z"/>
			<path d="M5245 7610 l-30 -5 2 -550 2 -550 31 -8 c16 -4 30 -13 30 -19 0 -7
			-24 -9 -77 -4 -43 3 -91 3 -107 -2 -54 -15 -61 -101 -10 -124 21 -10 24 -17
			20 -37 -17 -74 -26 -161 -21 -202 8 -61 64 -121 138 -150 22 -9 25 -14 15 -20
			-7 -5 -22 -9 -34 -9 -34 0 -56 -33 -52 -76 3 -36 7 -41 63 -69 53 -26 72 -30
			160 -33 93 -3 104 -1 154 25 30 15 64 40 74 55 20 26 20 27 0 60 -15 27 -26
			34 -57 36 -20 2 -44 -2 -51 -8 -18 -15 -122 -25 -169 -16 -62 12 -29 26 62 26
			61 1 93 5 106 15 11 8 28 15 37 15 26 0 83 41 106 75 34 52 46 103 38 164 -4
			31 -8 74 -9 95 -1 35 2 40 29 49 46 15 55 26 55 72 0 48 -22 75 -61 75 -21 0
			-75 -17 -141 -45 -21 -9 -23 2 -5 24 11 12 12 39 6 121 -5 58 -8 310 -7 560
			l1 455 -24 2 c-64 6 -248 8 -274 3z m135 -1155 c8 -10 31 -15 66 -15 30 0 54
			-4 54 -9 0 -24 -97 -30 -106 -6 -4 8 -17 15 -29 15 -30 0 -55 10 -55 21 0 15
			57 10 70 -6z"/>
			<path d="M6145 7610 l-30 -5 2 -550 3 -550 30 -8 c60 -15 29 -26 -69 -24 -61
			1 -104 -2 -111 -9 -6 -6 -13 -27 -16 -46 -6 -36 13 -69 47 -80 12 -4 12 -11 1
			-42 -8 -20 -14 -78 -15 -129 -2 -77 1 -96 17 -118 26 -33 115 -99 136 -99 13
			0 13 -1 0 -10 -8 -5 -25 -10 -37 -10 -30 0 -55 -40 -51 -82 3 -29 10 -36 63
			-63 53 -26 72 -30 160 -33 93 -3 104 -1 154 25 30 15 64 40 74 55 20 26 20 27
			0 60 -15 27 -26 34 -57 36 -20 2 -44 -2 -51 -8 -18 -15 -122 -25 -171 -16 -60
			12 -21 26 71 26 54 0 86 5 99 15 11 8 30 15 42 15 13 0 43 19 71 48 56 54 79
			116 70 185 -4 23 -9 62 -13 87 l-6 46 43 19 c42 19 44 22 47 67 3 39 -1 49
			-20 62 -12 9 -32 16 -43 16 -24 0 -97 -25 -125 -42 -25 -16 -37 -3 -18 19 12
			15 13 36 7 123 -5 58 -8 310 -7 560 1 383 -1 455 -13 457 -39 5 -258 8 -284 3z
			m139 -1155 c8 -9 33 -15 60 -15 46 0 68 -13 40 -24 -30 -12 -84 -6 -90 9 -4 8
			-17 15 -29 15 -30 0 -55 10 -55 21 0 15 57 10 74 -6z"/>
			<path d="M7005 7610 l-30 -5 0 -123 c0 -67 1 -315 3 -551 l2 -429 35 -6 c70
			-14 35 -26 -66 -24 -95 3 -102 2 -120 -21 -28 -34 -24 -66 13 -94 l32 -25 -19
			-80 c-22 -97 -17 -160 17 -207 25 -36 81 -78 117 -90 27 -8 27 -29 0 -22 -30
			8 -48 -1 -64 -34 -31 -60 -7 -96 88 -129 115 -40 267 -21 335 42 27 26 29 78
			4 101 -23 21 -90 22 -116 2 -20 -15 -120 -20 -164 -8 -43 11 -1 23 85 23 45 0
			84 4 88 9 3 5 20 13 38 16 40 9 112 67 133 107 15 28 18 108 11 233 -2 25 4
			33 31 47 63 31 78 75 41 122 -29 37 -65 34 -191 -19 -18 -7 -26 9 -9 19 5 4 8
			244 6 573 -2 469 -5 568 -16 570 -38 5 -258 8 -284 3z m139 -1155 c9 -9 33
			-15 65 -15 50 0 74 -13 45 -24 -27 -10 -75 -7 -102 8 -15 8 -39 17 -54 21 -16
			3 -28 10 -28 15 0 16 57 12 74 -5z"/>
			<path d="M7864 7610 l-29 -5 0 -130 c1 -72 4 -319 8 -550 l7 -420 32 -11 c49
			-16 20 -24 -79 -21 -77 2 -94 -1 -112 -17 -31 -28 -27 -71 9 -98 34 -25 38
			-53 15 -118 -20 -56 -18 -126 4 -173 18 -40 111 -117 140 -117 14 0 14 -2 1
			-10 -8 -5 -25 -10 -37 -10 -24 0 -53 -43 -53 -79 0 -26 52 -64 113 -85 70 -23
			200 -21 257 5 57 25 100 66 100 94 0 53 -76 81 -136 50 -29 -15 -129 -20 -172
			-8 -43 11 -1 23 85 23 45 0 84 4 88 9 3 5 20 13 37 17 66 14 117 60 144 130
			19 51 16 166 -6 201 -17 27 -2 49 41 58 56 13 75 72 38 119 -29 37 -65 34
			-191 -19 -22 -9 -24 11 -3 23 14 7 14 31 4 198 -16 281 -16 762 0 852 7 41 9
			78 5 82 -10 9 -266 18 -310 10z m140 -1155 c9 -9 33 -15 65 -15 53 0 76 -14
			38 -24 -38 -10 -75 -7 -91 9 -8 8 -24 15 -34 15 -27 0 -52 10 -52 21 0 15 57
			10 74 -6z"/>
			<path d="M4640 5729 c-14 -6 -85 -9 -160 -8 l-135 3 -5 -194 -5 -194 -60 -13
			c-155 -32 -309 5 -402 97 -40 39 -103 133 -103 154 0 8 -6 30 -14 48 -8 18
			-17 45 -20 59 -5 24 -12 27 -53 31 -27 3 -55 1 -64 -3 -41 -20 -29 -156 25
			-281 26 -61 116 -143 201 -183 42 -19 86 -35 100 -35 13 0 36 -5 52 -12 15 -6
			95 -14 178 -17 138 -6 150 -8 154 -25 8 -43 -11 -325 -23 -342 -11 -14 -35
			-17 -187 -17 -262 -1 -458 31 -669 108 -115 42 -254 131 -332 212 -35 37 -128
			167 -128 180 0 3 -13 35 -30 70 -16 34 -30 73 -30 86 0 12 -7 47 -15 77 -8 30
			-15 83 -15 117 0 34 -3 64 -8 67 -4 2 -31 -2 -60 -9 -36 -10 -61 -11 -77 -5
			-35 13 -45 -12 -45 -112 1 -130 26 -278 59 -353 77 -174 172 -291 316 -391 46
			-32 205 -107 245 -115 19 -4 76 -19 125 -32 169 -46 380 -55 747 -31 88 6 98
			5 104 -11 11 -28 -15 -248 -30 -264 -34 -34 -653 -38 -851 -6 -177 29 -315 62
			-383 91 -18 8 -38 14 -46 14 -17 0 -164 64 -234 102 -145 79 -297 198 -382
			299 -67 80 -110 136 -110 145 0 4 -6 15 -14 23 -18 21 -94 164 -110 210 -49
			137 -77 234 -97 341 -17 90 -24 102 -57 93 -33 -8 -36 -8 -94 1 l-47 7 -12
			-43 c-12 -45 -7 -244 10 -348 23 -148 84 -302 175 -440 66 -99 241 -273 341
			-338 121 -79 317 -173 420 -202 17 -4 44 -13 60 -18 143 -48 327 -84 595 -117
			90 -11 222 -15 473 -15 l348 0 -7 -72 c-3 -40 -12 -79 -19 -86 -8 -9 -57 -17
			-141 -22 -71 -5 -174 -14 -229 -19 -148 -15 -510 -13 -650 4 -66 8 -142 15
			-170 15 -49 0 -155 17 -282 46 -34 8 -73 14 -86 14 -13 0 -43 6 -68 14 -24 7
			-71 22 -104 31 -300 89 -508 189 -712 342 -99 74 -276 249 -308 304 -5 10 -32
			50 -58 89 -26 39 -51 78 -54 88 -3 9 -11 24 -18 32 -18 23 -105 232 -105 252
			0 10 -6 32 -14 50 -18 44 -34 109 -46 188 -6 36 -16 103 -23 149 l-13 84 -99
			0 -100 0 -8 -44 c-13 -68 0 -377 19 -451 46 -183 66 -239 135 -383 100 -205
			286 -413 514 -571 17 -11 37 -23 45 -27 8 -4 29 -16 45 -27 84 -55 351 -180
			385 -180 9 0 21 -5 27 -11 6 -6 26 -14 44 -19 19 -4 48 -13 64 -18 17 -6 55
			-17 85 -25 30 -8 80 -22 111 -31 31 -9 66 -16 78 -16 12 0 47 -6 79 -14 266
			-67 816 -99 1342 -77 183 7 266 7 271 0 10 -18 -13 -114 -47 -197 -8 -18 -14
			-38 -14 -45 0 -7 -9 -23 -20 -37 -41 -53 -22 -79 100 -137 122 -59 163 -68
			305 -67 106 0 143 4 199 22 110 35 226 102 226 130 0 8 -11 38 -24 66 -31 66
			-66 170 -66 196 0 12 -5 31 -11 42 -8 16 -8 24 3 34 11 12 31 12 108 4 155
			-16 859 -13 1040 5 524 51 874 140 1215 307 104 51 113 56 183 101 24 15 45
			27 48 27 15 0 170 129 244 202 116 115 167 178 236 293 23 38 114 225 114 235
			0 5 6 24 14 42 19 43 42 133 61 238 11 61 15 134 13 260 l-3 175 -85 1 c-47 0
			-94 2 -105 5 -17 4 -20 -5 -32 -81 -7 -47 -18 -110 -24 -140 -6 -30 -15 -75
			-19 -100 -9 -46 -29 -119 -51 -180 -11 -32 -23 -58 -72 -170 -110 -246 -359
			-513 -627 -671 -74 -43 -182 -98 -250 -127 -19 -8 -44 -20 -55 -25 -11 -6 -33
			-14 -50 -18 -16 -4 -50 -15 -75 -25 -88 -33 -264 -78 -425 -108 -44 -8 -107
			-20 -140 -27 -33 -6 -114 -15 -180 -19 -440 -30 -483 -31 -656 -20 -96 6 -236
			15 -312 20 -76 5 -144 13 -151 19 -13 11 -36 104 -36 146 l0 22 319 -5 c328
			-5 520 6 741 43 47 8 101 16 120 18 58 7 205 45 320 83 41 14 89 29 106 33 28
			7 252 115 299 144 136 83 302 238 383 356 45 66 121 213 132 256 5 17 13 44
			19 60 30 89 41 154 46 285 7 176 -2 246 -30 242 -11 -2 -51 -4 -90 -5 l-70 -2
			-12 -35 c-7 -19 -12 -46 -12 -58 -2 -69 -72 -289 -132 -419 -53 -113 -173
			-280 -255 -358 -80 -75 -109 -98 -194 -156 -52 -35 -124 -78 -160 -96 -123
			-61 -200 -93 -221 -93 -11 0 -32 -6 -47 -13 -52 -26 -202 -60 -401 -92 -137
			-22 -659 -20 -791 3 -86 16 -95 19 -101 42 -10 34 -11 238 -1 243 4 2 52 1
			107 -4 347 -28 590 -20 775 28 52 13 112 27 132 32 21 5 43 13 50 18 7 5 38
			20 68 32 136 58 289 189 367 316 29 47 76 151 93 208 27 91 45 273 34 338 l-9
			54 -45 1 c-25 0 -62 6 -83 13 -22 7 -42 9 -47 5 -4 -5 -10 -54 -13 -109 -5
			-125 -37 -226 -114 -368 -17 -32 -91 -116 -143 -163 -195 -178 -538 -278 -945
			-278 -182 1 -231 7 -245 33 -5 10 -11 92 -12 182 l-3 164 170 6 c94 3 183 11
			198 17 16 7 37 12 49 12 19 0 77 22 108 41 8 5 24 13 35 18 43 18 123 102 154
			160 28 53 33 73 38 162 7 120 2 128 -72 120 l-47 -6 -23 -70 c-84 -259 -260
			-360 -540 -311 l-70 12 -6 200 c-3 109 -7 200 -7 202 -4 5 -28 0 -52 -9z"/>
			<path d="M4928 3372 c-63 -50 -149 -92 -253 -126 -105 -34 -335 -18 -427 30
			-14 8 -31 14 -36 14 -6 0 -45 20 -87 46 -43 25 -85 44 -94 42 -10 -2 -17 -15
			-18 -38 -3 -40 10 -51 127 -106 263 -125 506 -134 725 -27 132 65 185 121 171
			178 -9 37 -51 32 -108 -13z"/>
			<path d="M3973 3227 c-9 -18 -20 -45 -24 -62 -4 -16 -17 -55 -29 -85 -12 -30
			-26 -71 -30 -90 -5 -19 -20 -73 -33 -120 -116 -393 -38 -547 348 -688 231 -85
			462 -84 645 2 30 14 67 26 81 26 36 0 142 68 179 115 100 126 114 309 47 605
			-17 78 -77 261 -89 274 -4 6 -8 18 -8 28 0 27 -22 22 -76 -16 -55 -39 -164
			-94 -239 -120 -65 -23 -249 -32 -335 -17 -135 23 -262 74 -376 150 l-44 30
			-17 -32z"/>
			<path d="M4143 2038 c38 -65 42 -80 46 -151 4 -89 -11 -140 -65 -223 -19 -28
			-34 -57 -34 -65 0 -21 113 -92 190 -118 186 -65 354 -51 555 45 39 19 81 42
			94 53 l24 18 -21 34 c-11 19 -35 63 -52 98 -29 57 -32 73 -33 155 0 96 9 125
			61 194 26 35 21 38 -37 23 -160 -41 -199 -45 -381 -45 -168 1 -194 4 -283 28
			-53 14 -99 26 -101 26 -3 0 14 -32 37 -72z"/>
			<path d="M3925 1520 c-172 -30 -310 -59 -371 -76 -28 -8 -62 -14 -76 -14 -13
			0 -44 -6 -69 -14 -24 -7 -73 -22 -109 -31 -111 -30 -242 -76 -321 -113 -251
			-117 -379 -194 -466 -279 -47 -47 -93 -125 -93 -160 0 -30 41 -102 75 -132 38
			-33 185 -111 209 -111 9 0 30 -6 48 -14 54 -23 205 -63 293 -77 28 -4 66 -13
			85 -18 19 -6 52 -11 72 -11 21 0 70 -6 110 -14 117 -23 216 -37 318 -46 52 -4
			140 -13 195 -19 504 -54 1048 -51 1580 9 190 21 514 82 624 116 25 8 52 14 60
			14 54 0 417 137 442 166 6 8 17 14 23 14 21 0 93 84 105 121 9 28 8 44 -4 80
			-43 120 -243 242 -635 384 -42 15 -202 65 -285 89 -33 10 -76 22 -95 29 -19 6
			-55 14 -80 18 -25 4 -88 17 -140 29 -52 12 -125 26 -162 31 -38 4 -73 11 -78
			14 -6 4 -38 10 -71 15 -58 8 -79 5 -119 -19 -42 -25 -152 -71 -170 -71 -12 0
			-31 -5 -42 -11 -34 -18 -147 -40 -243 -46 -154 -10 -340 36 -493 122 -56 31
			-69 34 -117 25z"/>
			</g>
			</symbol>

</svg>