<?xml version="1.0" standalone="no"?>
<!DOCTYPE svg PUBLIC "-//W3C//DTD SVG 20010904//EN"
 "http://www.w3.org/TR/2001/REC-SVG-20010904/DTD/svg10.dtd">
<svg version="1.0" xmlns="http://www.w3.org/2000/svg"
 viewBox="0 0 900.000000 900.000000">
<g transform="translate(0.000000,900.000000) scale(0.100000,-0.100000)"
fill="#000000" stroke="none">
<path d="M4533 8533 c-17 -54 -53 -116 -103 -183 -109 -146 -141 -240 -125
-361 6 -46 14 -59 59 -104 98 -97 197 -121 273 -66 94 68 124 160 99 297 -17
91 -26 116 -85 239 -55 115 -68 145 -76 173 -8 26 -33 29 -42 5z"/>
<path d="M3687 8343 c-4 -3 -7 -16 -7 -28 0 -28 -35 -93 -100 -188 -27 -41
-50 -80 -50 -86 0 -6 -6 -22 -14 -34 -7 -12 -19 -48 -26 -80 -11 -48 -11 -67
0 -110 17 -66 41 -98 107 -144 44 -30 63 -37 103 -37 43 0 55 5 86 35 59 57
74 96 74 196 0 94 -18 166 -66 271 -14 31 -32 71 -39 87 -20 50 -56 125 -59
125 -1 0 -6 -3 -9 -7z"/>
<path d="M5395 8325 c-9 -45 -47 -119 -95 -185 -14 -19 -40 -64 -59 -100 -32
-60 -34 -72 -35 -161 -1 -86 1 -99 24 -133 14 -20 49 -53 78 -73 43 -28 63
-35 102 -35 57 0 85 17 129 82 30 44 31 49 31 150 -1 109 -24 201 -71 280 -5
8 -12 22 -15 30 -3 8 -11 26 -19 40 -7 14 -16 39 -19 55 -4 17 -15 41 -26 55
l-18 25 -7 -30z"/>
<path d="M6295 8323 c-10 -46 -45 -113 -95 -183 -78 -107 -111 -220 -95 -325
12 -85 119 -177 205 -178 55 -1 84 18 129 83 30 43 31 50 31 146 0 114 -13
159 -100 349 -10 22 -26 59 -36 83 -22 54 -32 60 -39 25z"/>
<path d="M7160 8331 c0 -32 -44 -118 -101 -196 -57 -80 -109 -205 -109 -265 0
-33 25 -103 49 -138 9 -12 39 -37 66 -56 86 -57 143 -56 203 4 44 45 72 116
72 185 -1 61 -29 172 -65 252 -52 115 -75 171 -89 216 -7 23 -26 22 -26 -2z"/>
<path d="M1070 8331 c0 -22 -49 -114 -91 -171 -14 -19 -29 -42 -32 -50 -4 -8
-16 -30 -27 -48 -32 -53 -60 -142 -60 -193 0 -109 86 -208 203 -233 81 -18
187 110 187 227 0 52 -38 184 -80 277 -36 82 -62 146 -74 183 -5 17 -26 24
-26 8z"/>
<path d="M1946 8274 c-17 -36 -44 -85 -61 -108 -17 -22 -35 -48 -38 -56 -4 -8
-16 -30 -27 -48 -32 -53 -60 -142 -60 -193 0 -115 104 -228 214 -232 36 -2 51
4 82 29 46 37 83 107 90 172 8 60 -24 187 -76 302 -36 82 -62 146 -74 183 -9
29 -20 19 -50 -49z"/>
<path d="M2820 8315 c-5 -14 -10 -32 -10 -39 0 -7 -25 -51 -56 -97 -31 -46
-72 -114 -90 -151 -31 -60 -34 -74 -34 -155 0 -68 4 -94 17 -113 52 -74 126
-123 187 -123 53 0 76 13 123 70 l38 46 0 117 c0 128 0 125 -90 324 -15 33
-33 78 -39 100 -14 48 -32 57 -46 21z"/>
<path d="M7997 8263 c-19 -38 -57 -102 -85 -143 -28 -41 -60 -102 -71 -135
-25 -72 -27 -163 -5 -208 18 -36 83 -107 98 -107 5 0 17 -7 27 -16 11 -10 37
-17 67 -17 120 -2 198 146 163 312 -15 67 -23 93 -66 191 -33 75 -58 139 -69
173 -10 31 -25 18 -59 -50z"/>
<path d="M4326 7763 c-18 -5 -18 -17 -10 -381 5 -208 9 -476 9 -597 l0 -219
40 -8 c22 -5 44 -13 49 -18 6 -6 27 -10 47 -10 21 0 44 -7 53 -15 10 -11 36
-15 92 -15 67 0 75 -2 64 -15 -9 -10 -32 -15 -75 -15 -43 0 -66 5 -75 15 -7 8
-24 15 -39 15 -15 0 -35 6 -46 14 -13 9 -63 16 -135 20 -145 9 -164 1 -168
-66 -3 -43 -1 -48 27 -63 36 -18 40 -47 16 -115 -20 -57 -19 -157 3 -197 18
-34 96 -98 127 -104 30 -6 27 -23 -8 -39 -39 -18 -61 -60 -52 -100 12 -53 147
-100 286 -100 88 0 113 7 198 50 70 36 78 96 20 139 -31 23 -32 23 -62 6 -24
-14 -53 -18 -161 -18 -135 0 -176 6 -176 25 0 7 18 8 58 2 101 -14 235 -4 277
21 11 7 32 15 46 19 33 7 107 80 117 115 9 34 9 163 0 221 l-8 45 50 22 c61
27 79 57 60 103 -8 19 -27 38 -45 47 -30 14 -37 14 -92 -5 -32 -11 -71 -26
-86 -33 -33 -15 -50 -3 -23 16 18 14 18 22 7 192 -15 231 -15 875 0 961 6 36
8 67 3 72 -10 8 -359 20 -388 13z"/>
<path d="M913 7612 c-41 -6 -43 -16 -33 -272 5 -135 10 -379 10 -542 0 -281 1
-298 18 -298 10 0 27 -7 38 -15 17 -13 8 -14 -89 -12 -105 2 -109 1 -127 -23
-28 -36 -25 -66 10 -92 35 -25 38 -55 15 -132 -20 -65 -19 -95 5 -149 22 -50
89 -111 132 -122 16 -4 25 -11 23 -16 -3 -4 -12 -6 -20 -3 -39 15 -95 -59 -74
-99 29 -54 113 -85 229 -86 94 0 150 17 200 61 77 67 -11 153 -106 103 -31
-16 -135 -19 -169 -5 -30 12 -4 19 90 23 128 6 216 50 256 129 18 35 20 53 16
127 -3 47 -8 98 -12 112 -6 24 -3 28 29 39 45 14 79 55 70 84 -10 32 -45 66
-69 66 -27 0 -79 -16 -122 -38 -36 -18 -57 -9 -28 12 17 12 17 26 6 282 -14
339 -14 598 0 737 7 62 8 112 3 117 -9 8 -258 18 -301 12z m133 -1157 c5 -11
22 -15 65 -15 32 0 59 -4 59 -9 0 -23 -91 -29 -109 -7 -6 7 -29 16 -51 20 -49
8 -53 26 -5 26 22 0 38 -6 41 -15z"/>
<path d="M1813 7612 c-42 -6 -44 -17 -33 -253 5 -123 10 -366 10 -540 l0 -316
30 -6 c17 -4 30 -11 30 -17 0 -6 -38 -9 -100 -7 -97 2 -102 1 -120 -23 -28
-36 -25 -66 11 -92 34 -25 35 -44 9 -158 -18 -82 -2 -132 62 -193 28 -26 64
-51 82 -55 l31 -8 -42 -7 c-37 -6 -45 -12 -58 -43 -11 -28 -12 -41 -3 -57 28
-53 119 -87 235 -87 68 0 92 5 138 26 83 40 105 84 66 132 -23 26 -85 30 -115
7 -20 -15 -138 -21 -170 -9 -34 13 -1 24 73 24 50 0 89 5 107 15 16 8 36 15
45 15 29 0 97 58 119 102 18 38 21 56 17 124 -3 43 -8 93 -12 109 -6 28 -3 31
37 50 24 11 50 32 58 47 13 25 13 29 -6 54 -33 45 -47 50 -104 35 -28 -7 -65
-20 -81 -28 -35 -17 -52 -10 -24 11 17 13 18 25 6 272 -14 321 -14 607 0 748
6 60 7 112 2 116 -8 8 -258 18 -300 12z m137 -1157 c8 -10 31 -15 66 -15 30 0
54 -4 54 -9 0 -23 -91 -29 -109 -7 -6 7 -29 16 -51 20 -22 3 -40 11 -40 16 0
16 66 12 80 -5z"/>
<path d="M2670 7610 l-35 -5 1 -115 c0 -63 3 -311 7 -550 l8 -435 29 -8 c17
-4 30 -12 30 -18 0 -8 -26 -9 -84 -4 -113 9 -146 -7 -146 -72 0 -24 7 -37 30
-53 31 -22 38 -48 18 -68 -7 -7 -14 -52 -16 -107 l-4 -95 36 -44 c20 -24 59
-56 87 -69 l51 -26 -36 -7 c-39 -7 -76 -44 -76 -76 0 -55 121 -108 246 -108
86 0 128 13 191 58 43 31 49 55 23 92 -17 24 -29 30 -60 30 -21 0 -51 -7 -66
-15 -30 -16 -108 -20 -165 -8 -52 10 -9 21 86 23 53 0 86 5 99 15 11 8 28 15
39 15 29 0 95 57 118 102 29 57 34 124 15 192 -9 31 -14 61 -11 66 4 6 21 17
40 24 42 18 59 48 50 92 -11 60 -52 68 -151 28 -69 -27 -91 -26 -56 3 20 17
20 23 12 128 -18 204 -24 750 -11 879 7 65 9 122 4 126 -10 9 -253 17 -303 10z
m138 -1158 c3 -10 -5 -13 -29 -10 -18 2 -34 9 -37 16 -3 10 5 13 29 10 18 -2
34 -9 37 -16z m122 -22 c0 -23 -100 -26 -108 -2 -3 8 12 12 52 12 31 0 56 -4
56 -10z"/>
<path d="M3535 7610 l-30 -5 2 -550 3 -550 30 -8 c16 -4 30 -13 30 -19 0 -7
-24 -9 -77 -4 -43 3 -91 3 -107 -2 -54 -15 -61 -101 -10 -124 21 -10 24 -17
20 -37 -20 -82 -28 -163 -22 -204 6 -39 16 -56 56 -96 29 -29 61 -51 80 -54
38 -8 31 -27 -10 -27 -60 0 -84 -92 -32 -126 53 -36 123 -54 209 -54 157 0
262 80 207 158 -18 27 -76 30 -120 7 -29 -15 -120 -20 -162 -8 -43 11 -1 23
83 23 54 0 86 5 99 15 11 8 30 15 42 15 13 0 43 19 72 48 42 41 50 56 60 108
10 49 10 74 -1 126 -14 67 -9 98 17 98 7 0 25 9 40 21 36 28 37 89 1 113 -36
24 -61 20 -177 -29 -18 -7 -25 5 -11 18 3 4 6 262 5 574 l-2 568 -22 2 c-60 6
-247 8 -273 3z m135 -1155 c8 -10 30 -15 61 -15 48 0 72 -13 43 -24 -30 -12
-84 -6 -90 9 -4 8 -17 15 -29 15 -30 0 -55 10 -55 21 0 15 57 10 70 -6z"/>
<path d="M5245 7610 l-30 -5 2 -550 2 -550 31 -8 c16 -4 30 -13 30 -19 0 -7
-24 -9 -77 -4 -43 3 -91 3 -107 -2 -54 -15 -61 -101 -10 -124 21 -10 24 -17
20 -37 -17 -74 -26 -161 -21 -202 8 -61 64 -121 138 -150 22 -9 25 -14 15 -20
-7 -5 -22 -9 -34 -9 -34 0 -56 -33 -52 -76 3 -36 7 -41 63 -69 53 -26 72 -30
160 -33 93 -3 104 -1 154 25 30 15 64 40 74 55 20 26 20 27 0 60 -15 27 -26
34 -57 36 -20 2 -44 -2 -51 -8 -18 -15 -122 -25 -169 -16 -62 12 -29 26 62 26
61 1 93 5 106 15 11 8 28 15 37 15 26 0 83 41 106 75 34 52 46 103 38 164 -4
31 -8 74 -9 95 -1 35 2 40 29 49 46 15 55 26 55 72 0 48 -22 75 -61 75 -21 0
-75 -17 -141 -45 -21 -9 -23 2 -5 24 11 12 12 39 6 121 -5 58 -8 310 -7 560
l1 455 -24 2 c-64 6 -248 8 -274 3z m135 -1155 c8 -10 31 -15 66 -15 30 0 54
-4 54 -9 0 -24 -97 -30 -106 -6 -4 8 -17 15 -29 15 -30 0 -55 10 -55 21 0 15
57 10 70 -6z"/>
<path d="M6145 7610 l-30 -5 2 -550 3 -550 30 -8 c60 -15 29 -26 -69 -24 -61
1 -104 -2 -111 -9 -6 -6 -13 -27 -16 -46 -6 -36 13 -69 47 -80 12 -4 12 -11 1
-42 -8 -20 -14 -78 -15 -129 -2 -77 1 -96 17 -118 26 -33 115 -99 136 -99 13
0 13 -1 0 -10 -8 -5 -25 -10 -37 -10 -30 0 -55 -40 -51 -82 3 -29 10 -36 63
-63 53 -26 72 -30 160 -33 93 -3 104 -1 154 25 30 15 64 40 74 55 20 26 20 27
0 60 -15 27 -26 34 -57 36 -20 2 -44 -2 -51 -8 -18 -15 -122 -25 -171 -16 -60
12 -21 26 71 26 54 0 86 5 99 15 11 8 30 15 42 15 13 0 43 19 71 48 56 54 79
116 70 185 -4 23 -9 62 -13 87 l-6 46 43 19 c42 19 44 22 47 67 3 39 -1 49
-20 62 -12 9 -32 16 -43 16 -24 0 -97 -25 -125 -42 -25 -16 -37 -3 -18 19 12
15 13 36 7 123 -5 58 -8 310 -7 560 1 383 -1 455 -13 457 -39 5 -258 8 -284 3z
m139 -1155 c8 -9 33 -15 60 -15 46 0 68 -13 40 -24 -30 -12 -84 -6 -90 9 -4 8
-17 15 -29 15 -30 0 -55 10 -55 21 0 15 57 10 74 -6z"/>
<path d="M7005 7610 l-30 -5 0 -123 c0 -67 1 -315 3 -551 l2 -429 35 -6 c70
-14 35 -26 -66 -24 -95 3 -102 2 -120 -21 -28 -34 -24 -66 13 -94 l32 -25 -19
-80 c-22 -97 -17 -160 17 -207 25 -36 81 -78 117 -90 27 -8 27 -29 0 -22 -30
8 -48 -1 -64 -34 -31 -60 -7 -96 88 -129 115 -40 267 -21 335 42 27 26 29 78
4 101 -23 21 -90 22 -116 2 -20 -15 -120 -20 -164 -8 -43 11 -1 23 85 23 45 0
84 4 88 9 3 5 20 13 38 16 40 9 112 67 133 107 15 28 18 108 11 233 -2 25 4
33 31 47 63 31 78 75 41 122 -29 37 -65 34 -191 -19 -18 -7 -26 9 -9 19 5 4 8
244 6 573 -2 469 -5 568 -16 570 -38 5 -258 8 -284 3z m139 -1155 c9 -9 33
-15 65 -15 50 0 74 -13 45 -24 -27 -10 -75 -7 -102 8 -15 8 -39 17 -54 21 -16
3 -28 10 -28 15 0 16 57 12 74 -5z"/>
<path d="M7864 7610 l-29 -5 0 -130 c1 -72 4 -319 8 -550 l7 -420 32 -11 c49
-16 20 -24 -79 -21 -77 2 -94 -1 -112 -17 -31 -28 -27 -71 9 -98 34 -25 38
-53 15 -118 -20 -56 -18 -126 4 -173 18 -40 111 -117 140 -117 14 0 14 -2 1
-10 -8 -5 -25 -10 -37 -10 -24 0 -53 -43 -53 -79 0 -26 52 -64 113 -85 70 -23
200 -21 257 5 57 25 100 66 100 94 0 53 -76 81 -136 50 -29 -15 -129 -20 -172
-8 -43 11 -1 23 85 23 45 0 84 4 88 9 3 5 20 13 37 17 66 14 117 60 144 130
19 51 16 166 -6 201 -17 27 -2 49 41 58 56 13 75 72 38 119 -29 37 -65 34
-191 -19 -22 -9 -24 11 -3 23 14 7 14 31 4 198 -16 281 -16 762 0 852 7 41 9
78 5 82 -10 9 -266 18 -310 10z m140 -1155 c9 -9 33 -15 65 -15 53 0 76 -14
38 -24 -38 -10 -75 -7 -91 9 -8 8 -24 15 -34 15 -27 0 -52 10 -52 21 0 15 57
10 74 -6z"/>
<path d="M4640 5729 c-14 -6 -85 -9 -160 -8 l-135 3 -5 -194 -5 -194 -60 -13
c-155 -32 -309 5 -402 97 -40 39 -103 133 -103 154 0 8 -6 30 -14 48 -8 18
-17 45 -20 59 -5 24 -12 27 -53 31 -27 3 -55 1 -64 -3 -41 -20 -29 -156 25
-281 26 -61 116 -143 201 -183 42 -19 86 -35 100 -35 13 0 36 -5 52 -12 15 -6
95 -14 178 -17 138 -6 150 -8 154 -25 8 -43 -11 -325 -23 -342 -11 -14 -35
-17 -187 -17 -262 -1 -458 31 -669 108 -115 42 -254 131 -332 212 -35 37 -128
167 -128 180 0 3 -13 35 -30 70 -16 34 -30 73 -30 86 0 12 -7 47 -15 77 -8 30
-15 83 -15 117 0 34 -3 64 -8 67 -4 2 -31 -2 -60 -9 -36 -10 -61 -11 -77 -5
-35 13 -45 -12 -45 -112 1 -130 26 -278 59 -353 77 -174 172 -291 316 -391 46
-32 205 -107 245 -115 19 -4 76 -19 125 -32 169 -46 380 -55 747 -31 88 6 98
5 104 -11 11 -28 -15 -248 -30 -264 -34 -34 -653 -38 -851 -6 -177 29 -315 62
-383 91 -18 8 -38 14 -46 14 -17 0 -164 64 -234 102 -145 79 -297 198 -382
299 -67 80 -110 136 -110 145 0 4 -6 15 -14 23 -18 21 -94 164 -110 210 -49
137 -77 234 -97 341 -17 90 -24 102 -57 93 -33 -8 -36 -8 -94 1 l-47 7 -12
-43 c-12 -45 -7 -244 10 -348 23 -148 84 -302 175 -440 66 -99 241 -273 341
-338 121 -79 317 -173 420 -202 17 -4 44 -13 60 -18 143 -48 327 -84 595 -117
90 -11 222 -15 473 -15 l348 0 -7 -72 c-3 -40 -12 -79 -19 -86 -8 -9 -57 -17
-141 -22 -71 -5 -174 -14 -229 -19 -148 -15 -510 -13 -650 4 -66 8 -142 15
-170 15 -49 0 -155 17 -282 46 -34 8 -73 14 -86 14 -13 0 -43 6 -68 14 -24 7
-71 22 -104 31 -300 89 -508 189 -712 342 -99 74 -276 249 -308 304 -5 10 -32
50 -58 89 -26 39 -51 78 -54 88 -3 9 -11 24 -18 32 -18 23 -105 232 -105 252
0 10 -6 32 -14 50 -18 44 -34 109 -46 188 -6 36 -16 103 -23 149 l-13 84 -99
0 -100 0 -8 -44 c-13 -68 0 -377 19 -451 46 -183 66 -239 135 -383 100 -205
286 -413 514 -571 17 -11 37 -23 45 -27 8 -4 29 -16 45 -27 84 -55 351 -180
385 -180 9 0 21 -5 27 -11 6 -6 26 -14 44 -19 19 -4 48 -13 64 -18 17 -6 55
-17 85 -25 30 -8 80 -22 111 -31 31 -9 66 -16 78 -16 12 0 47 -6 79 -14 266
-67 816 -99 1342 -77 183 7 266 7 271 0 10 -18 -13 -114 -47 -197 -8 -18 -14
-38 -14 -45 0 -7 -9 -23 -20 -37 -41 -53 -22 -79 100 -137 122 -59 163 -68
305 -67 106 0 143 4 199 22 110 35 226 102 226 130 0 8 -11 38 -24 66 -31 66
-66 170 -66 196 0 12 -5 31 -11 42 -8 16 -8 24 3 34 11 12 31 12 108 4 155
-16 859 -13 1040 5 524 51 874 140 1215 307 104 51 113 56 183 101 24 15 45
27 48 27 15 0 170 129 244 202 116 115 167 178 236 293 23 38 114 225 114 235
0 5 6 24 14 42 19 43 42 133 61 238 11 61 15 134 13 260 l-3 175 -85 1 c-47 0
-94 2 -105 5 -17 4 -20 -5 -32 -81 -7 -47 -18 -110 -24 -140 -6 -30 -15 -75
-19 -100 -9 -46 -29 -119 -51 -180 -11 -32 -23 -58 -72 -170 -110 -246 -359
-513 -627 -671 -74 -43 -182 -98 -250 -127 -19 -8 -44 -20 -55 -25 -11 -6 -33
-14 -50 -18 -16 -4 -50 -15 -75 -25 -88 -33 -264 -78 -425 -108 -44 -8 -107
-20 -140 -27 -33 -6 -114 -15 -180 -19 -440 -30 -483 -31 -656 -20 -96 6 -236
15 -312 20 -76 5 -144 13 -151 19 -13 11 -36 104 -36 146 l0 22 319 -5 c328
-5 520 6 741 43 47 8 101 16 120 18 58 7 205 45 320 83 41 14 89 29 106 33 28
7 252 115 299 144 136 83 302 238 383 356 45 66 121 213 132 256 5 17 13 44
19 60 30 89 41 154 46 285 7 176 -2 246 -30 242 -11 -2 -51 -4 -90 -5 l-70 -2
-12 -35 c-7 -19 -12 -46 -12 -58 -2 -69 -72 -289 -132 -419 -53 -113 -173
-280 -255 -358 -80 -75 -109 -98 -194 -156 -52 -35 -124 -78 -160 -96 -123
-61 -200 -93 -221 -93 -11 0 -32 -6 -47 -13 -52 -26 -202 -60 -401 -92 -137
-22 -659 -20 -791 3 -86 16 -95 19 -101 42 -10 34 -11 238 -1 243 4 2 52 1
107 -4 347 -28 590 -20 775 28 52 13 112 27 132 32 21 5 43 13 50 18 7 5 38
20 68 32 136 58 289 189 367 316 29 47 76 151 93 208 27 91 45 273 34 338 l-9
54 -45 1 c-25 0 -62 6 -83 13 -22 7 -42 9 -47 5 -4 -5 -10 -54 -13 -109 -5
-125 -37 -226 -114 -368 -17 -32 -91 -116 -143 -163 -195 -178 -538 -278 -945
-278 -182 1 -231 7 -245 33 -5 10 -11 92 -12 182 l-3 164 170 6 c94 3 183 11
198 17 16 7 37 12 49 12 19 0 77 22 108 41 8 5 24 13 35 18 43 18 123 102 154
160 28 53 33 73 38 162 7 120 2 128 -72 120 l-47 -6 -23 -70 c-84 -259 -260
-360 -540 -311 l-70 12 -6 200 c-3 109 -7 200 -7 202 -4 5 -28 0 -52 -9z"/>
<path d="M4928 3372 c-63 -50 -149 -92 -253 -126 -105 -34 -335 -18 -427 30
-14 8 -31 14 -36 14 -6 0 -45 20 -87 46 -43 25 -85 44 -94 42 -10 -2 -17 -15
-18 -38 -3 -40 10 -51 127 -106 263 -125 506 -134 725 -27 132 65 185 121 171
178 -9 37 -51 32 -108 -13z"/>
<path d="M3973 3227 c-9 -18 -20 -45 -24 -62 -4 -16 -17 -55 -29 -85 -12 -30
-26 -71 -30 -90 -5 -19 -20 -73 -33 -120 -116 -393 -38 -547 348 -688 231 -85
462 -84 645 2 30 14 67 26 81 26 36 0 142 68 179 115 100 126 114 309 47 605
-17 78 -77 261 -89 274 -4 6 -8 18 -8 28 0 27 -22 22 -76 -16 -55 -39 -164
-94 -239 -120 -65 -23 -249 -32 -335 -17 -135 23 -262 74 -376 150 l-44 30
-17 -32z"/>
<path d="M4143 2038 c38 -65 42 -80 46 -151 4 -89 -11 -140 -65 -223 -19 -28
-34 -57 -34 -65 0 -21 113 -92 190 -118 186 -65 354 -51 555 45 39 19 81 42
94 53 l24 18 -21 34 c-11 19 -35 63 -52 98 -29 57 -32 73 -33 155 0 96 9 125
61 194 26 35 21 38 -37 23 -160 -41 -199 -45 -381 -45 -168 1 -194 4 -283 28
-53 14 -99 26 -101 26 -3 0 14 -32 37 -72z"/>
<path d="M3925 1520 c-172 -30 -310 -59 -371 -76 -28 -8 -62 -14 -76 -14 -13
0 -44 -6 -69 -14 -24 -7 -73 -22 -109 -31 -111 -30 -242 -76 -321 -113 -251
-117 -379 -194 -466 -279 -47 -47 -93 -125 -93 -160 0 -30 41 -102 75 -132 38
-33 185 -111 209 -111 9 0 30 -6 48 -14 54 -23 205 -63 293 -77 28 -4 66 -13
85 -18 19 -6 52 -11 72 -11 21 0 70 -6 110 -14 117 -23 216 -37 318 -46 52 -4
140 -13 195 -19 504 -54 1048 -51 1580 9 190 21 514 82 624 116 25 8 52 14 60
14 54 0 417 137 442 166 6 8 17 14 23 14 21 0 93 84 105 121 9 28 8 44 -4 80
-43 120 -243 242 -635 384 -42 15 -202 65 -285 89 -33 10 -76 22 -95 29 -19 6
-55 14 -80 18 -25 4 -88 17 -140 29 -52 12 -125 26 -162 31 -38 4 -73 11 -78
14 -6 4 -38 10 -71 15 -58 8 -79 5 -119 -19 -42 -25 -152 -71 -170 -71 -12 0
-31 -5 -42 -11 -34 -18 -147 -40 -243 -46 -154 -10 -340 36 -493 122 -56 31
-69 34 -117 25z"/>
</g>
</svg>
