<svg id="Layer_1" data-name="Layer 1" xmlns="http://www.w3.org/2000/svg" viewBox="0 0 373.21 367.28">
  <title>pumpkin</title>
  <g id="lEoREz.tif">
    <g>
      <path d="M191.71,384.88H14.58V17.6H387.79V230.93c-1.42-7.8-2.44-15.69-4.33-23.38-9.51-38.8-33.54-66.82-66.2-88.32C293,103.29,265.93,95.1,237.93,88.85,215.28,83.79,203.32,60,211.67,38.37c2.27-5.9,6.4-9.12,12.85-8.19s10,5.32,10.61,11.21c.27,2.72-1.85,6.56-4.11,8.37-1.6,1.29-5.39.49-7.9-.31-1.05-.34-2.13-3.34-1.73-4.7s2.42-2.9,4-3.4c1.27-.39,3,.67,5.7,1.41-3.78-5-7.21-5-10.44-1.8-3.45,3.39-3.93,7.94.19,10.62,3.09,2,8.28,3.61,11.2,2.34a17,17,0,0,0,8.4-9.74c2.73-9.29-3-19.1-12-23-10.76-4.66-23.82-.54-28.66,11-3.32,7.94-3.12,17.29-5,25.89-1.17,5.23-2.4,10.88-5.31,15.19-7.18,10.61-18.34,15-30.6,17.45-37.52,7.49-71.14,22.91-99.07,49.63C10.2,187.72,2.89,255.63,42.05,309.82c22.61,31.29,53.71,51.06,90,63,9.38,3.07,19.07,5.21,28.61,7.78-30.13-10.19-55.83-27-74.61-52.26-39.86-53.67-43.93-111-11.34-169.39,18.64-33.42,47.71-55.45,84.42-66.88,4-1.24,8.32-1.27,12.5-1.86-30.61,17.41-46,40.09-57.9,67.57-6,13.71-11.26,27.74-16.25,41.84C95.23,206,94.44,213,92.66,221.12l86.62,2.72c-6.72-8.25-12.24-14.34-16.9-21-2.15-3.09-4-7.47-3.63-11,1.26-13,3-26,5.5-38.73,3.82-19.25,8.51-38.37,19.81-54.92,2.15-3.15,5.65-6.76,9.07-7.44,17.88-3.59,23.36-.55,31.69,16,1.85,3.67,4,7.35,4.92,11.29,4.93,20.66,9.41,41.42,14.25,62.09,2.49,10.63-.39,19-8.5,26.4-5,4.54-8.53,10.59-12.88,16.16,1.55.68,2,1,2.41,1q38.44-.79,76.89-1.65c5.35-.12,5.69-3.58,4.7-7.53-2.64-10.53-5.39-21-8.16-31.53-6.17-23.45-16-45-31.71-63.79-10-12-22.22-21.11-37.13-28.36,44.11-3.21,102.46,51.89,116.15,108.68,9.38,38.92,4.17,76-15.74,110.69s-49.43,57.34-87.29,69.65c25.31-4.22,49.09-12.59,70.8-26.18,37-23.15,63.42-54.15,71.51-98.39.95-5.19,1.82-10.39,2.73-15.58V384.88H212c3.91-1.19,7.85-2.3,11.73-3.59,30.44-10.09,48.75-32.8,62.47-60.22,2.1-4.2,3.79-8.61,5.76-13.13l-14.41-5.69.73-2.27,24.6,5.16c.35-5.95.83-11.17.94-16.4.35-16.17.29-16.28,16.51-17.18,4.16-.23,5.65-1.62,4.85-5.79-1.7-8.83-3.19-17.71-4.88-27.18-2.29,1.51-4.93,3.47-7.77,5.05a34.84,34.84,0,0,1-5.75,2c-.62-2-1.57-3.93-1.79-6A46.5,46.5,0,0,1,305,231c.47-5.9-2.13-7.46-7.8-7-14,1.18-28,2.18-42,2.51-6.29.15-8.8,2-8.34,8.4a150.3,150.3,0,0,1,0,17.42c-.24,5.39-.94,10.76-1.59,17.87l-17.82-18.82-21.29,29.67-22-31.44-26.09,27.45c-.48-15.71-1.09-29.37-1.22-43,0-5.25-1.75-7.22-7.16-7.27-11.36-.1-22.71-.89-34.06-1.33-5.2-.2-12.37-2.32-15.08.23s-1.46,9.88-1.76,15.12c-.39,6.82-4.27,9.22-10.7,6.42-3.22-1.4-6.39-2.93-9.58-4.4l-1.65.74c7,9.54,5.38,19.09.2,28.88,2.79.35,4.42.59,6.05.74,14.11,1.3,15.18,2.38,17,16.2.61,4.62,1.6,9.19,2.45,14l23.16-7.08,1,2.66c-3.6,1.57-7.08,3.53-10.82,4.6-4.19,1.2-5,3.37-3.22,6.95,3.73,7.59,7,15.45,11.38,22.69,13.42,22.38,30.84,40.29,56.59,48.34C184.34,382.68,188,383.77,191.71,384.88Z" transform="translate(-14.58 -17.6)" fill="#fff"/>
      <path d="M387.79,239.64c-.91,5.19-1.78,10.4-2.73,15.58-8.09,44.24-34.53,75.24-71.51,98.39-21.71,13.59-45.5,22-70.8,26.18,37.85-12.31,67.44-35.07,87.29-69.65s25.12-71.77,15.74-110.69c-13.69-56.8-72-111.89-116.15-108.68,14.9,7.24,27.09,16.33,37.13,28.36,15.69,18.78,25.54,40.34,31.71,63.79,2.76,10.5,5.52,21,8.16,31.53,1,4,.65,7.42-4.7,7.53q-38.44.85-76.89,1.65c-.43,0-.86-.36-2.41-1C227,217,230.54,211,235.5,206.43c8.11-7.43,11-15.77,8.5-26.4-4.84-20.68-9.33-41.44-14.25-62.09-.94-3.93-3.07-7.62-4.92-11.29-8.33-16.53-13.81-19.57-31.69-16-3.42.69-6.91,4.29-9.07,7.44-11.31,16.54-16,35.67-19.81,54.92-2.54,12.78-4.24,25.76-5.5,38.73-.35,3.57,1.47,8,3.63,11,4.66,6.69,10.18,12.78,16.9,21l-86.62-2.72c1.77-8.13,2.57-15.1,4.85-21.54,5-14.1,10.28-28.13,16.25-41.84,11.95-27.48,27.3-50.17,57.9-67.57-4.17.59-8.52.63-12.5,1.86-36.71,11.42-65.78,33.46-84.42,66.88C42.15,217.35,46.23,274.63,86.09,328.3c18.78,25.29,44.47,42.07,74.61,52.26-9.55-2.57-19.23-4.7-28.61-7.78-36.31-11.91-67.41-31.68-90-63C2.89,255.63,10.2,187.72,59.72,140.36c27.93-26.72,61.55-42.14,99.07-49.63,12.26-2.45,23.42-6.83,30.6-17.45,2.91-4.31,4.14-10,5.31-15.19,1.92-8.6,1.73-18,5-25.89,4.84-11.57,17.9-15.69,28.66-11,9,3.91,14.77,13.72,12,23a17,17,0,0,1-8.4,9.74c-2.93,1.27-8.11-.33-11.2-2.34-4.13-2.68-3.65-7.23-.19-10.62,3.23-3.17,6.67-3.19,10.44,1.8-2.71-.74-4.43-1.8-5.7-1.41-1.6.49-3.6,1.95-4,3.4s.68,4.37,1.73,4.7c2.51.8,6.3,1.6,7.9.31,2.26-1.81,4.38-5.65,4.11-8.37-.59-5.89-4.28-10.29-10.61-11.21s-10.58,2.29-12.85,8.19c-8.35,21.66,3.61,45.42,26.26,50.48,28,6.25,55.12,14.44,79.33,30.39,32.65,21.5,56.69,49.52,66.2,88.32,1.88,7.68,2.91,15.58,4.33,23.38Z" transform="translate(-14.58 -17.6)"/>
      <path d="M191.71,384.88c-3.68-1.11-7.37-2.2-11-3.35-25.74-8.05-43.17-26-56.59-48.34-4.34-7.24-7.64-15.09-11.38-22.69-1.76-3.58-1-5.75,3.22-6.95,3.74-1.07,7.22-3,10.82-4.6l-1-2.66-23.16,7.08c-.85-4.77-1.84-9.34-2.45-14-1.83-13.83-2.9-14.91-17-16.2-1.63-.15-3.26-.4-6.05-.74,5.18-9.79,6.78-19.34-.2-28.88l1.65-.74c3.19,1.47,6.36,3,9.58,4.4,6.43,2.8,10.31.4,10.7-6.42.3-5.24-1.07-12.45,1.76-15.12s9.88-.43,15.08-.23c11.36.44,22.71,1.23,34.06,1.33,5.41,0,7.11,2,7.16,7.27.13,13.66.74,27.32,1.22,43l26.09-27.45,22,31.44,21.29-29.67,17.82,18.82c.66-7.11,1.35-12.48,1.59-17.87a150.3,150.3,0,0,0,0-17.42c-.46-6.39,2.05-8.25,8.34-8.4,14-.33,28-1.33,42-2.51,5.67-.48,8.27,1.08,7.8,7a46.5,46.5,0,0,0,.06,8.7c.22,2,1.17,4,1.79,6a34.84,34.84,0,0,0,5.75-2c2.84-1.58,5.48-3.54,7.77-5.05,1.69,9.47,3.17,18.34,4.88,27.18.8,4.17-.69,5.56-4.85,5.79-16.21.9-16.15,1-16.51,17.18-.11,5.23-.59,10.45-.94,16.4L278.33,300l-.73,2.27L292,307.94c-2,4.52-3.66,8.93-5.76,13.13-13.72,27.42-32,50.13-62.47,60.22-3.88,1.29-7.82,2.4-11.73,3.59h-5.81c5.72-6.05,12.95-11.29,16.81-18.35,5.49-10.06,8.55-21.45,12.56-32.3,1.06-2.87,1.77-5.87,2.75-9.21l26.4,10.28,1.08-2.51c-9.74-4.54-19.55-8.92-29.17-13.7-4.33-2.15-7.06-1.1-9.85,2.47-5.44,7-11.18,13.68-18.42,22.48-9.55-10.3-18.31-20-27.37-29.31-1.59-1.64-5.11-3.5-6.59-2.8-10.13,4.74-20,10.13-29.89,15.31l1.28,2.62,18.5-8.2c3.4,11,6.12,21.28,9.78,31.22,4.71,12.81,10.57,25,23.42,32Z" transform="translate(-14.58 -17.6)"/>
      <path d="M197.52,384.88c-12.85-7-18.71-19.22-23.42-32-3.66-9.94-6.37-20.22-9.78-31.22l-18.5,8.2-1.28-2.62c9.93-5.18,19.76-10.57,29.89-15.31,1.48-.69,5,1.17,6.59,2.8,9.06,9.36,17.82,19,27.37,29.31,7.24-8.8,13-15.53,18.42-22.48,2.8-3.57,5.53-4.62,9.85-2.47,9.61,4.79,19.43,9.16,29.17,13.7l-1.08,2.51L238.36,325c-1,3.34-1.69,6.34-2.75,9.21-4,10.86-7.07,22.25-12.56,32.3-3.86,7.07-11.09,12.3-16.81,18.35Z" transform="translate(-14.58 -17.6)" fill="#fff"/>
    </g>
  </g>
</svg>
