<svg id="Layer_1" data-name="Layer 1" xmlns="http://www.w3.org/2000/svg" viewBox="0 0 379.98 393.34">
  <title>turkey</title>
  <g id="lK6JZj.tif">
    <g>
      <path d="M391.33,397.34h-380V4h380Zm-219.6-25.14c-3.78,4-7.72,8.11-11.49,12.33a25.62,25.62,0,0,0-4,5.7c-1.57,3.22.08,5.47,3.55,4.8a27.07,27.07,0,0,0,7.51-2.58c5-2.67,9.88-5.58,14.7-8.57a58.36,58.36,0,0,1,29.09-8.6c5.86-.24,11.7-1.28,17.53-2.11,2.49-.35,4.41-1.7,4.81-4.4s-1.18-4.33-3.3-5.25c-3.24-1.41-6.68-2.36-10-3.7-2.21-.91-4.86-1.65-6.32-3.33-6.14-7.08-9.88-15.29-10-24.86-.06-5.36,7.47-10.08,12.34-7.75,15.3,7.31,31.42,9.49,48.14,7.53,5.37-.63,10.69-1.76,15.95-2.64,3.08,4.34,3.75,8.61.93,13.4a91.46,91.46,0,0,0-5.2,11.19c-1.32,3.15-3.53,5.07-6.53,6.73a15.67,15.67,0,0,0-5.88,5.93c-1.79,3.29.08,6.2,3.81,6.78a25.35,25.35,0,0,0,5.65.22,79.22,79.22,0,0,1,25.14,2.21,131.83,131.83,0,0,0,18.65,3.67c7.71.79,15.52.77,23.29.9a4.51,4.51,0,0,0,4.88-3.74c.5-2.66-1.5-3.71-3.47-4.64-1.7-.8-3.43-1.53-5.14-2.29,6.46-.7,12.68-.61,18.9-.75a30.39,30.39,0,0,0,7.55-1c2.51-.71,3.11-2.81,1.15-4.55-1.75-1.55-4-3.13-6.22-3.46-7-1.05-14.11-1.58-21.19-2.2-2.15-.19-4.33,0-7.15,0,3.51-2.85,8.22-3.64,8.86-8.5-3.23-2.86-6.9-2.49-10.5-1.58-4.53,1.15-9,2.56-13.46,3.9-9.12,2.72-18.23,5.47-27.88,8.37,3.1-7.2,5.87-14,8.95-20.56.55-1.19,2.33-1.83,3.57-2.68,1.7-1.16,3.76-2,5.09-3.45a18.05,18.05,0,0,0,4.42-13.6c-.07-1.23.42-3.17,1.29-3.65,3.64-2,7.36-4.32,11.34-5.18,14.86-3.2,27.9-9.57,38.72-20.35.63-.62,1.32-1.17,2.52-2.22-.68,3.86-1.43,6.9-1.67,10-.11,1.47.74,3,1.16,4.54,1.63-.69,3.83-.93,4.8-2.14,9.29-11.66,17-24.22,20.9-38.79,5.37-19.84,1.36-36.93-14.29-50.88a64.88,64.88,0,0,1-15.95-20.78c-2-4.31-5.1-8-9.52-10a15.86,15.86,0,0,1-8.27-8.25c-1.78-3.83-3.82-7.55-5.47-11.43a45.8,45.8,0,0,1-4-19.8,26.61,26.61,0,0,1,9.57-19.66c-.72,6.09-1.79,12.07-2.77,18.07-1.15,7.09-1.63,14.18,1,21.09,2.45,6.49,8.16,7.58,12.06,1.88a31,31,0,0,0,4.6-11.57c1.65-8.89-.38-17.7-1.58-26.52-.84-6.15-1.32-12.36-1.56-18.56-.13-3.49,2-5.81,4.62-5.26,8.36,1.76,17.9-1,24.54,6.85,9.67-15.48,4.78-33.45-11-41.65-2.14-1.11-4.25-2.28-6.1-3.27.45-2.21,1.2-3.95,1.09-5.62C363.81,45,363,34.11,361.87,23.27a37.82,37.82,0,0,0-2.78-9.92c-2.46-6.13-7.59-7-12.39-2.42-.72.69-1.33,1.49-2,2.2-.38.37-1,1-1.28.89-3.79-1.36-8.42-1.9-11.13-4.45C326,3.71,322.49,3.17,316.07,9a6.56,6.56,0,0,1-3.67,1.91c-10.83.34-19.8,5.3-27.73,11.89-11,9.17-15.31,21.21-11.47,35.28,1.13,4.12.73,7.33-1.41,10.65-5.26,8.16-4.61,16.32-.36,24.69a74.69,74.69,0,0,0,24.29,27.91A16.15,16.15,0,0,1,303,132.07c.67,3.6,1.83,7.12,2.52,10.72,1.49,7.71,2.82,15.45,4.36,24a22.3,22.3,0,0,0-19.23.86,2.9,2.9,0,0,1-2.23-.07c-4-1.88-7.95-3.88-12.12-5.94,1.52-2.19,2.85-4.08,4.15-6a56,56,0,0,0,4.06-6.11c2-4,4.29-8.09,5.53-12.4,1.66-5.74-1.7-9.53-7.69-9.58-1.93,0-3.86,0-5.92,0,.13-1,.16-1.42.24-1.85,2.06-10.54-2.32-16-13-16.13-2,0-4,0-6.2,0,.29-1.23.5-2.19.73-3.14,1.16-4.75,2.52-9.47,3.43-14.27,1.24-6.51-2.93-10.41-9.35-8.94a46.79,46.79,0,0,0-5.71,1.83c-2.22.82-4.4,1.76-6.91,2.77.09-1.4.16-2.38.2-3.37.23-5.22.88-10.46.6-15.65-.53-9.51-8.41-14.48-17.25-10.94a42.21,42.21,0,0,0-8.75,5.39c-2.94,2.14-5.63,4.61-8.77,7.22-.48-3.17-.79-5.92-1.34-8.63-1-4.89-1.61-9.95-3.3-14.6-2.92-8-10.55-9.63-16.76-3.77a30.61,30.61,0,0,0-5.66,7.36c-2.73,4.94-5,10.12-7.61,15.42l-3.53-7.4c-3-6.38-6.59-12.38-12.1-17-4.62-3.87-9.82-6-16-5.36-15,1.64-25.1,15.22-23,30.88.31,2.23.64,4.46,1.06,7.38-2.33-1.13-3.89-1.91-5.47-2.66-8-3.82-16.35-6.48-25.44-5.37-7.17.88-9.75,5.53-6.7,12.1.8,1.72,1.74,3.38,2.84,5.51-1.89-.48-3.16-.82-4.44-1.12C67.88,80.84,58.52,83.12,50.53,90c-11,9.55-10.84,25.85.45,35,8,6.43,16.1,12.66,24.52,18.46,21.19,14.61,41.93,29.75,60.36,47.83.87.85,1.66,1.78,2.49,2.67a12.6,12.6,0,0,1-4.82-1.77c-14.21-7.64-28.31-15.49-42.65-22.85C77,162.23,62.4,156.7,46.78,154.56c-9.39-1.28-18.22.07-25.87,6.15-11.86,9.44-10.63,25.63,2.56,33a31.24,31.24,0,0,0,7.67,3.19c7.12,1.76,14.29,3.42,21.51,4.7,26.52,4.68,53,9.66,78.62,18.12,1.2.4,2.39.85,3.58,1.28a19.15,19.15,0,0,1-6,.33c-17.46-.57-34.93-1.85-52.36-1.42-12.48.31-25,2.48-37.33,4.63A35.25,35.25,0,0,0,18,237,20.53,20.53,0,0,0,29.6,270.65a48.8,48.8,0,0,0,24.68-1.76C69.76,264,85.21,259,100.69,254.06c5.16-1.64,10.38-3.08,16.16-4.78-.55,1-.8,1.49-1,1.94-1.82,3.52-1.16,5.41,2.64,6.55a44.64,44.64,0,0,0,7.2,1.33c2.88.37,5.79.54,9,.83-4.1,3.09-8.05,5.63-11.43,8.79-1.49,1.4-2.74,4.24-2.36,6.07.31,1.47,3.1,3,5,3.44,6.62,1.44,13.34,2.41,20,3.55l2.77.46.14.82c-3.86,1.6-7.77,3.1-11.56,4.86-1.17.54-3,2.2-2.82,2.63.63,1.48,1.76,3.2,3.14,3.8a25.08,25.08,0,0,0,8.05,2c10.29.73,20.6,1.25,30.91,1.66,2.12.08,2.94.64,3.66,2.72a38.14,38.14,0,0,0,4.64,9.4c1.59,2.27,2.71,4.15,1.65,6.95-1,2.63-.24,4.78,2.4,6.14a16.76,16.76,0,0,1,2.1,1.52c-2.68,8.23-1.44,16.31.3,24.69a49.71,49.71,0,0,0-24.35-.31c-2,.51-3.84,2-5.82,3.12,3.36,5.14,8.58,4.19,12.88,6-6.69,2.18-13.16,4.16-19.54,6.42a18,18,0,0,0-6.3,3.56c-1.35,1.28-1.8,3.51-2.66,5.32,1.79.84,3.52,2.07,5.4,2.41a15.57,15.57,0,0,0,5.61-.53C161.78,374.43,167,373.25,171.73,372.21Z" transform="translate(-11.35 -4.01)" fill="#fff"/>
      <path d="M171.73,372.21c-4.77,1-10,2.22-15.17,3.28A15.57,15.57,0,0,1,151,376c-1.88-.34-3.61-1.57-5.4-2.41.85-1.81,1.3-4,2.66-5.32a18,18,0,0,1,6.3-3.56c6.38-2.26,12.85-4.25,19.54-6.42-4.31-1.82-9.52-.87-12.88-6,2-1.09,3.77-2.62,5.82-3.12a49.71,49.71,0,0,1,24.35.31c-1.75-8.38-3-16.46-.3-24.69a16.76,16.76,0,0,0-2.1-1.52c-2.63-1.36-3.39-3.51-2.4-6.14,1.06-2.8-.05-4.68-1.65-6.95a38.14,38.14,0,0,1-4.64-9.4c-.72-2.08-1.53-2.64-3.66-2.72-10.31-.41-20.62-.93-30.91-1.66a25.08,25.08,0,0,1-8.05-2c-1.39-.6-2.52-2.32-3.14-3.8-.18-.42,1.65-2.08,2.82-2.63,3.79-1.76,7.69-3.26,11.56-4.86l-.14-.82-2.77-.46c-6.68-1.14-13.41-2.11-20-3.55-1.93-.42-4.72-2-5-3.44-.38-1.82.87-4.67,2.36-6.07,3.37-3.16,7.32-5.71,11.43-8.79-3.24-.29-6.15-.46-9-.83a44.64,44.64,0,0,1-7.2-1.33c-3.79-1.14-4.45-3-2.64-6.55.23-.45.47-.89,1-1.94-5.79,1.71-11,3.15-16.16,4.78C85.21,259,69.76,264,54.28,268.9a48.8,48.8,0,0,1-24.68,1.76A20.53,20.53,0,0,1,18,237a35.25,35.25,0,0,1,21.17-12.45C51.5,222.43,64,220.26,76.48,220c17.43-.43,34.91.85,52.36,1.42a19.15,19.15,0,0,0,6-.33c-1.19-.43-2.38-.88-3.58-1.28-25.65-8.46-52.1-13.44-78.62-18.12-7.22-1.28-14.39-2.94-21.51-4.7a31.24,31.24,0,0,1-7.67-3.19c-13.2-7.41-14.43-23.6-2.56-33,7.65-6.09,16.48-7.44,25.87-6.15C62.4,156.7,77,162.23,90.87,169.37c14.35,7.36,28.45,15.21,42.65,22.85a12.6,12.6,0,0,0,4.82,1.77c-.83-.89-1.62-1.82-2.49-2.67-18.43-18.08-39.17-33.22-60.36-47.83-8.42-5.8-16.57-12-24.52-18.46-11.29-9.13-11.48-25.44-.45-35,8-6.92,17.35-9.2,27.73-6.81,1.28.3,2.55.64,4.44,1.12-1.1-2.13-2-3.79-2.84-5.51-3.05-6.57-.47-11.22,6.7-12.1C95.65,65.62,104,68.27,112,72.1c1.58.75,3.14,1.53,5.47,2.66-.42-2.93-.75-5.15-1.06-7.38-2.15-15.66,8-29.25,23-30.88,6.16-.67,11.36,1.49,16,5.36,5.5,4.61,9.06,10.62,12.1,17l3.53,7.4c2.58-5.3,4.88-10.48,7.61-15.42a30.61,30.61,0,0,1,5.66-7.36c6.21-5.86,13.84-4.24,16.76,3.77,1.69,4.65,2.31,9.7,3.3,14.6.55,2.71.86,5.46,1.34,8.63,3.14-2.61,5.83-5.08,8.77-7.22a42.21,42.21,0,0,1,8.75-5.39c8.84-3.54,16.72,1.43,17.25,10.94.29,5.19-.36,10.43-.6,15.65,0,1-.12,2-.2,3.37,2.51-1,4.69-2,6.91-2.77a46.79,46.79,0,0,1,5.71-1.83c6.43-1.46,10.59,2.44,9.35,8.94-.91,4.8-2.28,9.52-3.43,14.27-.23.95-.44,1.9-.73,3.14,2.24,0,4.22,0,6.2,0,10.72.16,15.09,5.59,13,16.13-.08.43-.12.87-.24,1.85,2.06,0,4,0,5.92,0,6,0,9.35,3.85,7.69,9.58-1.25,4.31-3.5,8.36-5.53,12.4a56,56,0,0,1-4.06,6.11c-1.3,1.91-2.63,3.8-4.15,6,4.17,2.06,8.12,4.05,12.12,5.94a2.9,2.9,0,0,0,2.23.07,22.3,22.3,0,0,1,19.23-.86c-1.54-8.56-2.87-16.3-4.36-24-.69-3.6-1.85-7.11-2.52-10.72a16.15,16.15,0,0,0-7.24-10.72,74.69,74.69,0,0,1-24.29-27.91c-4.25-8.37-4.9-16.52.36-24.69,2.14-3.32,2.53-6.52,1.41-10.65-3.84-14.06.44-26.11,11.47-35.28,7.93-6.59,16.9-11.55,27.73-11.89A6.56,6.56,0,0,0,316.07,9c6.42-5.87,9.94-5.33,16.16.53,2.72,2.55,7.34,3.1,11.13,4.45.29.1.9-.52,1.28-.89.71-.7,1.33-1.5,2-2.2,4.8-4.62,9.93-3.72,12.39,2.42a37.82,37.82,0,0,1,2.78,9.92C363,34.11,363.81,45,364.58,55.86c.12,1.67-.63,3.41-1.09,5.62,1.86,1,4,2.16,6.1,3.27,15.74,8.2,20.63,26.16,11,41.65-6.63-7.8-16.18-5.08-24.54-6.85-2.6-.55-4.76,1.77-4.62,5.26.23,6.2.72,12.41,1.56,18.56,1.2,8.82,3.23,17.63,1.58,26.52a31,31,0,0,1-4.6,11.57c-3.9,5.71-9.61,4.61-12.06-1.88-2.61-6.91-2.14-14-1-21.09,1-6,2.05-12,2.77-18.07a26.61,26.61,0,0,0-9.57,19.66,45.8,45.8,0,0,0,4,19.8c1.65,3.88,3.69,7.6,5.47,11.43a15.86,15.86,0,0,0,8.27,8.25c4.41,2,7.49,5.65,9.52,10a64.88,64.88,0,0,0,15.95,20.78c15.65,14,19.66,31,14.29,50.88-3.95,14.58-11.61,27.14-20.9,38.79-1,1.22-3.17,1.45-4.8,2.14-.42-1.52-1.27-3.07-1.16-4.54.24-3.08,1-6.11,1.67-10-1.2,1.05-1.89,1.6-2.52,2.22C349.07,300.61,336,307,321.16,310.18c-4,.86-7.7,3.17-11.34,5.18-.86.47-1.36,2.42-1.29,3.65a18.05,18.05,0,0,1-4.42,13.6c-1.32,1.48-3.39,2.29-5.09,3.45-1.24.85-3,1.49-3.57,2.68-3.08,6.61-5.85,13.36-8.95,20.56,9.65-2.9,18.76-5.65,27.88-8.37,4.48-1.34,8.94-2.75,13.46-3.9,3.6-.91,7.27-1.28,10.5,1.58-.64,4.86-5.35,5.65-8.86,8.5,2.82,0,5-.16,7.15,0,7.07.62,14.17,1.14,21.19,2.2,2.22.33,4.47,1.91,6.22,3.46,2,1.74,1.36,3.84-1.15,4.55a30.39,30.39,0,0,1-7.55,1c-6.22.14-12.45,0-18.9.75,1.72.76,3.45,1.49,5.14,2.29,2,.93,4,2,3.47,4.64a4.51,4.51,0,0,1-4.88,3.74c-7.77-.13-15.57-.11-23.29-.9a131.83,131.83,0,0,1-18.65-3.67A79.22,79.22,0,0,0,273.1,373a25.35,25.35,0,0,1-5.65-.22c-3.73-.58-5.6-3.49-3.81-6.78a15.67,15.67,0,0,1,5.88-5.93c3-1.66,5.21-3.58,6.53-6.73a91.46,91.46,0,0,1,5.2-11.19c2.82-4.79,2.16-9.06-.93-13.4-5.26.89-10.57,2-15.95,2.64-16.72,2-32.84-.22-48.14-7.53-4.87-2.32-12.4,2.39-12.34,7.75.11,9.57,3.85,17.78,10,24.86,1.46,1.68,4.11,2.43,6.32,3.33,3.28,1.34,6.72,2.29,10,3.7,2.13.92,3.69,2.64,3.3,5.25s-2.32,4-4.81,4.4c-5.83.82-11.67,1.87-17.53,2.11a58.36,58.36,0,0,0-29.09,8.6c-4.82,3-9.7,5.91-14.7,8.57a27.07,27.07,0,0,1-7.51,2.58c-3.46.67-5.11-1.58-3.55-4.8a25.62,25.62,0,0,1,4-5.7C164,380.31,168,376.24,171.73,372.21ZM337.51,234c-4.86-4.72-5.77-13.3-14.67-12.69-.59-3.17-.81-6.22-1.75-9-1.46-4.39-2.85-9-5.3-12.82-2.25-3.53-5.27-5.84-4.19-11.12.91-4.45-.86-9.44-1.36-14.19-.27-2.56-1.71-3.92-4-4.74-6.16-2.18-15.45.77-19.14,6.21a17.93,17.93,0,0,0-1.22,2.63l11.27,1.73.58,1.25c-1.92,2.47-3.65,5.11-5.78,7.37-7.63,8.1-12.79,17.36-13.73,28.61-.2,2.42.32,4.9.51,7.35l1.41.68,12.29-10.31,1.22.59a53.38,53.38,0,0,1,0,5.39c-.81,8-1.82,15.91-2.52,23.88-.17,1.92.53,3.92.83,5.88l1.07.16c1.75-2.39,3.45-4.81,5.26-7.15s3.3-5.36,7.57-6c.3,2.18.51,4.29.9,6.37.66,3.46,1.08,7,2.26,10.3,1,2.9,4.77,3.94,8.32,3.29,3.35-.62,3.23-3,3.31-5.54.09-2.78.59-5.55.91-8.33l1.18,0c.13,1.22.29,2.44.4,3.67.62,7.09,1.09,14.2,1.93,21.26.26,2.15,1.54,4.17,2.36,6.25,1.62-1.71,3.57-3.21,4.81-5.16,2.48-3.89,4.58-8,6.83-12.05,6.37,3.29,8,2.9,12.51-2.33a23.83,23.83,0,0,0,5.74-17.3c-.16-3.08-.12-5.63,4.25-5.46-.34-2.06-.5-3.82-.94-5.51-1.18-4.52-2.59-9-3.69-13.52a19.94,19.94,0,0,1-.06-4.6l1.06-.43,5.08,4.74c-.82-9.37-9.71-25.47-17.48-31C351.41,201.06,350.92,218.47,337.51,234Zm4.31-138.89-1-.68c-1.09,1.37-2.17,2.75-3.28,4.09a90.18,90.18,0,0,1-6.48,7.61c-3.35,3.22-7.57,2.34-8.13-1.79-.49-3.54-.82-7.65.5-10.78,2.57-6.09,6.33-11.67,9.64-17.44.38-.66.87-1.52,1.5-1.73a29.35,29.35,0,0,1,4.32-.84,20,20,0,0,1,.57,3.5,29.64,29.64,0,0,1-.59,3.61c-.65,4.89.8,7.56,5.4,9.47a50.18,50.18,0,0,0,7.89,2.65c9.16,2.11,18.35,4,27.66,6.08,0-4.71.47-9.54-.1-14.23-1.08-8.8-7.12-13.67-14.8-17-5.4-2.32-10.89-4.5-16-7.32-2.42-1.33-4.11-4-6.43-6.38-1.67,7.52-6,12.64-11.33,17a56,56,0,0,1-6.25,5c-5,3-7,7.27-7.41,12.94-.63,8.25-.35,16.22,3.66,23.7,1.71,3.19,4,4,6,1.59C332.2,108,336.94,101.48,341.82,95.08Zm-113,274.28.13-1.28a16.43,16.43,0,0,0-9.9-4.65c-2.69-.37-6.06-1.33-7.66-3.25-7.53-9-12.91-19-10.42-31.46.7-3.51-2.08-3.42-3.92-4.11-2.27-.86-3.41.65-3.59,2.68-1.11,12.81.22,24.77,11.68,33.22a33.92,33.92,0,0,1,4.11,4.27l-.71,1c-1.42-.41-3.06-.51-4.22-1.31a22.06,22.06,0,0,1-5.74-5c-4.58-6.56-10.84-8.12-18.32-7.25a81.4,81.4,0,0,1-9.41.06l-.06.9c1.14.22,2.26.48,3.41.66,5.28.82,10.58,1.51,15.83,2.47a24.44,24.44,0,0,1,4.82,2l-.18,1.12c-2.2.66-4.36,1.51-6.6,1.94-8.52,1.65-17.11,2.93-25.57,4.82-3.85.86-7.44,2.85-11.15,4.32l.41,1.21c2.22-.45,4.46-.86,6.67-1.36,9-2.06,18-4.21,27-6.21,2.06-.46,4.43-1.13,5.92,2A95.8,95.8,0,0,0,162,389.65a19.11,19.11,0,0,0,5.22-2.11q6.18-3.64,12.26-7.46A60,60,0,0,1,214,370.69C218.93,370.83,223.86,369.84,228.78,369.36Zm63.63-32.79c-3.5-1.38-4.85.2-5.88,2.62-2.53,5.93-5.15,11.82-7.72,17.74-1.41,3.25-3.6,5.58-7.21,6.3-2.71.54-3.7,2.51-4.31,5.4,1.73.28,3.3.65,4.9.77,8.64.6,17.36.65,25.92,1.81,10.23,1.39,20.31,3.8,30.48,5.62,4.68.84,8.32.2,11.58-1.77l-31-8,.22-1.92c7.93-.6,15.9-.51,23.86-.58s16.2,0,24.3,0l.1-1.54c-3.79-.54-7.58-1.49-11.38-1.54-9.44-.11-18.88.2-28.32.33-2.26,0-4.52,0-6.78,0l-.15-1.3,23.06-9.45L333.8,350c-3.17.69-6.39,1.2-9.5,2.09-13,3.74-26,7.66-39.06,11.34-2.34.66-4.89.55-7.6.82C286,356.12,287.38,345.5,292.41,336.57ZM328.78,62.31c2.44-.35,3.13-1.82,3.09-3.77-.14-7.22-.27-14.44-.54-21.66-.11-2.91-1-5.6-4.36-6.29-3.18-.66-5,1.37-6.38,3.77a37.2,37.2,0,0,0-5.21,23c.16,1.71,1.11,3.34,1.7,5a8.42,8.42,0,0,0,1.35-3.8c.33-2.31.22-4.79,1.08-6.88.65-1.58,2.46-3.58,3.88-3.68s3.38,1.67,4.33,3.13.88,3.39,1,5.14S328.78,60,328.78,62.31Zm18.17-14.94c5.1-1.29,5.84-.76,6.31,4.18.13,1.32.05,2.68.29,4a29.32,29.32,0,0,0,1.12,3.6l1-.27c-.43-8.64,1.46-17.7-5.21-26.11Zm-24,14.33c3.44-1.79,3.73-3.67,1-7Z" transform="translate(-11.35 -4.01)"/>
      <path d="M337.51,234c13.42-15.5,13.9-32.91,8-51.67,7.77,5.56,16.66,21.65,17.48,31l-5.08-4.74-1.06.43a19.94,19.94,0,0,0,.06,4.6c1.11,4.54,2.51,9,3.69,13.52.44,1.69.6,3.45.94,5.51-4.37-.17-4.41,2.38-4.25,5.46a23.83,23.83,0,0,1-5.74,17.3c-4.47,5.23-6.13,5.62-12.51,2.33-2.25,4-4.35,8.16-6.83,12.05-1.24,1.95-3.18,3.45-4.81,5.16-.81-2.08-2.1-4.1-2.36-6.25-.84-7.06-1.31-14.17-1.93-21.26-.11-1.22-.26-2.45-.4-3.67l-1.18,0c-.32,2.78-.83,5.55-.91,8.33-.08,2.58,0,4.93-3.31,5.54-3.55.65-7.27-.39-8.32-3.29-1.18-3.28-1.61-6.84-2.26-10.3-.39-2.08-.6-4.2-.9-6.37-4.27.61-5.7,3.57-7.57,6s-3.51,4.76-5.26,7.15l-1.07-.16c-.3-2-1-4-.83-5.88.71-8,1.71-15.92,2.52-23.88a53.38,53.38,0,0,0,0-5.39l-1.22-.59L280.1,225.2l-1.41-.68c-.19-2.45-.71-4.93-.51-7.35.95-11.24,6.11-20.51,13.73-28.61,2.13-2.26,3.87-4.9,5.78-7.37l-.58-1.25-11.27-1.73a17.93,17.93,0,0,1,1.22-2.63c3.69-5.44,13-8.39,19.14-6.21,2.32.82,3.76,2.18,4,4.74.5,4.76,2.27,9.74,1.36,14.19-1.07,5.29,1.95,7.6,4.19,11.12,2.45,3.84,3.84,8.43,5.3,12.82.94,2.82,1.16,5.87,1.75,9C331.74,220.67,332.65,229.25,337.51,234Z" transform="translate(-11.35 -4.01)" fill="#fff"/>
      <path d="M341.82,95.08c-4.88,6.4-9.62,12.9-14.71,19.13-2,2.43-4.25,1.6-6-1.59-4-7.48-4.29-15.45-3.66-23.7.43-5.67,2.45-10,7.41-12.94a56,56,0,0,0,6.25-5c5.35-4.39,9.66-9.51,11.33-17,2.33,2.38,4,5.05,6.43,6.38,5.13,2.82,10.63,5,16,7.32,7.67,3.31,13.72,8.17,14.8,17,.58,4.69.1,9.52.1,14.23-9.31-2-18.51-4-27.66-6.08a50.18,50.18,0,0,1-7.89-2.65c-4.59-1.91-6-4.59-5.4-9.47a29.64,29.64,0,0,0,.59-3.61,20,20,0,0,0-.57-3.5,29.35,29.35,0,0,0-4.32.84c-.63.21-1.12,1.07-1.5,1.73-3.3,5.77-7.07,11.36-9.64,17.44-1.32,3.13-1,7.24-.5,10.78.57,4.13,4.78,5,8.13,1.79a90.18,90.18,0,0,0,6.48-7.61c1.12-1.35,2.19-2.73,3.28-4.09Z" transform="translate(-11.35 -4.01)" fill="#fff"/>
      <path d="M228.78,369.36c-4.92.48-9.85,1.47-14.74,1.32a60,60,0,0,0-34.55,9.39q-6.08,3.81-12.26,7.46a19.11,19.11,0,0,1-5.22,2.11,95.8,95.8,0,0,1,29.28-23.56c-1.49-3.13-3.86-2.45-5.92-2-9,2-18,4.14-27,6.21-2.21.51-4.45.91-6.67,1.36l-.41-1.21c3.71-1.47,7.3-3.46,11.15-4.32,8.46-1.9,17.05-3.18,25.57-4.82,2.24-.43,4.4-1.28,6.6-1.94l.18-1.12a24.44,24.44,0,0,0-4.82-2c-5.25-1-10.55-1.66-15.83-2.47-1.14-.18-2.27-.44-3.41-.66l.06-.9a81.4,81.4,0,0,0,9.41-.06c7.48-.88,13.74.68,18.32,7.25a22.06,22.06,0,0,0,5.74,5c1.16.8,2.8.9,4.22,1.31l.71-1a33.92,33.92,0,0,0-4.11-4.27c-11.46-8.45-12.78-20.41-11.68-33.22.18-2,1.31-3.53,3.59-2.68,1.84.69,4.62.61,3.92,4.11-2.49,12.41,2.89,22.43,10.42,31.46,1.6,1.92,5,2.87,7.66,3.25a16.43,16.43,0,0,1,9.9,4.65Z" transform="translate(-11.35 -4.01)" fill="#fff"/>
      <path d="M292.41,336.57c-5,8.92-6.43,19.55-14.76,27.68,2.71-.27,5.26-.16,7.6-.82,13-3.69,26-7.61,39.06-11.34,3.11-.89,6.33-1.4,9.5-2.09l.33,1.09-23.06,9.45.15,1.3c2.26,0,4.52,0,6.78,0,9.44-.13,18.88-.44,28.32-.33,3.8,0,7.59,1,11.38,1.54l-.1,1.54c-8.1,0-16.2-.06-24.3,0s-15.93,0-23.86.58l-.22,1.92,31,8c-3.26,2-6.89,2.61-11.58,1.77-10.17-1.82-20.26-4.23-30.48-5.62-8.56-1.17-17.28-1.21-25.92-1.81-1.6-.11-3.17-.49-4.9-.77.61-2.89,1.6-4.86,4.31-5.4,3.61-.72,5.8-3,7.21-6.3,2.56-5.92,5.19-11.81,7.72-17.74C287.56,336.77,288.91,335.2,292.41,336.57Z" transform="translate(-11.35 -4.01)" fill="#fff"/>
      <path d="M328.78,62.31c0-2.27.12-4.16,0-6s-.14-3.77-1-5.14-2.92-3.23-4.33-3.13-3.23,2.1-3.88,3.68c-.86,2.08-.74,4.57-1.08,6.88a8.42,8.42,0,0,1-1.35,3.8c-.59-1.67-1.54-3.3-1.7-5a37.2,37.2,0,0,1,5.21-23c1.43-2.4,3.2-4.43,6.38-3.77,3.36.7,4.24,3.38,4.36,6.29.27,7.22.4,14.44.54,21.66C331.91,60.49,331.23,62,328.78,62.31Z" transform="translate(-11.35 -4.01)" fill="#fff"/>
      <path d="M346.95,47.37l3.54-14.63c6.67,8.41,4.78,17.47,5.21,26.11l-1,.27a29.32,29.32,0,0,1-1.12-3.6c-.24-1.3-.16-2.65-.29-4C352.79,46.62,352,46.08,346.95,47.37Z" transform="translate(-11.35 -4.01)" fill="#fff"/>
      <path d="M322.92,61.7l1-7C326.65,58,326.36,59.91,322.92,61.7Z" transform="translate(-11.35 -4.01)" fill="#fff"/>
    </g>
  </g>
</svg>
