<svg id="Layer_1" data-name="Layer 1" xmlns="http://www.w3.org/2000/svg" viewBox="0 0 346.99 386.8">
  <title>xmas</title>
  <g id="DmQZKj.tif">
    <path d="M26.46,367.35c6.13-5.6,11.55-11.88,17.26-17.89,9-9.46,18-18.88,27-28.37,6.21-6.57,12.41-13.14,18.45-19.85,2.86-3.18,6.16-5.92,8.72-9.4,2.68-3.63,2.84-3.54-1.77-4.66a145.48,145.48,0,0,1-26.47-8.81c-3.14-1.44-3.29-2.36-.95-4.86,4.38-4.66,8.71-9.37,13-14.07,9.53-10.32,19.1-20.61,28.58-31,6.6-7.23,12.94-14.71,19.66-21.83,3.53-3.74,6.75-7.74,10.43-11.85-8-1.86-15.89-3.67-23.76-5.54-5.55-1.31-5.76-1.84-2.14-6.37,10.74-13.44,21.3-27,31.84-40.62C154.2,132.13,162.15,122.1,170,112s15.89-20.08,23.6-30.29c1.35-1.78,3.47-2.94,4.34-5.66-4.74,1.39-8.29,4.44-12.35,6.44s-7.86,4.49-11.78,6.77c-1,.56-2,1.59-3.09.88-1.35-.91-.48-2.42,0-3.44,3.18-7.33,4.06-15.31,6.56-22.82,1-3.15.17-5.2-2.4-7.07-6.61-4.8-13.12-9.73-19.64-14.65-1-.78-3-1.31-2.52-2.86s2.43-.81,3.73-.9c8.79-.57,17.58-1.09,26.37-1.61,3.06-.18,5.16-1.45,6.19-4.55,2.87-8.58,7.46-16.4,11-25.27a26.49,26.49,0,0,1,4.46,7.4c2.57,6.55,5.26,13,8.44,19.34,1.18,2.33,2.89,2.94,5.12,3.07,8.92.53,17.84,1,26.75,1.6,1.08.07,2.56-.41,3.09.78.62,1.38-1,1.89-1.76,2.5-6.68,5.11-13.34,10.27-20.18,15.16-2.6,1.86-3.61,3.63-2.68,6.9,2.25,7.85,5.37,15.45,6.82,23.52.17.93.93,2.06-.15,2.76-.83.54-1.64-.32-2.39-.74Q217,83.43,206.46,77.52c-1-.59-1.91-1.62-3.58-1.53,5.2,7.45,10.75,14.37,16.4,21.21,2.8,3.39,5.38,7,8.11,10.4,9.77,12.29,19.17,24.88,28.81,37.28q15.73,20.22,31.69,40.25c1.69,2.12,1.38,2.7-1,3.46-6.86,2.18-14,3.33-20.91,5.09-1.52.38-3.86,0-4.27,1.61s1.65,2.66,2.72,3.84q17.79,19.66,35.68,39.24c10.14,11.14,20.35,22.22,30.4,33.43,4.36,4.86,4.07,5.76-2.1,8.21a151.19,151.19,0,0,1-24.1,7.59c-.83.18-1.62.52-2.87.94,4.6,4.93,9,9.53,13.27,14.22C326.62,315.84,338.47,329,350.41,342q10.67,11.67,21.54,23.15c2.45,2.57,1.72,3.89-1.1,5.21-8.59,4-17.65,6.63-26.75,9.18-20.81,5.82-42.12,8.78-63.54,11-13.26,1.36-26.57,2.45-39.92,2.63-1.87,0-3.79-.25-5.58.62h-65c-6.56-1.35-13.25-.82-19.87-1.24-15.18-1-30.32-2.2-45.37-4.22-26.83-3.59-53.29-8.83-78.37-19.49Z" transform="translate(-26.46 -7)"/>
  </g>
</svg>
